<?xml version="1.0" encoding="UTF-8" standalone="no"?>
<svg
   xmlns:dc="http://purl.org/dc/elements/1.1/"
   xmlns:cc="http://creativecommons.org/ns#"
   xmlns:rdf="http://www.w3.org/1999/02/22-rdf-syntax-ns#"
   xmlns:svg="http://www.w3.org/2000/svg"
   xmlns="http://www.w3.org/2000/svg"
   xmlns:sodipodi="http://sodipodi.sourceforge.net/DTD/sodipodi-0.dtd"
   xmlns:inkscape="http://www.inkscape.org/namespaces/inkscape"
   width="210mm"
   height="297mm"
   viewBox="0 0 210 297"
   version="1.1"
   id="svg8"
   sodipodi:docname="end user apps.svg"
   inkscape:version="1.0.1 (3bc2e813f5, 2020-09-07)">
  <defs
     id="defs2" />
  <sodipodi:namedview
     id="base"
     pagecolor="#ffffff"
     bordercolor="#666666"
     borderopacity="1.0"
     inkscape:pageopacity="0.0"
     inkscape:pageshadow="2"
     inkscape:zoom="0.80681199"
     inkscape:cx="562.93137"
     inkscape:cy="565.29218"
     inkscape:document-units="mm"
     inkscape:current-layer="layer1"
     inkscape:document-rotation="0"
     showgrid="false"
     inkscape:window-width="1920"
     inkscape:window-height="1046"
     inkscape:window-x="-11"
     inkscape:window-y="-11"
     inkscape:window-maximized="1" />
  <metadata
     id="metadata5">
    <rdf:RDF>
      <cc:Work
         rdf:about="">
        <dc:format>image/svg+xml</dc:format>
        <dc:type
           rdf:resource="http://purl.org/dc/dcmitype/StillImage" />
        <dc:title></dc:title>
      </cc:Work>
    </rdf:RDF>
  </metadata>
  <g
     inkscape:label="Capa 1"
     inkscape:groupmode="layer"
     id="layer1">
    <path
       style="fill:#000000;stroke-width:1"
       d="m 83.475717,125.42643 c -1.406028,-0.0116 -3.305479,-0.18369 -4.221004,-0.38249 -0.915527,-0.19881 -2.316684,-0.66 -3.113683,-1.02487 -0.798703,-0.36566 -2.088043,-1.30237 -2.872708,-2.08704 -0.782989,-0.78299 -1.734166,-2.03646 -2.113727,-2.78548 -0.37956,-0.74903 -0.866092,-2.10829 -1.081185,-3.02058 -0.21509,-0.9123 -0.392835,-2.91959 -0.394986,-4.46066 -0.0027,-1.94745 0.157554,-3.43327 0.525537,-4.87207 0.291195,-1.13856 0.88561,-2.62515 1.320919,-3.30352 0.435311,-0.67837 1.238855,-1.68287 1.785657,-2.23222 0.546801,-0.54934 1.649028,-1.329049 2.449393,-1.732669 0.800364,-0.40363 2.312149,-0.9274 3.359523,-1.16395 1.101013,-0.24866 3.074786,-0.43008 4.679055,-0.43008 1.526109,0 3.632531,0.18044 4.680937,0.40097 1.048403,0.22054 2.602452,0.77209 3.453439,1.22566 0.850988,0.453569 2.074561,1.388409 2.719052,2.077429 0.644493,0.68901 1.47071,1.84261 1.836036,2.56355 0.365326,0.72093 0.870424,2.0762 1.122439,3.01169 0.29563,1.0974 0.459555,2.68661 0.462002,4.47903 0.0024,1.75805 -0.15776,3.38953 -0.436186,4.44325 -0.241991,0.91582 -0.75559,2.30968 -1.141334,3.09748 -0.385743,0.78779 -1.248825,1.97982 -1.917959,2.64895 -0.669136,0.66914 -1.932244,1.56802 -2.806911,1.99752 -0.874665,0.42949 -2.523511,0.9587 -3.664098,1.17602 -1.140587,0.21731 -3.224181,0.38565 -4.630208,0.37408 z m 1.015462,-4.06457 c 2.690686,-0.0604 4.270452,-0.22261 5.289619,-0.5431 0.976908,-0.30719 1.814274,-0.81806 2.554999,-1.55879 0.779754,-0.77975 1.244402,-1.56395 1.589548,-2.68269 0.363567,-1.17847 0.487709,-2.4227 0.487709,-4.88815 0,-2.42188 -0.125846,-3.71427 -0.470069,-4.82747 -0.258538,-0.83609 -0.842579,-1.94444 -1.297866,-2.46298 -0.455287,-0.51855 -1.258716,-1.16265 -1.785398,-1.43134 -0.526679,-0.26869 -1.702824,-0.63515 -2.613657,-0.81434 -1.080402,-0.21256 -2.963534,-0.27821 -5.417449,-0.18889 -2.983474,0.10861 -4.072734,0.25559 -5.266785,0.71068 -0.890937,0.33956 -1.824824,0.93756 -2.287982,1.46507 -0.430424,0.49022 -1.057415,1.58568 -1.393314,2.43435 -0.533387,1.34764 -0.609788,1.99536 -0.603335,5.11492 0.0063,3.06831 0.09152,3.78693 0.604158,5.09735 0.328221,0.83902 0.900149,1.88604 1.270952,2.32671 0.3708,0.44067 1.131525,1.03454 1.690497,1.31971 0.558969,0.28516 1.645322,0.63022 2.414114,0.76679 0.768789,0.13656 3.124208,0.20954 5.234259,0.16217 z m -3.612337,-3.58732 c -0.331309,0 -0.72563,-0.23029 -0.876271,-0.51177 -0.161224,-0.30125 -0.273891,-2.57906 -0.273891,-5.53735 0,-4.21593 0.06698,-5.09256 0.415774,-5.44135 0.228674,-0.22868 0.534159,-0.41577 0.678852,-0.41577 0.144693,0 0.523142,0.13383 0.840997,0.2974 0.317854,0.16357 2.152155,1.30941 4.07622,2.54632 1.924066,1.2369 3.568436,2.46988 3.654155,2.73996 0.08572,0.27008 0.05611,0.66929 -0.0658,0.88713 -0.121909,0.21784 -1.937504,1.52993 -4.034657,2.91575 -2.097151,1.38583 -4.084071,2.51968 -4.415379,2.51968 z m 65.248198,73.38848 c -0.53268,0.13971 -1.37559,0.14714 -1.98437,0.0175 -0.58208,-0.12396 -7.81841,-2.49868 -16.08074,-5.27716 l -15.0224,-5.05176 -4.42447,1.46269 c -2.43346,0.80448 -9.360894,3.14085 -15.394284,5.19193 -7.14728,2.42975 -11.351627,3.72924 -12.065557,3.72924 -0.701622,0 -1.416878,-0.21641 -1.988532,-0.60165 -0.543912,-0.36654 -1.090033,-1.0776 -1.397574,-1.81966 -0.362548,-0.87479 -0.452596,-1.49625 -0.319561,-2.20539 0.112628,-0.60035 0.567325,-1.39018 1.160007,-2.01498 0.935067,-0.98574 1.432849,-1.17712 12.219817,-4.69809 6.18478,-2.01877 11.661654,-3.77576 12.170834,-3.90443 0.56535,-0.14285 -9.014924,-0.28543 -24.6065,-0.36622 l -25.532291,-0.13229 -1.16206,-0.61986 c -0.639133,-0.34093 -1.725031,-1.14646 -2.413111,-1.79008 -0.717045,-0.67071 -1.632728,-1.93077 -2.145231,-2.95201 L 46.246836,168.349 V 128.78045 89.211533 l 0.999577,-2.02251 c 0.632132,-1.27903 1.410222,-2.38026 2.116667,-2.99572 0.6144,-0.53527 1.890996,-1.34537 2.836881,-1.80023 l 1.719791,-0.82702 23.347306,-0.13229 c 72.155492,0 48.103952,-0.118884 72.155492,0 l 23.3068,0.13229 1.73762,0.85557 c 1.08771,0.53556 2.25366,1.4012 3.11733,2.3144 0.75884,0.80237 1.70069,2.14377 2.093,2.9809 l 0.71328,1.52205 v 39.455367 39.45537 l -1.05833,2.07273 c -0.7793,1.52625 -1.41803,2.36478 -2.42261,3.18041 -0.75035,0.60922 -2.03474,1.35852 -2.8542,1.66512 -1.47548,0.55205 -1.73522,0.55765 -26.81384,0.57834 -24.92022,0.0206 -25.30073,0.0286 -23.86872,0.50577 0.80036,0.26668 4.01505,1.28252 7.14375,2.25742 3.1287,0.9749 8.03452,2.52122 10.90184,3.43626 2.86731,0.91505 5.5613,1.91152 5.98665,2.2144 0.42534,0.30287 0.96662,0.95796 1.20284,1.45577 0.23623,0.4978 0.4295,1.33949 0.4295,1.87043 0,0.53093 -0.16728,1.28685 -0.37174,1.6798 -0.20445,0.39296 -0.65094,0.97095 -0.99218,1.28442 -0.34125,0.31347 -1.03717,0.67925 -1.5465,0.81283 z M 113.4771,167.42295 h 59.10828 V 128.54933 89.675333 l -59.20052,0.0464 -59.200524,0.0464 -0.08039,35.851027 c -0.04422,19.71807 -0.0027,37.1905 0.09225,38.8276 l 0.172641,2.97657 z m 27.87197,-39.12494 c -6.79075,0.0411 -9.58293,-0.033 -10.46974,-0.27778 -0.66512,-0.18362 -1.7552,-0.65376 -2.42239,-1.04476 -0.66719,-0.391 -1.58402,-1.17927 -2.0374,-1.75171 -0.45338,-0.57244 -1.08971,-1.61581 -1.41406,-2.31861 -0.57535,-1.24661 -0.58975,-1.51027 -0.58975,-10.8028 0,-9.22799 0.018,-9.56392 0.5766,-10.7731 0.31713,-0.68645 1.12267,-1.831895 1.79009,-2.545425 0.73994,-0.79106 1.80556,-1.561444 2.7307,-1.97417 l 1.5172,-0.67686 9.65729,-0.075 c 9.53698,-0.074 9.67377,-0.0675 10.98021,0.52235 0.7276,0.32852 1.9395,1.2045 2.69311,1.94664 0.80853,0.79622 1.6762,2.011425 2.11667,2.964505 l 0.74647,1.61517 v 9.26042 9.26042 l -0.69072,1.45521 c -0.37989,0.80036 -1.21334,1.97612 -1.85209,2.6128 -0.63875,0.63668 -1.81621,1.47011 -2.61657,1.85208 l -1.45521,0.69449 z m -0.66146,-3.64956 c 5.1496,0.0112 8.99257,-0.0907 9.58021,-0.25387 0.53969,-0.14989 1.36132,-0.6526 1.82586,-1.11713 0.46453,-0.46454 1.06215,-1.3235 1.32804,-1.90881 0.43345,-0.95417 0.48388,-1.88493 0.48777,-9.00171 0.002,-4.36562 -0.11162,-8.35422 -0.25333,-8.86354 -0.14172,-0.50932 -0.63865,-1.3879 -1.10429,-1.9524 -0.46564,-0.5645 -1.33129,-1.24649 -1.92367,-1.51554 -0.97604,-0.443315 -1.88367,-0.489735 -9.67775,-0.495005 -4.86449,-0.003 -8.99478,0.10721 -9.50785,0.25436 -0.49893,0.14309 -1.31224,0.649105 -1.80737,1.124485 -0.49513,0.47537 -1.12793,1.30605 -1.40622,1.84596 -0.46697,0.90595 -0.50554,1.62004 -0.50017,9.26041 0.005,7.44617 0.0544,8.38583 0.48937,9.34327 0.26596,0.58547 0.85831,1.41819 1.31632,1.85048 0.45802,0.43229 1.22007,0.92648 1.69344,1.09819 0.59059,0.21423 3.55916,0.31805 9.45964,0.33085 z m 0.52917,-3.75805 c -1.9331,0.0811 -2.46887,0.002 -3.81476,-0.56508 -0.86118,-0.36267 -2.0916,-1.17057 -2.73425,-1.79535 -0.64265,-0.62477 -1.48529,-1.73127 -1.87252,-2.45887 -0.61972,-1.16445 -0.70421,-1.62401 -0.70533,-3.83646 -0.001,-2.21889 0.0856,-2.69041 0.73966,-4.02236 0.42951,-0.87464 1.29675,-2.00854 2.06332,-2.69775 0.73886,-0.6643 1.98807,-1.43894 2.83094,-1.75548 1.17728,-0.44213 1.94433,-0.54603 3.49294,-0.47311 1.40281,0.066 2.35894,0.27664 3.26247,0.71854 0.70296,0.34381 1.84855,1.19555 2.54576,1.89276 0.69721,0.69721 1.55082,1.84281 1.8969,2.54576 0.52875,1.07398 0.62924,1.67952 0.62924,3.79164 0,2.34777 -0.0582,2.62091 -0.88309,4.14155 -0.4857,0.8954 -1.32154,1.98035 -1.85742,2.41099 -0.53588,0.43065 -1.50771,1.05882 -2.15962,1.39595 -0.89683,0.46379 -1.73259,0.63591 -3.43424,0.70727 z m 0.0508,-2.89714 c 1.48019,-0.0716 1.95762,-0.22005 2.91042,-0.90495 0.62687,-0.45062 1.49695,-1.39028 1.93352,-2.08814 0.66175,-1.05782 0.79176,-1.53627 0.78179,-2.87707 -0.008,-1.10599 -0.1861,-1.93877 -0.56956,-2.66658 -0.30669,-0.58209 -0.83709,-1.31884 -1.17867,-1.63723 -0.34159,-0.31839 -1.15684,-0.82179 -1.81169,-1.11867 -0.705,-0.31961 -1.75836,-0.54214 -2.58257,-0.54559 -0.88,-0.004 -1.83381,0.2019 -2.59334,0.55892 -0.66077,0.3106 -1.47885,0.93567 -1.81797,1.38906 -0.33911,0.45339 -0.82112,1.2284 -1.07113,1.72226 -0.27249,0.53825 -0.45457,1.50574 -0.45457,2.41535 0,0.83459 0.14591,1.79974 0.32424,2.14479 0.17834,0.34505 0.62279,1.02712 0.98768,1.51572 0.36489,0.48861 1.27269,1.17849 2.01732,1.53307 1.10563,0.52649 1.67855,0.629 3.12453,0.55906 z m -0.5311,-2.32939 c -0.24519,-0.006 -0.81308,-0.17027 -1.26199,-0.36573 -0.4489,-0.19545 -1.06575,-0.67263 -1.37076,-1.0604 -0.30502,-0.38777 -0.63172,-1.05622 -0.72599,-1.48544 -0.0943,-0.42923 -0.0402,-1.1779 0.12011,-1.66373 0.16034,-0.48582 0.63268,-1.21015 1.04963,-1.60963 0.47601,-0.45604 1.16308,-0.78063 1.84638,-0.87228 0.88008,-0.11805 1.28539,-0.0155 2.11882,0.53603 0.70628,0.46739 1.17277,1.05434 1.48247,1.8653 0.36891,0.96596 0.39682,1.35025 0.15198,2.09212 -0.16496,0.49984 -0.56436,1.1565 -0.88756,1.45925 -0.3232,0.30275 -0.92281,0.67744 -1.33246,0.83266 -0.40966,0.15521 -0.94544,0.27754 -1.19063,0.27185 z M 83.875919,162.9475 c -0.89999,-0.0119 -2.46633,-0.19941 -3.48075,-0.41678 -1.01443,-0.21737 -2.47173,-0.69199 -3.23846,-1.05471 -0.76673,-0.36272 -1.98227,-1.10147 -2.7012,-1.64166 -0.71893,-0.54019 -1.76861,-1.51438 -2.33263,-2.16487 -0.56402,-0.65048 -1.42171,-1.83548 -1.90597,-2.63331 -0.48426,-0.79784 -1.11612,-2.10753 -1.40413,-2.91042 -0.33945,-0.94628 -0.57072,-2.43823 -0.65743,-4.24123 -0.099,-2.05765 -0.022,-3.22809 0.29585,-4.49792 0.23629,-0.94406 0.89686,-2.66898 1.46793,-3.83315 0.66566,-1.35698 1.59104,-2.68936 2.57834,-3.71232 0.84701,-0.87762 2.1228,-1.97684 2.83508,-2.44272 0.71229,-0.46588 1.95844,-1.09525 2.76923,-1.3986 0.81079,-0.30336 2.05997,-0.66266 2.77595,-0.79844 0.71598,-0.13578 2.27254,-0.24688 3.45904,-0.24688 1.18649,0 2.86688,0.18073 3.7342,0.40162 0.86732,0.22088 2.34775,0.78643 3.28985,1.25677 1.10325,0.55079 2.42855,1.56143 3.7236,2.83953 1.48904,1.46955 2.26203,2.49919 2.97947,3.96875 0.53282,1.0914 1.14916,2.694 1.36962,3.56132 0.22047,0.86731 0.40086,2.59847 0.40086,3.84701 0,1.24854 -0.17963,2.9797 -0.39917,3.84702 -0.21954,0.86732 -0.84006,2.46991 -1.37894,3.56131 -0.69883,1.41537 -1.55169,2.56213 -2.97427,3.99925 -1.40997,1.42437 -2.55699,2.29785 -3.91379,2.98043 -1.05561,0.53105 -2.76004,1.1424 -3.78761,1.35856 -1.02757,0.21616 -2.60467,0.38331 -3.50467,0.37144 z m -3.40114,-3.81503 c 0.048,-0.0474 -0.0924,-0.36446 -0.31195,-0.7045 -0.21958,-0.34005 -0.76487,-1.5441 -1.21176,-2.67568 -0.4469,-1.13157 -0.81254,-2.29617 -0.81254,-2.58799 0,-0.29182 -0.15523,-0.59015 -0.34497,-0.66296 -0.18974,-0.0728 -1.05294,0.18008 -1.91823,0.56197 -0.86529,0.38189 -1.71761,0.81325 -1.89405,0.95858 -0.24489,0.20172 -0.18229,0.45217 0.26459,1.0585 0.32195,0.43684 1.13209,1.1962 1.8003,1.68746 0.66822,0.49126 1.91837,1.24367 2.77813,1.67203 0.85976,0.42836 1.60247,0.74002 1.65048,0.69259 z m 8.10305,-0.5126 c 0.82092,-0.36305 1.87377,-0.92072 2.33966,-1.23926 0.4659,-0.31854 1.3531,-1.06171 1.97156,-1.65148 0.61847,-0.58978 1.12448,-1.20734 1.12448,-1.37238 0,-0.16503 -0.95819,-0.74971 -2.1293,-1.29929 -1.17112,-0.54957 -2.16216,-0.95529 -2.2023,-0.90161 -0.0401,0.0537 -0.33248,1.01132 -0.64964,2.12808 -0.31715,1.11677 -0.83899,2.60505 -1.15966,3.30729 -0.32066,0.70225 -0.629,1.3695 -0.6852,1.48277 -0.0562,0.11328 0.56948,-0.0911 1.3904,-0.45412 z m -4.72674,0.38045 c 0.0785,0 0.54109,-0.8632 1.02801,-1.91823 0.48691,-1.05502 1.08115,-2.67554 1.32053,-3.60114 0.23937,-0.9256 0.37886,-1.73928 0.30996,-1.80818 -0.0689,-0.0689 -0.60387,-0.18946 -1.18881,-0.26792 -0.58495,-0.0785 -1.83502,-0.06 -2.77794,0.0409 l -1.7144,0.1836 0.49007,1.76723 c 0.269539,0.97198 0.71026,2.24349 0.97937,2.82557 0.26911,0.58209 0.69657,1.44529 0.9499,1.91823 0.25332,0.47295 0.52481,0.8599 0.60331,0.8599 z m -11.64076,-7.67291 c 0.0693,0 0.41229,-0.18759 0.76221,-0.41687 0.34993,-0.22928 1.44707,-0.69991 2.43809,-1.04583 l 1.80186,-0.62897 0.0757,-2.36562 0.0757,-2.36562 -1.13403,-0.39795 c -0.623719,-0.21888 -1.808241,-0.70167 -2.63226,-1.07289 l -1.49822,-0.67495 -0.2796,1.2432 c -0.153783,0.68377 -0.35084,1.77899 -0.4379,2.43383 -0.0871,0.65484 -0.0256,2.01462 0.13647,3.02171 0.16212,1.0071 0.35579,1.92984 0.43038,2.05053 0.0746,0.12068 0.19231,0.21943 0.2616,0.21943 z m 23.44665,-0.0117 c -0.1037,0 0.32675,-0.49432 0.49603,-1.11279 0.16929,-0.61846 0.32022,-2.07698 0.33541,-3.24114 0.0152,-1.16417 -0.13421,-2.68222 -0.33198,-3.37344 -0.19778,-0.69122 -0.46714,-1.25677 -0.59859,-1.25677 -0.13144,0 -0.80572,0.28718 -1.49839,0.63819 -0.69267,0.351 -1.85466,0.83288 -2.58221,1.07085 l -1.32281,0.43267 0.0524,2.28069 0.0524,2.28069 1.54642,0.56798 c 0.85053,0.31239 2.02267,0.82299 2.60475,1.13468 0.58209,0.31168 1.35031,0.57839 1.24658,0.57839 z m -11.96283,-2.76643 h 3.4392 l 5.2e-4,-1.78594 5.3e-4,-1.78594 h -3.43958 -3.43958 l -1.2e-4,1.78594 -1.2e-4,1.78594 h 3.43919 z m 0.13293,-6.48229 c 2.04763,0 2.77737,-0.087 2.77526,-0.33073 -0.002,-0.1819 -0.18134,-0.91908 -0.39947,-1.63818 -0.21814,-0.71909 -0.77026,-2.11808 -1.22693,-3.10885 -0.45668,-0.99078 -0.92366,-1.80141 -1.03772,-1.80141 -0.11407,0 -0.43249,0.32742 -0.7076,0.7276 -0.27511,0.40019 -0.70434,1.17159 -0.95384,1.71423 -0.24949,0.54265 -0.62782,1.48035 -0.84073,2.08379 -0.2129,0.60344 -0.3871,1.37985 -0.3871,1.72535 0,0.62132 0.0304,0.6282 2.77813,0.6282 z m -5.92296,-0.74896 c 0.0893,-0.0974 0.30647,-0.77056 0.48246,-1.49592 0.176,-0.72537 0.72705,-2.14511 1.22456,-3.15499 0.49752,-1.00988 0.87203,-1.8687 0.83225,-1.90848 -0.0398,-0.0398 -0.90207,0.33071 -1.9162,0.82331 -1.01413,0.49259 -2.46894,1.47583 -3.23293,2.18496 -0.76398,0.70914 -1.38618,1.40121 -1.38267,1.53793 0.004,0.13673 0.86672,0.68548 1.91823,1.21944 1.05151,0.53395 1.98495,0.89114 2.0743,0.79375 z m 12.04639,-0.0448 c 0.20464,0 1.20253,-0.41822 2.21754,-0.92937 1.01502,-0.51115 1.84548,-1.0359 1.84548,-1.16611 0,-0.1302 -0.61885,-0.79314 -1.37524,-1.4732 -0.75638,-0.68005 -1.84613,-1.47669 -2.42166,-1.7703 -0.57554,-0.29362 -1.50449,-0.69546 -2.06435,-0.89299 -0.55985,-0.19753 -1.01791,-0.31149 -1.01791,-0.25324 0,0.0582 0.42125,1.03027 0.93611,2.16006 0.51487,1.1298 1.06478,2.56514 1.22204,3.18966 0.16713,0.66374 0.4405,1.13549 0.65799,1.13549 z m 51.856021,20.24287 c -10.9393,0.0443 -13.16587,-0.01 -14.25313,-0.348 -0.7087,-0.22031 -1.72956,-0.69242 -2.26858,-1.04913 -0.53902,-0.3567 -1.22065,-0.97401 -1.51474,-1.37179 -0.29409,-0.39778 -0.73564,-1.11182 -0.98123,-1.58675 -0.2456,-0.47494 -0.55121,-1.42379 -0.67914,-2.10856 -0.13363,-0.71527 -0.13374,-1.85242 -2.6e-4,-2.67249 0.12777,-0.7851 0.47644,-1.93174 0.7748,-2.54808 0.29836,-0.61633 0.987,-1.56687 1.5303,-2.1123 0.5433,-0.54543 1.43036,-1.21857 1.97126,-1.49586 0.5409,-0.27728 1.57933,-0.63195 2.30761,-0.78814 0.96228,-0.20637 1.72205,-0.20137 2.7801,0.0183 0.80076,0.16624 1.97166,0.57647 2.60199,0.91162 l 1.14607,0.60937 1.14419,-0.612 c 0.62929,-0.33659 1.77082,-0.69028 2.5367,-0.78597 0.94991,-0.11868 1.85029,-0.0409 2.83281,0.24472 0.90148,0.26207 1.89628,0.82008 2.65915,1.49159 0.68037,0.59888 1.53635,1.7218 1.93749,2.54172 0.51072,1.04387 0.72456,1.90449 0.7391,2.97454 0.0152,1.11613 -0.18719,2.00665 -0.69407,3.03084 1.35803,0.39881 1.36222,0.41828 2.58047,0.94002 0.35878,-0.47038 1.08945,-1.70623 1.31059,-2.33299 0.22113,-0.62677 0.40206,-1.70738 0.40206,-2.40136 0,-0.69398 -0.23558,-2.01846 -0.5235,-2.9433 -0.32024,-1.02864 -0.97475,-2.25343 -1.68572,-3.15452 -0.63921,-0.81016 -1.82282,-1.91149 -2.63022,-2.44742 -0.80741,-0.53593 -2.22153,-1.16745 -3.14248,-1.40339 -1.13616,-0.29107 -2.20843,-0.37911 -3.33551,-0.27386 -0.91358,0.0853 -2.19498,0.39129 -2.84757,0.67996 -1.04786,0.46352 -1.34076,0.48821 -2.50659,0.21127 -0.97972,-0.23272 -1.32007,-0.43658 -1.32007,-0.79066 0,-0.2624 0.2259,-0.91884 0.50201,-1.45874 0.27611,-0.53991 0.97714,-1.51743 1.55785,-2.17227 0.5807,-0.65485 1.71304,-1.58546 2.5163,-2.06804 0.80326,-0.48257 2.09653,-1.04671 2.87393,-1.25363 0.77739,-0.20692 2.12782,-0.37622 3.00095,-0.37622 0.87312,0 2.18281,0.15902 2.91041,0.35338 0.72761,0.19436 1.84585,0.62072 2.48498,0.94745 0.63913,0.32674 1.74172,1.13627 2.45018,1.79896 0.70847,0.66269 1.63294,1.81251 2.05436,2.55514 0.42143,0.74264 0.95596,1.99694 1.18784,2.78733 0.23188,0.7904 0.4216,1.74875 0.4216,2.12966 0,0.54982 0.1887,0.76081 0.91544,1.0236 0.50348,0.18207 1.46419,0.86436 2.13489,1.51621 0.67071,0.65185 1.52832,1.85982 1.90582,2.68437 0.524,1.14458 0.69024,1.94251 0.70281,3.37341 0.0134,1.53154 -0.11731,2.14765 -0.71519,3.36966 -0.40241,0.82249 -1.1469,1.86004 -1.65444,2.30566 -0.50753,0.44562 -1.4255,1.07884 -2.03991,1.40716 -1.11155,0.59396 -14.08171,-12.25051 -14.08171,0.6495 z"
       id="path847"
       sodipodi:nodetypes="sssssssssssssssssssssssssssssssssssssscsssssssssssssssscsscsssssssssscssscccsssccccssscccssssssssssssccccccccsscccssssssssccssscccsssccsssscssscssscssssscsscssscssssssssssscssscsssssssscsssssssssssccssssssssscsssssssssssssssccsssssssssccsssscsssccssscccsssccssccccsscssssssssssssscccsssccccccccccsscssssssssssscsscsssssssssssccsssssssssssscsssssccssssssssssssssssssssssssscsssc" />
  </g>
</svg>
