<?xml version="1.0" encoding="UTF-8" standalone="no"?>
<svg
   xmlns:dc="http://purl.org/dc/elements/1.1/"
   xmlns:cc="http://creativecommons.org/ns#"
   xmlns:rdf="http://www.w3.org/1999/02/22-rdf-syntax-ns#"
   xmlns:svg="http://www.w3.org/2000/svg"
   xmlns="http://www.w3.org/2000/svg"
   xmlns:sodipodi="http://sodipodi.sourceforge.net/DTD/sodipodi-0.dtd"
   xmlns:inkscape="http://www.inkscape.org/namespaces/inkscape"
   width="210mm"
   height="297mm"
   viewBox="0 0 210 297"
   version="1.1"
   id="svg12103"
   inkscape:version="1.0.1 (3bc2e813f5, 2020-09-07)"
   sodipodi:docname="enzyme.svg">
  <defs
     id="defs12097" />
  <sodipodi:namedview
     id="base"
     pagecolor="#ffffff"
     bordercolor="#666666"
     borderopacity="1.0"
     inkscape:pageopacity="0.0"
     inkscape:pageshadow="2"
     inkscape:zoom="0.98994949"
     inkscape:cx="364.91646"
     inkscape:cy="1183.0643"
     inkscape:document-units="mm"
     inkscape:current-layer="layer1"
     inkscape:document-rotation="0"
     showgrid="false"
     inkscape:window-width="1516"
     inkscape:window-height="1050"
     inkscape:window-x="38"
     inkscape:window-y="0"
     inkscape:window-maximized="0" />
  <metadata
     id="metadata12100">
    <rdf:RDF>
      <cc:Work
         rdf:about="">
        <dc:format>image/svg+xml</dc:format>
        <dc:type
           rdf:resource="http://purl.org/dc/dcmitype/StillImage" />
        <dc:title></dc:title>
      </cc:Work>
    </rdf:RDF>
  </metadata>
  <g
     inkscape:label="Capa 1"
     inkscape:groupmode="layer"
     id="layer1">
    <g
       id="g12680">
      <path
         style="fill:#f29a28;stroke-width:1"
         d="m 84.1564,310.62791 c -6.997753,-0.97851 -11.562929,-6.11124 -9.554678,-10.74256 0.617384,-1.42378 0.597961,-1.44645 -1.359384,-1.58694 -1.699483,-0.122 -2.509349,-0.42678 -4.626941,-1.74131 -0.637342,-0.39563 -0.796229,-0.40428 -1.322917,-0.072 -6.986466,4.40714 -12.372798,5.17496 -15.103015,2.15294 -1.620639,-1.79388 -1.719953,-4.07578 -0.17994,-4.13446 0.847717,-0.0323 6.13029,-2.45626 6.435937,-2.9532 0.06979,-0.11345 -0.508477,-0.22151 -1.285029,-0.24011 -3.622995,-0.0867 -4.973047,-2.37744 -4.933764,-8.37134 0.02215,-3.37806 0.02215,-3.37806 -1.835989,-5.68854 -1.72329,-2.14281 -5.512673,-8.02775 -6.822916,-10.59603 -0.736196,-1.44307 -1.044941,-1.39949 -2.622111,0.37007 -2.069314,2.32172 -3.742378,1.2686 -2.183109,-1.37417 0.425212,-0.72067 0.546957,-1.38017 0.546878,-2.96246 -1.01e-4,-2.03538 -1.01e-4,-2.03538 2.050521,-3.98073 4.507661,-4.27625 8.003749,-4.13721 8.003749,0.31827 0,3.33025 5.485974,11.59348 6.306015,9.49843 0.648523,-1.65685 0.487614,-2.31439 -0.793477,-3.24239 -4.897091,-3.54742 -3.475191,-11.89516 2.520542,-14.79764 6.17423,-2.98889 9.027634,1.52889 7.937365,12.56718 -0.158503,1.60478 -0.158503,1.60478 1.705219,2.71198 2.247331,1.33511 2.198457,1.33194 3.062724,0.19883 0.891897,-1.16932 0.886248,-1.21711 -0.361035,-3.05382 -2.792581,-4.11226 -3.383968,-9.68975 -1.375343,-12.97112 2.385951,-3.89779 11.190782,-5.80109 14.793624,-3.19788 3.434651,2.48168 3.694501,2.61281 4.906893,2.47615 2.90099,-0.32697 5.537267,3.39286 4.674717,6.59612 -0.401471,1.49095 -0.311655,1.47867 2.164434,-0.29612 5.60663,-4.01871 9.54317,-4.30599 12.66058,-0.92401 2.16386,2.34752 1.48784,3.42564 -2.81631,4.49144 -2.72958,0.6759 -4.73512,1.78583 -6.0497,3.34811 -1.269656,1.50892 -0.642297,1.84227 1.170802,0.62214 5.499018,-3.70054 9.999868,-0.80192 10.226668,6.58615 0.0891,2.90107 0.0891,2.90107 2.81674,5.24901 4.14411,3.56719 5.72163,5.17266 7.00555,7.12962 1.45959,2.22472 2.03612,2.05769 3.6261,-1.0505 1.21442,-2.374 3.09815,-1.25809 2.30465,1.36525 -0.58651,1.939 -0.61349,2.49312 -0.18294,3.75669 0.70753,2.0765 0.5962,2.46856 -1.45447,5.12193 -3.54852,4.59148 -6.79494,4.66056 -7.91749,0.16846 -0.69925,-2.7982 -6.53526,-10.13431 -7.38567,-9.28409 -0.93398,0.93376 -0.6207,3.45358 0.47,3.78036 5.01907,1.50374 5.29991,9.90457 0.49186,14.71264 -4.83729,4.83729 -9.67881,0.51845 -10.156604,-9.06008 -0.15793,-3.16613 -0.18124,-3.26514 -0.849104,-3.60688 -4.563369,-2.33505 -6.439053,-0.63254 -3.084129,2.79937 8.896297,9.10048 1.512464,21.74441 -11.625503,19.90728 z m 5.201708,-7.40923 c 2.239259,-1.12702 2.829481,-3.14786 1.359178,-4.65357 -1.312209,-1.34385 -1.330671,-1.33522 -2.922865,1.36496 -2.117678,3.59132 -1.522931,4.84213 1.563687,3.28861 z M 85.57073,284.21405 c 0.05847,-0.30165 -0.03687,-0.42886 -0.264583,-0.35303 -0.195797,0.0652 -0.397134,0.33076 -0.447411,0.5901 -0.05847,0.30165 0.03688,0.42886 0.264584,0.35303 0.195797,-0.0652 0.397134,-0.33075 0.44741,-0.5901 z m -15.456545,-2.5273 c 0.172577,-1.19062 0.172577,-1.19062 -0.631667,-0.27458 -0.933026,1.06275 -0.951034,1.14832 -0.364918,1.73445 0.545462,0.54546 0.74917,0.24704 0.996585,-1.45987 z m 30.096045,-2.1382 c 0.52772,-3.45006 0.15954,-3.7996 -1.237163,-1.17446 -0.79375,1.49185 -0.79375,1.49185 -0.158385,2.01409 0.872339,0.71699 1.186338,0.52808 1.395548,-0.83963 z m -36.432319,-4.67199 c 1.370074,-2.04232 1.064501,-4.76853 -0.346488,-3.09128 -0.381304,0.45326 -1.41138,4.11443 -1.264957,4.49601 0.226666,0.59068 0.337842,0.49376 1.611445,-1.40473 z M 78.85741,255.54968 c 2.912697,-3.00424 2.951337,-3.14733 1.108294,-4.10377 -3.093974,-1.60562 -6.409139,2.61392 -4.76908,6.07007 0.571484,1.20433 0.603414,1.18719 3.660786,-1.9663 z"
         id="path12688"
         sodipodi:nodetypes="sssscssscsssssssssssssssssssssssssssssssssssssssssssssssssssssssssssssssss" />
      <path
         style="fill:#348fc9;stroke-width:1"
         d="m 84.1564,310.62791 c -6.997753,-0.97851 -11.562929,-6.11124 -9.554678,-10.74256 0.617384,-1.42378 0.597961,-1.44645 -1.359384,-1.58694 -1.699483,-0.122 -2.509349,-0.42678 -4.626941,-1.74131 -0.637342,-0.39563 -0.796229,-0.40428 -1.322917,-0.072 -6.986466,4.40714 -12.372798,5.17496 -15.103015,2.15294 -1.620639,-1.79388 -1.719953,-4.07578 -0.17994,-4.13446 0.847717,-0.0323 6.13029,-2.45626 6.435937,-2.9532 0.06979,-0.11345 -0.508477,-0.22151 -1.285029,-0.24011 -3.622995,-0.0867 -4.973047,-2.37744 -4.933764,-8.37134 0.02215,-3.37806 0.02215,-3.37806 -1.835989,-5.68854 -1.72329,-2.14281 -5.512673,-8.02775 -6.822916,-10.59603 -0.736196,-1.44307 -1.044941,-1.39949 -2.622111,0.37007 -2.069314,2.32172 -3.742378,1.2686 -2.183109,-1.37417 0.425212,-0.72067 0.546957,-1.38017 0.546878,-2.96246 -1.01e-4,-2.03538 -1.01e-4,-2.03538 2.050521,-3.98073 4.507661,-4.27625 8.003749,-4.13721 8.003749,0.31827 0,3.33025 5.485974,11.59348 6.306015,9.49843 0.648523,-1.65685 0.487614,-2.31439 -0.793477,-3.24239 -4.897091,-3.54742 -3.475191,-11.89516 2.520542,-14.79764 6.17423,-2.98889 9.027634,1.52889 7.937365,12.56718 -0.158503,1.60478 -0.158503,1.60478 1.705219,2.71198 2.247331,1.33511 2.198457,1.33194 3.062724,0.19883 0.891897,-1.16932 0.886248,-1.21711 -0.361035,-3.05382 -2.792581,-4.11226 -3.383968,-9.68975 -1.375343,-12.97112 2.385951,-3.89779 11.190782,-5.80109 14.793624,-3.19788 3.434651,2.48168 3.694501,2.61281 4.906893,2.47615 2.90099,-0.32697 5.537267,3.39286 4.674717,6.59612 -0.401471,1.49095 -0.311655,1.47867 2.164434,-0.29612 5.60663,-4.01871 9.54317,-4.30599 12.66058,-0.92401 2.16386,2.34752 1.48784,3.42564 -2.81631,4.49144 -2.72958,0.6759 -4.73512,1.78583 -6.0497,3.34811 -1.269656,1.50892 -0.642297,1.84227 1.170802,0.62214 5.499018,-3.70054 9.999868,-0.80192 10.226668,6.58615 0.0891,2.90107 0.0891,2.90107 2.81674,5.24901 4.14411,3.56719 5.72163,5.17266 7.00555,7.12962 1.45959,2.22472 2.03612,2.05769 3.6261,-1.0505 1.21442,-2.374 3.09815,-1.25809 2.30465,1.36525 -0.58651,1.939 -0.61349,2.49312 -0.18294,3.75669 0.70753,2.0765 0.5962,2.46856 -1.45447,5.12193 -3.54852,4.59148 -6.79494,4.66056 -7.91749,0.16846 -0.69925,-2.7982 -6.53526,-10.13431 -7.38567,-9.28409 -0.93398,0.93376 -0.6207,3.45358 0.47,3.78036 5.01907,1.50374 5.29991,9.90457 0.49186,14.71264 -4.83729,4.83729 -9.67881,0.51845 -10.156604,-9.06008 -0.15793,-3.16613 -0.18124,-3.26514 -0.849104,-3.60688 -4.563369,-2.33505 -6.439053,-0.63254 -3.084129,2.79937 8.896297,9.10048 1.512464,21.74441 -11.625503,19.90728 z m 5.201708,-7.40923 c 2.239259,-1.12702 2.829481,-3.14786 1.359178,-4.65357 -1.312209,-1.34385 -1.330671,-1.33522 -2.922865,1.36496 -2.117678,3.59132 -1.522931,4.84213 1.563687,3.28861 z M 85.57073,284.21405 c 0.05847,-0.30165 -0.03687,-0.42886 -0.264583,-0.35303 -0.195797,0.0652 -0.397134,0.33076 -0.447411,0.5901 -0.05847,0.30165 0.03688,0.42886 0.264584,0.35303 0.195797,-0.0652 0.397134,-0.33075 0.44741,-0.5901 z m -15.456545,-2.5273 c 0.172577,-1.19062 0.172577,-1.19062 -0.631667,-0.27458 -0.933026,1.06275 -0.951034,1.14832 -0.364918,1.73445 0.545462,0.54546 0.74917,0.24704 0.996585,-1.45987 z m 30.096045,-2.1382 c 0.52772,-3.45006 0.15954,-3.7996 -1.237163,-1.17446 -0.79375,1.49185 -0.79375,1.49185 -0.158385,2.01409 0.872339,0.71699 1.186338,0.52808 1.395548,-0.83963 z m -36.432319,-4.67199 c 1.370074,-2.04232 1.064501,-4.76853 -0.346488,-3.09128 -0.381304,0.45326 -1.41138,4.11443 -1.264957,4.49601 0.226666,0.59068 0.337842,0.49376 1.611445,-1.40473 z M 78.85741,255.54968 c 2.912697,-3.00424 2.951337,-3.14733 1.108294,-4.10377 -3.093974,-1.60562 -6.409139,2.61392 -4.76908,6.07007 0.571484,1.20433 0.603414,1.18719 3.660786,-1.9663 z"
         id="path12686"
         sodipodi:nodetypes="sssscssscsssssssssssssssssssssssssssssssssssssssssssssssssssssssssssssssss" />
      <path
         style="fill:#6e6e6e;stroke-width:1"
         d="m 84.1564,310.62791 c -7.25914,-1.01505 -11.396514,-5.86642 -9.43102,-11.05855 0.470792,-1.24365 0.521843,-1.60885 0.249089,-1.78186 -0.242123,-0.15359 -0.178358,-0.21884 0.216694,-0.2217 4.05942,-0.0294 8.832945,-6.18704 8.832945,-11.39415 0,-1.72185 0.08297,-1.75075 -4.427627,1.54228 -2.14871,1.56872 -4.918779,3.55339 -6.155706,4.4104 -3.41594,2.36672 -4.548669,3.33602 -4.387945,3.75488 0.115202,0.3002 0.03665,0.31512 -0.407559,0.0774 -0.302644,-0.16195 -0.805979,-0.23313 -1.118524,-0.15814 -0.712496,0.17097 -0.993042,0.38436 6.575486,-5.0015 21.670241,-15.42076 23.578574,-19.45293 11.896577,-25.13658 -4.282884,-2.08375 -3.64894,-2.16025 -6.04506,0.7294 -2.722036,3.28266 -2.551406,3.68089 2.813807,6.56709 1.44358,0.77658 1.991924,1.20505 1.852083,1.44719 -0.508185,0.88001 -8.788251,7.05525 -14.089282,10.50777 -2.110052,1.37425 -4.550833,2.96617 -5.423958,3.53759 -2.012701,1.31725 -2.537756,1.54583 -2.334575,1.01634 0.08359,-0.21786 -0.05848,-0.54996 -0.315711,-0.73805 -0.432028,-0.31592 -0.399243,-0.39431 0.429834,-1.02791 0.493644,-0.37724 1.842587,-1.77152 2.997652,-3.0984 2.042975,-2.34688 2.109044,-2.39596 2.428314,-1.80367 0.279474,0.51845 0.262292,0.62847 -0.115742,0.74113 -0.431109,0.12845 -4.54498,4.30919 -4.54498,4.61883 0,0.23003 1.756907,-0.73536 3.704166,-2.03536 1.239695,-0.82762 1.714728,-1.30411 1.701655,-1.70678 -0.01069,-0.32924 0.111617,-0.50887 0.297812,-0.43741 0.208005,0.0798 0.431882,-0.49429 0.65528,-1.68039 0.186632,-0.99087 0.510898,-2.21832 0.720591,-2.72764 0.381261,-0.92605 0.381261,-0.92605 -0.462172,-0.1323 -1.486707,1.39915 7.057117,-11.07836 9.658226,-14.10496 3.732694,-4.34332 5.122574,-5.37763 9.977281,-7.42476 0.803585,-0.33886 1.440783,-0.84037 1.784948,-1.40489 0.294378,-0.48284 0.535681,-0.73819 0.536223,-0.56745 5.29e-4,0.17074 -0.311481,0.68178 -0.693391,1.13564 -0.971317,1.15436 -0.574005,1.31969 0.762376,0.31727 7.885993,-5.91532 11.838603,-6.61861 15.343983,-2.73013 2.07032,2.29655 1.36977,3.36949 -2.88853,4.42394 -2.72958,0.6759 -4.73512,1.78583 -6.0497,3.34811 -1.269656,1.50892 -0.642297,1.84227 1.170802,0.62214 5.499018,-3.70054 9.999868,-0.80192 10.226668,6.58615 0.0891,2.90107 0.0891,2.90107 2.81674,5.24901 4.14411,3.56719 5.72163,5.17266 7.00555,7.12962 1.45959,2.22472 2.03612,2.05769 3.6261,-1.0505 1.21442,-2.374 3.09815,-1.25809 2.30465,1.36525 -0.58651,1.939 -0.61349,2.49312 -0.18294,3.75669 0.70753,2.0765 0.5962,2.46856 -1.45447,5.12193 -3.54852,4.59148 -6.79494,4.66056 -7.91749,0.16846 -0.69925,-2.7982 -6.53526,-10.13431 -7.38567,-9.28409 -0.93398,0.93376 -0.6207,3.45358 0.47,3.78036 5.01907,1.50374 5.29991,9.90457 0.49186,14.71264 -4.83729,4.83729 -9.67881,0.51845 -10.156604,-9.06008 -0.15793,-3.16613 -0.18124,-3.26514 -0.849104,-3.60688 -4.563369,-2.33505 -6.439053,-0.63254 -3.084129,2.79937 8.896297,9.10048 1.512464,21.74441 -11.625503,19.90728 z m 5.201708,-7.40923 c 2.239259,-1.12702 2.829481,-3.14786 1.359178,-4.65357 -1.312209,-1.34385 -1.330671,-1.33522 -2.922865,1.36496 -2.117678,3.59132 -1.522931,4.84213 1.563687,3.28861 z m -4.230354,-18.26565 c 0.546106,-0.49421 0.636659,-1.28852 0.179134,-1.5713 -0.394486,-0.24379 -1.018196,0.61275 -1.018196,1.39829 0,0.7247 0.186885,0.76322 0.839062,0.17301 z m 15.082476,-5.40448 c 0.52772,-3.45006 0.15954,-3.7996 -1.237163,-1.17446 -0.79375,1.49185 -0.79375,1.49185 -0.158385,2.01409 0.872339,0.71699 1.186338,0.52808 1.395548,-0.83963 z m -22.702013,-0.34166 c 5.129959,-3.66117 5.056389,-3.36158 1.366303,-5.56366 -3.134309,-1.87039 -2.960089,-1.89854 -4.73257,0.76489 -1.826884,2.74518 -1.827636,2.56146 0.01815,4.42669 1.802003,1.82099 1.383131,1.77445 3.34812,0.37208 z m -21.596088,20.56088 c 0.181901,-0.0734 0.479557,-0.0734 0.661459,0 0.181901,0.0734 0.03307,0.13346 -0.33073,0.13346 -0.363802,0 -0.51263,-0.0601 -0.330729,-0.13346 z m -1.43316,-0.26575 c 0.09701,-0.097 0.255764,-0.097 0.352779,0 0.09701,0.097 0.01765,0.1764 -0.17639,0.1764 -0.194027,0 -0.273402,-0.0794 -0.176389,-0.1764 z m -1.012362,-0.34972 c -0.0927,-0.15 0.01352,-0.19437 0.248967,-0.10401 0.45837,0.17589 0.542235,0.36555 0.16165,0.36555 -0.136932,0 -0.321712,-0.11769 -0.410617,-0.26154 z m 6.745001,0.12924 c 0,-0.0728 0.05953,-0.13229 0.132292,-0.13229 0.07276,0 0.132292,0.0595 0.132292,0.13229 0,0.0728 -0.05953,0.1323 -0.132292,0.1323 -0.07276,0 -0.132292,-0.0595 -0.132292,-0.1323 z m 0.79375,-0.26458 c 0,-0.0728 0.05953,-0.13229 0.132292,-0.13229 0.07276,0 0.132292,0.0595 0.132292,0.13229 0,0.0728 -0.05953,0.13229 -0.132292,0.13229 -0.07276,0 -0.132292,-0.0595 -0.132292,-0.13229 z m -8.742098,-0.94128 c -0.316825,-0.44492 -0.531889,-0.85312 -0.477916,-0.9071 0.05397,-0.054 0.365709,0.31007 0.692753,0.80897 0.737394,1.12492 0.570558,1.20112 -0.214837,0.0981 z m 9.800432,0.41211 c 0.363802,-0.20796 0.780521,-0.37811 0.926041,-0.37811 0.145521,0 -0.03307,0.17015 -0.396875,0.37811 -0.363802,0.20797 -0.78052,0.37812 -0.926041,0.37812 -0.145521,0 0.03307,-0.17015 0.396875,-0.37812 z m 1.322916,-0.52916 c 0,-0.0728 0.05953,-0.13229 0.132292,-0.13229 0.07276,0 0.132292,0.0595 0.132292,0.13229 0,0.0728 -0.05953,0.13229 -0.132292,0.13229 -0.07276,0 -0.132292,-0.0595 -0.132292,-0.13229 z m 0.529167,-0.26459 c 0,-0.0728 0.05953,-0.13229 0.132292,-0.13229 0.07276,0 0.132291,0.0595 0.132291,0.13229 0,0.0728 -0.05953,0.1323 -0.132291,0.1323 -0.07276,0 -0.132292,-0.0595 -0.132292,-0.1323 z m 8.466667,0 c 0,-0.0728 0.05953,-0.13229 0.132291,-0.13229 0.07276,0 0.132292,0.0595 0.132292,0.13229 0,0.0728 -0.05953,0.1323 -0.132292,0.1323 -0.07276,0 -0.132291,-0.0595 -0.132291,-0.1323 z m -1.982502,-0.65841 c -0.09269,-0.14999 0.01352,-0.19436 0.248968,-0.10401 0.458369,0.1759 0.542234,0.36555 0.161649,0.36555 -0.136932,0 -0.321712,-0.11769 -0.410617,-0.26154 z m -18.919582,-0.53221 c 0,-0.19402 0.07937,-0.27339 0.17639,-0.1764 0.09701,0.097 0.09701,0.25577 0,0.3528 -0.09701,0.097 -0.17639,0.0176 -0.17639,-0.1764 z m 14.2875,0.13229 c 0,-0.0728 0.05953,-0.13229 0.132292,-0.13229 0.07276,0 0.132292,0.0595 0.132292,0.13229 0,0.0728 -0.05953,0.13229 -0.132292,0.13229 -0.07276,0 -0.132292,-0.0595 -0.132292,-0.13229 z m 3.811194,-0.17317 c -0.116967,-0.18925 -0.07258,-0.23365 0.116676,-0.11668 0.304998,0.18849 0.409487,0.42214 0.188788,0.42214 -0.06417,0 -0.201631,-0.13745 -0.305464,-0.30546 z m -3.017444,-0.356 c 0,-0.0728 0.05953,-0.13229 0.132292,-0.13229 0.07276,0 0.132292,0.0595 0.132292,0.13229 0,0.0728 -0.05953,0.1323 -0.132292,0.1323 -0.07276,0 -0.132292,-0.0595 -0.132292,-0.1323 z m -15.176637,-0.58046 c -0.297969,-0.29795 -0.181475,-0.61016 0.227679,-0.61016 0.218281,0 0.396875,0.11202 0.396875,0.24897 0,0.33364 -0.413171,0.57259 -0.624554,0.36119 z m 1.418304,-0.47787 c 0,-0.0728 0.05953,-0.13229 0.132292,-0.13229 0.07276,0 0.132291,0.0595 0.132291,0.13229 0,0.0728 -0.05953,0.13229 -0.132291,0.13229 -0.07276,0 -0.132292,-0.0595 -0.132292,-0.13229 z m 1.322917,-0.52917 c 0,-0.0728 0.05953,-0.13229 0.132291,-0.13229 0.07276,0 0.132292,0.0595 0.132292,0.13229 0,0.0728 -0.05953,0.1323 -0.132292,0.1323 -0.07276,0 -0.132291,-0.0595 -0.132291,-0.1323 z m 0.529166,-0.26458 c 0,-0.0728 0.05953,-0.13229 0.132292,-0.13229 0.07276,0 0.132292,0.0595 0.132292,0.13229 0,0.0728 -0.05953,0.13229 -0.132292,0.13229 -0.07276,0 -0.132292,-0.0595 -0.132292,-0.13229 z m 0.529167,-0.26458 c 0,-0.0728 0.05953,-0.13229 0.132292,-0.13229 0.07276,0 0.132291,0.0595 0.132291,0.13229 0,0.0728 -0.05953,0.13229 -0.132291,0.13229 -0.07276,0 -0.132292,-0.0595 -0.132292,-0.13229 z m 0.529167,-0.26459 c 0,-0.0728 0.05953,-0.13229 0.132291,-0.13229 0.07276,0 0.132292,0.0595 0.132292,0.13229 0,0.0728 -0.05953,0.1323 -0.132292,0.1323 -0.07276,0 -0.132291,-0.0595 -0.132291,-0.1323 z m 0.529166,-0.26458 c 0,-0.0728 0.05953,-0.13229 0.132292,-0.13229 0.07276,0 0.132292,0.0595 0.132292,0.13229 0,0.0728 -0.05953,0.13229 -0.132292,0.13229 -0.07276,0 -0.132292,-0.0595 -0.132292,-0.13229 z m 0.529167,-0.26458 c 0,-0.0728 0.05953,-0.13229 0.132292,-0.13229 0.07276,0 0.132291,0.0595 0.132291,0.13229 0,0.0728 -0.05953,0.13229 -0.132291,0.13229 -0.07276,0 -0.132292,-0.0595 -0.132292,-0.13229 z m 1.344964,-0.7601 c 0.27227,-0.24363 1.830036,-0.95948 1.830036,-0.841 0,0.1524 -1.466802,0.93964 -1.750751,0.93964 -0.10424,0 -0.139917,-0.0444 -0.07929,-0.0986 z m 2.094619,-1.09199 c 0,-0.0728 0.05953,-0.13229 0.132292,-0.13229 0.07276,0 0.132292,0.0595 0.132292,0.13229 0,0.0728 -0.05953,0.1323 -0.132292,0.1323 -0.07276,0 -0.132292,-0.0595 -0.132292,-0.1323 z m 0.926042,-0.66145 c 0.08994,-0.14552 0.223052,-0.26459 0.295812,-0.26459 0.07276,0 0.05871,0.11907 -0.03123,0.26459 -0.08994,0.14552 -0.223051,0.26458 -0.295812,0.26458 -0.07276,0 -0.05871,-0.11906 0.03123,-0.26458 z m -5.335765,-0.1764 c 0.09701,-0.097 0.255765,-0.097 0.35278,0 0.09701,0.097 0.01765,0.1764 -0.17639,0.1764 -0.194027,0 -0.273402,-0.0794 -0.17639,-0.1764 z m 2.38125,0 c 0.09701,-0.097 0.255765,-0.097 0.35278,0 0.09701,0.097 0.01765,0.1764 -0.17639,0.1764 -0.194027,0 -0.273402,-0.0794 -0.17639,-0.1764 z m -2.99861,-0.22048 c 0,-0.0728 0.05953,-0.13229 0.132292,-0.13229 0.07276,0 0.132291,0.0595 0.132291,0.13229 0,0.0728 -0.05953,0.13229 -0.132291,0.13229 -0.07276,0 -0.132292,-0.0595 -0.132292,-0.13229 z m 3.704167,0 c 0,-0.0728 0.05953,-0.13229 0.132291,-0.13229 0.07276,0 0.132292,0.0595 0.132292,0.13229 0,0.0728 -0.05953,0.13229 -0.132292,0.13229 -0.07276,0 -0.132291,-0.0595 -0.132291,-0.13229 z m 2.910416,0 c 0,-0.0728 0.05953,-0.13229 0.132292,-0.13229 0.07276,0 0.132292,0.0595 0.132292,0.13229 0,0.0728 -0.05953,0.13229 -0.132292,0.13229 -0.07276,0 -0.132292,-0.0595 -0.132292,-0.13229 z m -7.692943,-0.85989 c -0.641432,-0.72761 -0.641432,-0.72761 0.08617,-0.0862 0.680056,0.59952 0.84894,0.81378 0.641433,0.81378 -0.04739,0 -0.374815,-0.32742 -0.727605,-0.7276 z m 5.311693,0.62362 c 0,-0.0572 0.184777,-0.17489 0.410618,-0.26157 0.235458,-0.0904 0.341662,-0.046 0.248967,0.10401 -0.155379,0.25141 -0.659585,0.37184 -0.659585,0.15756 z m 1.058334,-0.55748 c 0,-0.0728 0.05953,-0.13229 0.132291,-0.13229 0.07276,0 0.132292,0.0595 0.132292,0.13229 0,0.0728 -0.05953,0.13229 -0.132292,0.13229 -0.07276,0 -0.132291,-0.0595 -0.132291,-0.13229 z m 0.529166,-0.26458 c 0,-0.0728 0.05953,-0.13229 0.132292,-0.13229 0.07276,0 0.132292,0.0595 0.132292,0.13229 0,0.0728 -0.05953,0.13229 -0.132292,0.13229 -0.07276,0 -0.132292,-0.0595 -0.132292,-0.13229 z m -7.672916,-0.79375 c 0,-0.0728 0.05953,-0.13229 0.132291,-0.13229 0.07276,0 0.132292,0.0595 0.132292,0.13229 0,0.0728 -0.05953,0.13229 -0.132292,0.13229 -0.07276,0 -0.132291,-0.0595 -0.132291,-0.13229 z m -0.264584,-0.79375 c 0,-0.0728 0.05953,-0.13229 0.132292,-0.13229 0.07276,0 0.132292,0.0595 0.132292,0.13229 0,0.0728 -0.05953,0.13229 -0.132292,0.13229 -0.07276,0 -0.132292,-0.0595 -0.132292,-0.13229 z m -0.264583,-1.85209 c 0,-0.0728 0.05953,-0.13229 0.132292,-0.13229 0.07276,0 0.132291,0.0595 0.132291,0.13229 0,0.0728 -0.05953,0.1323 -0.132291,0.1323 -0.07276,0 -0.132292,-0.0595 -0.132292,-0.1323 z m 0,-5.02708 c 0,-0.0728 0.05953,-0.13229 0.132292,-0.13229 0.07276,0 0.132291,0.0595 0.132291,0.13229 0,0.0728 -0.05953,0.13229 -0.132291,0.13229 -0.07276,0 -0.132292,-0.0595 -0.132292,-0.13229 z m -0.630883,-2.03221 c -0.628592,-0.8745 -0.664758,-0.99796 -0.20896,-0.71329 0.303157,0.18931 0.592354,0.28919 0.64266,0.22193 0.298111,-0.39851 2.329338,-7.77007 2.21974,-8.05566 -0.0819,-0.21344 0.122407,-0.39529 0.53213,-0.47361 0.520152,-0.0994 0.63849,-0.0333 0.543057,0.30348 -0.06711,0.23683 -0.672496,2.18967 -1.3453,4.33962 -0.672801,2.14998 -1.223277,4.19677 -1.223277,4.54845 0,1.01664 -0.34272,0.96613 -1.16005,-0.17092 z m 8.634529,0.38899 c -0.432956,-0.15796 -0.417653,-0.4863 0.103066,-2.21136 0.427516,-1.41629 0.437536,-1.42618 0.692023,-0.68395 0.217201,0.63352 0.376883,0.73575 1.005094,0.64355 0.746868,-0.10962 0.746868,-0.10962 0.259886,0.56975 -0.748355,1.04405 -1.693515,1.81573 -2.060069,1.68201 z m -10.542453,-2.76322 c -0.116967,-0.18926 -0.07258,-0.23366 0.116676,-0.11668 0.168005,0.10382 0.305464,0.2413 0.305464,0.30546 0,0.22071 -0.23364,0.1162 -0.42214,-0.18878 z m 13.12214,-0.0914 c 0,-0.0728 0.05953,-0.13229 0.132292,-0.13229 0.07276,0 0.132292,0.0595 0.132292,0.13229 0,0.0728 -0.05953,0.1323 -0.132292,0.1323 -0.07276,0 -0.132292,-0.0595 -0.132292,-0.1323 z M 49.594525,275.4029 c -0.329108,-0.41966 -0.319749,-0.429 0.0999,-0.0999 0.44073,0.34565 0.580887,0.56293 0.363125,0.56293 -0.05494,0 -0.263301,-0.20836 -0.463021,-0.46302 z m 14.585833,-0.19844 c 0,-0.0728 0.05953,-0.13229 0.132292,-0.13229 0.07276,0 0.132292,0.0595 0.132292,0.13229 0,0.0728 -0.05953,0.13229 -0.132292,0.13229 -0.07276,0 -0.132292,-0.0595 -0.132292,-0.13229 z m -2.645833,-0.26458 c 0,-0.0728 0.05953,-0.13229 0.132292,-0.13229 0.07276,0 0.132291,0.0595 0.132291,0.13229 0,0.0728 -0.05953,0.13229 -0.132291,0.13229 -0.07276,0 -0.132292,-0.0595 -0.132292,-0.13229 z m -12.626409,-0.46302 c -0.396658,-0.51287 -0.646176,-0.99219 -0.516511,-0.99219 0.06461,0 0.31251,0.29766 0.550881,0.66146 0.446045,0.68074 0.421203,0.91977 -0.03437,0.33073 z m 15.801409,-0.0661 c 0,-0.0728 0.05953,-0.13229 0.132292,-0.13229 0.07276,0 0.132291,0.0595 0.132291,0.13229 0,0.0728 -0.05953,0.13229 -0.132291,0.13229 -0.07276,0 -0.132292,-0.0595 -0.132292,-0.13229 z m -2.910417,-0.26458 c 0,-0.0728 0.05953,-0.13229 0.132292,-0.13229 0.07276,0 0.132292,0.0595 0.132292,0.13229 0,0.0728 -0.05953,0.13229 -0.132292,0.13229 -0.07276,0 -0.132292,-0.0595 -0.132292,-0.13229 z m 3.439584,-0.52917 c 0,-0.0728 0.05953,-0.13229 0.132291,-0.13229 0.07276,0 0.132292,0.0595 0.132292,0.13229 0,0.0728 -0.05953,0.13229 -0.132292,0.13229 -0.07276,0 -0.132291,-0.0595 -0.132291,-0.13229 z m -17.355474,-0.70234 c -0.116967,-0.18925 -0.07258,-0.23365 0.116676,-0.11668 0.304999,0.18849 0.409488,0.42215 0.188788,0.42215 -0.06417,0 -0.201631,-0.13745 -0.305464,-0.30547 z m 17.563619,-0.48828 c -0.07249,-0.49393 -2.04e-4,-0.79375 0.191373,-0.79375 0.693833,0 2.906993,-3.69742 2.552718,-4.26469 -0.304233,-0.48715 -0.286636,-0.50586 0.220658,-0.23437 0.303194,0.16227 0.811606,0.21241 1.12981,0.11142 0.542687,-0.17225 0.53235,-0.12306 -0.166761,0.79351 -0.409919,0.53745 -1.396963,1.92318 -2.193428,3.07941 -1.660956,2.4112 -1.581341,2.35114 -1.73437,1.30847 z m -3.118562,0 c 0,-0.19402 0.07937,-0.2734 0.17639,-0.1764 0.09701,0.097 0.09701,0.25577 0,0.35279 -0.09702,0.097 -0.17639,0.0176 -0.17639,-0.17639 z m -14.816667,-0.1323 c 0,-0.0728 0.05953,-0.13229 0.132292,-0.13229 0.07276,0 0.132292,0.0595 0.132292,0.13229 0,0.0728 -0.05953,0.1323 -0.132292,0.1323 -0.07276,0 -0.132292,-0.0595 -0.132292,-0.1323 z m 15.156707,-0.66145 c 0.06348,-0.21828 0.442478,-1.7661 0.842227,-3.43959 0.998088,-4.17835 0.934032,-4.06402 1.72815,-3.08467 0.363802,0.44866 0.526121,0.73226 0.360709,0.63021 -0.610053,-0.37637 -1.929696,3.60159 -1.605746,4.84037 0.100386,0.38388 0.0055,0.52451 -0.354086,0.52451 -0.270188,0 -0.625219,0.20836 -0.788959,0.46302 -0.195347,0.30382 -0.258024,0.32658 -0.182295,0.0661 z m -16.108013,-0.83463 c -0.116967,-0.18926 -0.07258,-0.23366 0.116676,-0.11668 0.304998,0.18849 0.409487,0.42214 0.188788,0.42214 -0.06417,0 -0.201631,-0.13745 -0.305464,-0.30546 z m -0.37161,-0.62058 c 0,-0.0728 0.05953,-0.13229 0.132291,-0.13229 0.07276,0 0.132292,0.0595 0.132292,0.13229 0,0.0728 -0.05953,0.13229 -0.132292,0.13229 -0.07276,0 -0.132291,-0.0595 -0.132291,-0.13229 z m -0.529167,-0.79375 c 0,-0.0728 0.05953,-0.13229 0.132292,-0.13229 0.07276,0 0.132291,0.0595 0.132291,0.13229 0,0.0728 -0.05953,0.13229 -0.132291,0.13229 -0.07276,0 -0.132292,-0.0595 -0.132292,-0.13229 z m 10.31875,-0.26459 c 0,-0.0728 0.05953,-0.13229 0.132292,-0.13229 0.07276,0 0.132291,0.0595 0.132291,0.13229 0,0.0728 -0.05953,0.1323 -0.132291,0.1323 -0.07276,0 -0.132292,-0.0595 -0.132292,-0.1323 z m -10.847917,-0.6615 c -0.15576,-0.29105 -0.22367,-0.52917 -0.15091,-0.52917 0.07276,0 0.259733,0.23812 0.415494,0.52917 0.15576,0.29104 0.22367,0.52916 0.15091,0.52916 -0.07276,0 -0.259733,-0.23812 -0.415494,-0.52916 z m 8.432917,0.0661 c -0.329108,-0.41965 -0.319749,-0.42899 0.0999,-0.0999 0.254661,0.19973 0.463021,0.40809 0.463021,0.46302 0,0.21777 -0.217274,0.0776 -0.562917,-0.36312 z m 2.679583,0.0661 c 0,-0.0728 0.05953,-0.13229 0.132292,-0.13229 0.07276,0 0.132292,0.0595 0.132292,0.13229 0,0.0728 -0.05953,0.13229 -0.132292,0.13229 -0.07276,0 -0.132292,-0.0595 -0.132292,-0.13229 z m -17.288406,-0.57555 c -0.09575,-0.0957 -0.160282,-0.48167 -0.143402,-0.85762 0.01879,-0.41857 0.07638,-0.51033 0.148558,-0.23675 0.06483,0.24572 0.307684,0.48384 0.539679,0.52917 0.372758,0.0728 0.375727,0.12062 0.02553,0.41084 -0.217953,0.18066 -0.474617,0.25011 -0.57037,0.15436 z m 17.55299,-0.95308 c 0,-0.47694 -0.170511,-1.11062 -0.37891,-1.40814 -0.346747,-0.49504 -0.330822,-0.53935 0.187592,-0.52189 0.631182,0.0212 0.952878,-1.01539 1.537108,-4.95321 0.304948,-2.05542 0.988287,-2.8492 0.825211,-0.95859 -0.328499,3.80844 -2.171001,10.46369 -2.171001,7.84183 z m -11.90625,0.47026 c 0,-0.0728 0.05953,-0.13229 0.132291,-0.13229 0.07276,0 0.132292,0.0595 0.132292,0.13229 0,0.0728 -0.05953,0.1323 -0.132292,0.1323 -0.07276,0 -0.132291,-0.0595 -0.132291,-0.1323 z m -0.264584,-0.52905 c 0,-0.0728 0.05953,-0.13229 0.132292,-0.13229 0.07276,0 0.132292,0.0595 0.132292,0.13229 0,0.0728 -0.05953,0.13229 -0.132292,0.13229 -0.07276,0 -0.132292,-0.0595 -0.132292,-0.13229 z m 7.9375,0 c 0,-0.0728 0.05953,-0.13229 0.132292,-0.13229 0.07276,0 0.132292,0.0595 0.132292,0.13229 0,0.0728 -0.05953,0.13229 -0.132292,0.13229 -0.07276,0 -0.132292,-0.0595 -0.132292,-0.13229 z M 41.134825,265.7424 c 1.163841,-1.22153 1.163841,-1.22153 0.727604,-2.77625 -0.23993,-0.85511 -0.436237,-1.81483 -0.436237,-2.1327 0,-0.75065 -0.646661,-0.74512 -1.175623,0.01 -0.226531,0.32343 -0.408655,0.47226 -0.404718,0.33073 0.0075,-0.26903 1.319591,-1.73056 2.368799,-2.63856 0.611457,-0.52916 0.611457,-0.52916 0.308375,0.0488 -0.513332,0.9788 -0.347314,3.25297 0.363429,4.97832 0.359674,0.87312 0.654505,1.60075 0.655179,1.61695 7.94e-4,0.0161 -0.266665,-0.0214 -0.594087,-0.0834 -0.407464,-0.0773 -0.971013,0.19955 -1.785938,0.87735 -1.190625,0.99029 -1.190625,0.99029 -0.02678,-0.23124 z m 26.220533,0.99538 c 0,-0.0728 0.05953,-0.13229 0.132292,-0.13229 0.07276,0 0.132292,0.0595 0.132292,0.13229 0,0.0728 -0.05953,0.1323 -0.132292,0.1323 -0.07276,0 -0.132292,-0.0595 -0.132292,-0.1323 z M 44.072025,266.4732 c 0,-0.0728 0.05953,-0.13229 0.132292,-0.13229 0.07276,0 0.132291,0.0595 0.132291,0.13229 0,0.0728 -0.05953,0.13229 -0.132291,0.13229 -0.07276,0 -0.132292,-0.0595 -0.132292,-0.13229 z m 7.779943,-0.17317 c -0.116967,-0.18926 -0.07258,-0.23365 0.116676,-0.11668 0.168005,0.10382 0.305464,0.2413 0.305464,0.30546 0,0.22072 -0.23364,0.11621 -0.42214,-0.18878 z m 14.816667,0 c -0.116967,-0.18926 -0.07258,-0.23365 0.116676,-0.11668 0.168005,0.10382 0.305464,0.2413 0.305464,0.30546 0,0.22072 -0.23364,0.11621 -0.42214,-0.18878 z m 3.59714,0.20556 c 0,-0.0549 0.208359,-0.26329 0.463021,-0.46302 0.419645,-0.32909 0.429003,-0.31975 0.0999,0.0999 -0.345644,0.44072 -0.562917,0.58089 -0.562917,0.36312 z m -31.220833,-0.41365 c 0,-0.13693 0.1177,-0.32171 0.261554,-0.41061 0.149981,-0.0927 0.194336,0.0135 0.103983,0.24897 -0.175892,0.45837 -0.365537,0.54221 -0.365537,0.16164 z m 26.9875,-0.14791 c 0,-0.0728 0.05953,-0.13229 0.132291,-0.13229 0.07276,0 0.132292,0.0595 0.132292,0.13229 0,0.0728 -0.05953,0.1323 -0.132292,0.1323 -0.07276,0 -0.132291,-0.0595 -0.132291,-0.1323 z M 51.058218,265.2417 c -0.116967,-0.18926 -0.07258,-0.23366 0.116676,-0.11668 0.304999,0.18849 0.409488,0.42214 0.188788,0.42214 -0.06417,0 -0.201631,-0.13745 -0.305464,-0.30546 z m -11.48411,-0.0914 c 0,-0.0728 0.05953,-0.13229 0.132292,-0.13229 0.07276,0 0.132292,0.0595 0.132292,0.13229 0,0.0728 -0.05953,0.1323 -0.132292,0.1323 -0.07276,0 -0.132292,-0.0595 -0.132292,-0.1323 z m 31.696232,-0.64328 c -0.08381,-0.57099 0.0053,-0.80674 0.337976,-0.89371 0.466579,-0.12202 3.684542,-3.99407 3.684542,-4.43346 0,-0.136 0.238125,-0.24725 0.529167,-0.24725 0.758209,0 0.765424,-0.0127 -1.871689,3.31779 -2.727272,3.44445 -2.530036,3.27837 -2.679996,2.25663 z m -31.431648,-0.0182 c 0,-0.19402 0.07937,-0.2734 0.176389,-0.1764 0.09701,0.097 0.09701,0.25577 0,0.35279 -0.09701,0.097 -0.176389,0.0176 -0.176389,-0.17639 z m 10.69036,-0.0409 c -0.116967,-0.18926 -0.07258,-0.23366 0.116676,-0.11668 0.168005,0.10382 0.305464,0.2413 0.305464,0.30546 0,0.22071 -0.233641,0.1162 -0.42214,-0.18878 z m 4.39089,0.17317 c 0,-0.0728 0.05953,-0.13229 0.132291,-0.13229 0.07276,0 0.132292,0.0595 0.132292,0.13229 0,0.0728 -0.05953,0.13229 -0.132292,0.13229 -0.07276,0 -0.132291,-0.0595 -0.132291,-0.13229 z m -0.851035,-0.59531 c -0.400881,-0.45959 -1.21293,-1.9135 -0.919747,-1.64674 0.238027,0.21656 1.500544,2.10976 1.40694,2.10976 -0.04582,0 -0.265057,-0.20836 -0.487193,-0.46302 z m -3.911465,-0.19844 c 0,-0.0728 0.05953,-0.13229 0.132291,-0.13229 0.07276,0 0.132292,0.0595 0.132292,0.13229 0,0.0728 -0.05953,0.13229 -0.132292,0.13229 -0.07276,0 -0.132291,-0.0595 -0.132291,-0.13229 z m -10.31875,-0.66146 c 0,-0.19402 0.07937,-0.27339 0.176389,-0.1764 0.09701,0.097 0.09701,0.25577 0,0.3528 -0.09701,0.097 -0.176389,0.0176 -0.176389,-0.1764 z m 9.89661,-0.0409 c -0.116967,-0.18926 -0.07258,-0.23365 0.116676,-0.11668 0.304998,0.18849 0.409487,0.42214 0.188788,0.42214 -0.06417,0 -0.201631,-0.13745 -0.305464,-0.30546 z m 20.26589,-0.62058 c 0,-0.0728 0.05953,-0.13229 0.132291,-0.13229 0.07276,0 0.132292,0.0595 0.132292,0.13229 0,0.0728 -0.05953,0.13229 -0.132292,0.13229 -0.07276,0 -0.132291,-0.0595 -0.132291,-0.13229 z M 52.803275,261.843 c 0,-0.19402 0.07937,-0.27339 0.17639,-0.17639 0.09701,0.097 0.09701,0.25577 0,0.35279 -0.09701,0.097 -0.17639,0.0176 -0.17639,-0.1764 z m 16.775777,-0.0409 c -0.116967,-0.18925 -0.07258,-0.23365 0.116676,-0.11668 0.304998,0.18849 0.409487,0.42215 0.188788,0.42215 -0.06417,0 -0.201631,-0.13745 -0.305464,-0.30547 z m -0.37161,-0.62058 c 0,-0.0728 0.05953,-0.13229 0.132291,-0.13229 0.07276,0 0.132292,0.0595 0.132292,0.13229 0,0.0728 -0.05953,0.1323 -0.132292,0.1323 -0.07276,0 -0.132291,-0.0595 -0.132291,-0.1323 z m -0.364189,-0.80398 c -0.255317,-0.66535 -0.179998,-0.83701 0.131903,-0.30065 0.154435,0.26559 0.225055,0.53861 0.156932,0.60672 -0.06812,0.0681 -0.198099,-0.0696 -0.288835,-0.30607 z m -20.273311,-0.25435 c 0,-0.0728 0.05953,-0.13229 0.132291,-0.13229 0.07276,0 0.132292,0.0595 0.132292,0.13229 0,0.0728 -0.05953,0.13229 -0.132292,0.13229 -0.07276,0 -0.132291,-0.0595 -0.132291,-0.13229 z m 3.770889,-1.32292 c 0.0029,-0.58208 0.05712,-0.78906 0.120407,-0.45992 0.06329,0.32911 0.06088,0.80536 -0.0053,1.05833 -0.06622,0.25294 -0.118004,-0.0164 -0.115067,-0.59841 z m 16.072861,0.52917 c 0,-0.0728 0.05953,-0.13229 0.132291,-0.13229 0.07276,0 0.132292,0.0595 0.132292,0.13229 0,0.0728 -0.05953,0.13229 -0.132292,0.13229 -0.07276,0 -0.132291,-0.0595 -0.132291,-0.13229 z m -20.18683,-2.14257 c -0.261456,-0.34957 -0.354941,-0.63555 -0.207748,-0.63555 0.267737,0 0.935926,1.02944 0.770702,1.18737 -0.04817,0.046 -0.301501,-0.20228 -0.562954,-0.55182 z m -3.954614,-0.30482 c 0.34267,-0.32743 0.824754,-0.58778 1.071301,-0.57854 0.298088,0.0111 0.228489,0.10445 -0.207751,0.2785 -0.360809,0.14396 -0.842894,0.40431 -1.0713,0.57856 -0.228405,0.17423 -0.134917,0.0489 0.20775,-0.27852 z m 8.266444,-0.19844 c 0,-0.0728 0.05953,-0.13229 0.132291,-0.13229 0.07276,0 0.132292,0.0595 0.132292,0.13229 0,0.0728 -0.05953,0.13229 -0.132292,0.13229 -0.07276,0 -0.132291,-0.0595 -0.132291,-0.13229 z m -5.468057,-0.30869 c 0.09701,-0.097 0.255765,-0.097 0.35278,0 0.09701,0.097 0.01765,0.1764 -0.17639,0.1764 -0.194027,0 -0.273402,-0.0794 -0.17639,-0.1764 z m 5.73264,-0.22048 c 0,-0.0728 0.05953,-0.13229 0.132292,-0.13229 0.07276,0 0.132291,0.0595 0.132291,0.13229 0,0.0728 -0.05953,0.13229 -0.132291,0.13229 -0.07276,0 -0.132292,-0.0595 -0.132292,-0.13229 z m 0.264583,-0.52917 c 0,-0.0728 0.05953,-0.13229 0.132292,-0.13229 0.07276,0 0.132292,0.0595 0.132292,0.13229 0,0.0728 -0.05953,0.1323 -0.132292,0.1323 -0.07276,0 -0.132292,-0.0595 -0.132292,-0.1323 z m 0.396875,-0.66145 c 0.08994,-0.14552 0.223052,-0.26459 0.295812,-0.26459 0.07276,0 0.05871,0.11907 -0.03123,0.26459 -0.08994,0.14552 -0.223052,0.26458 -0.295812,0.26458 -0.07276,0 -0.05871,-0.11906 0.03123,-0.26458 z m 0.79375,-1.05834 c 0.26339,-0.29104 0.538422,-0.52916 0.611183,-0.52916 0.07276,0 -0.08321,0.23812 -0.346599,0.52916 -0.26339,0.29104 -0.538422,0.52917 -0.611183,0.52917 -0.07276,0 0.08321,-0.23813 0.346599,-0.52917 z m 10.451042,0 c 0,-0.19402 0.07937,-0.27339 0.17639,-0.17639 0.09701,0.097 0.09701,0.25577 0,0.35279 -0.09701,0.097 -0.17639,0.0176 -0.17639,-0.1764 z m -0.264583,-0.66146 c 0,-0.0728 0.05953,-0.13229 0.132291,-0.13229 0.07276,0 0.132292,0.0595 0.132292,0.13229 0,0.0728 -0.05953,0.1323 -0.132292,0.1323 -0.07276,0 -0.132291,-0.0595 -0.132291,-0.1323 z m 3.481358,-0.66145 c 0,-0.36381 0.06006,-0.51263 0.133453,-0.33073 0.0734,0.1819 0.0734,0.47955 0,0.66146 -0.0734,0.1819 -0.133453,0.0331 -0.133453,-0.33073 z m -12.477192,0.18179 c 0,-0.0455 0.386953,-0.43249 0.859896,-0.85989 0.859896,-0.77711 0.859896,-0.77711 0.08279,0.0828 -0.724371,0.80156 -0.942687,0.98153 -0.942687,0.77711 z m 8.182057,-0.6124 c -0.352787,-0.38235 -0.998619,-0.85395 -1.435182,-1.04799 -0.436562,-0.19402 -0.608523,-0.35743 -0.382132,-0.36314 0.477769,-0.0119 2.117093,1.14088 2.438254,1.71476 0.328756,0.58746 0.09641,0.47384 -0.62094,-0.30363 z m 4.517943,-0.62773 c 0,-0.19402 0.07937,-0.27339 0.17639,-0.17639 0.09701,0.097 0.09701,0.25577 0,0.35279 -0.09701,0.097 -0.17639,0.0176 -0.17639,-0.1764 z m 22.286971,-0.8015 c -0.475237,-0.4323 -0.765402,-0.786 -0.644813,-0.786 0.120591,0 0.561464,0.35719 0.979717,0.79375 0.972445,1.01502 0.784683,1.01066 -0.334904,-0.008 z m -33.134887,0.40463 c 0,-0.0728 0.05953,-0.13229 0.132291,-0.13229 0.07276,0 0.132292,0.0595 0.132292,0.13229 0,0.0728 -0.05953,0.13229 -0.132292,0.13229 -0.07276,0 -0.132291,-0.0595 -0.132291,-0.13229 z m 0.79375,-0.39688 c 0.218281,-0.14107 0.575468,-0.24992 0.79375,-0.24193 0.261688,0.01 0.216625,0.092 -0.132292,0.24193 -0.727363,0.31256 -1.145109,0.31256 -0.661458,0 z m 10.31875,0.0156 c 0,-0.13692 0.1177,-0.3217 0.261554,-0.4106 0.149981,-0.0927 0.194336,0.0135 0.103983,0.24897 -0.175892,0.45836 -0.365537,0.54221 -0.365537,0.16163 z m 19.645312,-0.99173 c 0.254662,-0.0666 0.67138,-0.0666 0.926042,0 0.254661,0.0665 0.0463,0.12099 -0.463021,0.12099 -0.509323,0 -0.717682,-0.0545 -0.463021,-0.12099 z m -18.455754,-0.5697 c 0.288372,-0.34092 0.76377,-0.74245 1.056439,-0.89228 0.561952,-0.28774 0.480108,-0.19908 -0.788897,0.8546 -0.763963,0.63434 -0.773388,0.63566 -0.267542,0.0377 z m 15.214608,-0.43852 c 0,-0.0728 0.05953,-0.13229 0.132292,-0.13229 0.07276,0 0.132292,0.0595 0.132292,0.13229 0,0.0728 -0.05953,0.13229 -0.132292,0.13229 -0.07276,0 -0.132292,-0.0595 -0.132292,-0.13229 z m -13.49375,-0.79375 c 0,-0.0728 0.05953,-0.13229 0.132292,-0.13229 0.07276,0 0.132292,0.0595 0.132292,0.13229 0,0.0728 -0.05953,0.13229 -0.132292,0.13229 -0.07276,0 -0.132292,-0.0595 -0.132292,-0.13229 z m 0.529167,-0.26459 c 0,-0.0728 0.05953,-0.13229 0.132292,-0.13229 0.07276,0 0.132291,0.0595 0.132291,0.13229 0,0.0728 -0.05953,0.1323 -0.132291,0.1323 -0.07276,0 -0.132292,-0.0595 -0.132292,-0.1323 z m 10.847917,-0.42052 c -0.569852,-0.46609 -0.581052,-0.50173 -0.08088,-0.25726 0.319318,0.15605 0.653764,0.40217 0.743217,0.54692 0.238808,0.3864 0.07843,0.31626 -0.662336,-0.28966 z m -10.054167,0.0237 c 0.218281,-0.14108 0.515938,-0.25649 0.661458,-0.25649 0.145521,0 0.08599,0.11541 -0.132291,0.25649 -0.218282,0.14108 -0.515938,0.25649 -0.661459,0.25649 -0.14552,0 -0.08599,-0.11541 0.132292,-0.25649 z m 1.322917,-0.39688 c 0,-0.0728 0.05953,-0.13229 0.132291,-0.13229 0.07276,0 0.132292,0.0595 0.132292,0.13229 0,0.0728 -0.05953,0.1323 -0.132292,0.1323 -0.07276,0 -0.132291,-0.0595 -0.132291,-0.1323 z m 0.61736,-0.30868 c 0.09701,-0.097 0.255765,-0.097 0.352779,0 0.09701,0.097 0.01765,0.17639 -0.176389,0.17639 -0.194027,0 -0.273402,-0.0794 -0.17639,-0.17639 z m 1.322917,-0.26459 c 0.09701,-0.097 0.255764,-0.097 0.352779,0 0.09701,0.097 0.01765,0.1764 -0.17639,0.1764 -0.194027,0 -0.273402,-0.0794 -0.176389,-0.1764 z m 2.645833,-0.26458 c 0.09701,-0.097 0.255765,-0.097 0.352779,0 0.09701,0.097 0.01765,0.1764 -0.176389,0.1764 -0.194027,0 -0.273402,-0.0794 -0.17639,-0.1764 z m 0.705556,0.0441 c 0,-0.0728 0.05953,-0.13229 0.132292,-0.13229 0.07276,0 0.132292,0.0595 0.132292,0.13229 0,0.0728 -0.05953,0.1323 -0.132292,0.1323 -0.07276,0 -0.132292,-0.0595 -0.132292,-0.1323 z"
         id="path12684"
         sodipodi:nodetypes="sssssssssssssssssssssssssssssssssssssssssssssssssssssssssssssssssssssssssssssssssssssssssssssssssssssssssssssssssssssssssssssssssssssssssssssssssssssssssssssssssssssssssssssssssssssssssssssssssssssssssssssssssssssssssssssssssssssssssssssssssssssssssssssssssssssssssssssssssssssssssssssssssssssssssssssssssssssssssssssssssssssssssssssssssscssssssccssssssssssssssssssssssssssssssssssssssssssscssssssssssssssssssssssssssccsssssssssssssssssssssssssssssssssssssssssssssssscssssssssssssssssssssssssssssssssssssssssssssssssssssssssssssssssssssssssscsssssssssssssssssssssssssssssssssssssssssssssssssssscsssssscssccsssssscssssssccscssssssssssssssssssssssssssssssssssssssssssssssssssss" />
      <path
         style="fill:#1f6e9e;stroke-width:1"
         d="m 55.912129,299.76777 c 0.181901,-0.0734 0.479557,-0.0734 0.661459,0 0.181901,0.0734 0.03307,0.13346 -0.33073,0.13346 -0.363802,0 -0.51263,-0.0601 -0.330729,-0.13346 z m -1.43316,-0.26575 c 0.09701,-0.097 0.255764,-0.097 0.352779,0 0.09701,0.097 0.01765,0.1764 -0.17639,0.1764 -0.194027,0 -0.273402,-0.0794 -0.176389,-0.1764 z m -1.012362,-0.34972 c -0.0927,-0.15 0.01352,-0.19437 0.248967,-0.10401 0.45837,0.17589 0.542235,0.36555 0.16165,0.36555 -0.136932,0 -0.321712,-0.11769 -0.410617,-0.26154 z m 6.745001,0.12924 c 0,-0.0728 0.05953,-0.13229 0.132292,-0.13229 0.07276,0 0.132292,0.0595 0.132292,0.13229 0,0.0728 -0.05953,0.1323 -0.132292,0.1323 -0.07276,0 -0.132292,-0.0595 -0.132292,-0.1323 z m 0.79375,-0.26458 c 0,-0.0728 0.05953,-0.13229 0.132292,-0.13229 0.07276,0 0.132292,0.0595 0.132292,0.13229 0,0.0728 -0.05953,0.13229 -0.132292,0.13229 -0.07276,0 -0.132292,-0.0595 -0.132292,-0.13229 z m -8.742098,-0.94128 c -0.316825,-0.44492 -0.531889,-0.85312 -0.477916,-0.9071 0.05397,-0.054 0.365709,0.31007 0.692753,0.80897 0.737394,1.12492 0.570558,1.20112 -0.214837,0.0981 z m 9.800432,0.41211 c 0.363802,-0.20796 0.780521,-0.37811 0.926041,-0.37811 0.145521,0 -0.03307,0.17015 -0.396875,0.37811 -0.363802,0.20797 -0.78052,0.37812 -0.926041,0.37812 -0.145521,0 0.03307,-0.17015 0.396875,-0.37812 z m 1.322916,-0.52916 c 0,-0.0728 0.05953,-0.13229 0.132292,-0.13229 0.07276,0 0.132292,0.0595 0.132292,0.13229 0,0.0728 -0.05953,0.13229 -0.132292,0.13229 -0.07276,0 -0.132292,-0.0595 -0.132292,-0.13229 z m 11.641667,-0.13229 c -0.324993,-0.21003 -0.295489,-0.2572 0.162888,-0.26054 4.05942,-0.0294 8.832945,-6.18704 8.832945,-11.39415 0,-1.72185 0.08297,-1.75075 -4.427627,1.54228 -2.14871,1.56872 -4.918779,3.55339 -6.155706,4.4104 -3.41594,2.36672 -4.548669,3.33602 -4.387945,3.75488 0.115202,0.3002 0.03665,0.31512 -0.407559,0.0774 -0.302644,-0.16195 -0.805979,-0.23313 -1.118524,-0.15814 -0.712496,0.17097 -0.993042,0.38436 6.575486,-5.0015 21.670241,-15.42076 23.578574,-19.45293 11.896577,-25.13658 -4.282884,-2.08375 -3.64894,-2.16025 -6.04506,0.7294 -2.722036,3.28266 -2.551406,3.68089 2.813807,6.56709 1.44358,0.77658 1.991924,1.20505 1.852083,1.44719 -0.508185,0.88001 -8.788251,7.05525 -14.089282,10.50777 -2.110052,1.37425 -4.550833,2.96617 -5.423958,3.53759 -2.012701,1.31725 -2.537756,1.54583 -2.334575,1.01634 0.08359,-0.21786 -0.05848,-0.54996 -0.315711,-0.73805 -0.432028,-0.31592 -0.399243,-0.39431 0.429834,-1.02791 0.493644,-0.37724 1.842587,-1.77152 2.997652,-3.0984 2.042975,-2.34688 2.109044,-2.39596 2.428314,-1.80367 0.279474,0.51845 0.262292,0.62847 -0.115742,0.74113 -0.431109,0.12845 -4.54498,4.30919 -4.54498,4.61883 0,0.23003 1.756907,-0.73536 3.704166,-2.03536 1.18095,-0.78841 1.715201,-1.31302 1.705137,-1.67437 -0.01207,-0.43304 0.12854,-0.50979 0.79375,-0.43344 0.849484,0.0975 4.504825,-2.18413 4.821586,-3.00958 0.381577,-0.99438 -2.575898,-3.50499 -3.208856,-2.72404 -2.249572,2.77564 -1.344139,0.90495 1.955565,-4.0403 7.173473,-10.75081 10.083599,-13.63464 16.481491,-16.33251 0.803585,-0.33886 1.440783,-0.84037 1.784948,-1.40489 0.294378,-0.48284 0.535681,-0.73819 0.536223,-0.56745 5.29e-4,0.17074 -0.296667,0.66416 -0.660469,1.09651 -0.363802,0.43236 -0.661458,0.91776 -0.661458,1.07866 0,0.16089 -0.149664,0.29252 -0.332587,0.29252 -0.741941,0 -5.690216,2.68698 -6.650717,3.61143 -1.270228,1.22253 -0.819526,1.72434 3.03861,3.38307 8.463193,3.6386 7.844536,13.30592 -1.124892,17.57791 -0.678222,0.32303 -1.3033,0.77018 -1.389063,0.99367 -0.246184,0.64156 -0.182308,1.36853 0.129374,1.47243 0.524968,0.175 -0.241554,4.40269 -1.142061,6.29899 -1.638959,3.45133 -6.751222,7.1533 -8.403664,6.08542 z m 2.479942,-18.61945 c 5.129959,-3.66117 5.056389,-3.36158 1.366303,-5.56366 -3.134309,-1.87039 -2.960089,-1.89854 -4.73257,0.76489 -1.826884,2.74518 -1.827636,2.56146 0.01815,4.42669 1.802003,1.82099 1.383131,1.77445 3.34812,0.37208 z m 5.669225,-4.45222 c 0.524586,-0.52459 0.392702,-0.67247 -1.475161,-1.65399 -0.985962,-0.51811 -2.360946,-1.41163 -3.055519,-1.98559 -1.261841,-1.04273 -1.847401,-1.13631 -2.151494,-0.34385 -0.215143,0.56065 -0.139306,0.62261 3.174378,2.59381 3.157979,1.87857 3.058335,1.83909 3.507796,1.38962 z m -19.261667,22.93937 c 0,-0.0728 0.05953,-0.13229 0.132292,-0.13229 0.07276,0 0.132291,0.0595 0.132291,0.13229 0,0.0728 -0.05953,0.1323 -0.132291,0.1323 -0.07276,0 -0.132292,-0.0595 -0.132292,-0.1323 z m 8.466667,0 c 0,-0.0728 0.05953,-0.13229 0.132291,-0.13229 0.07276,0 0.132292,0.0595 0.132292,0.13229 0,0.0728 -0.05953,0.1323 -0.132292,0.1323 -0.07276,0 -0.132291,-0.0595 -0.132291,-0.1323 z m -1.982502,-0.65841 c -0.09269,-0.14999 0.01352,-0.19436 0.248968,-0.10401 0.458369,0.1759 0.542234,0.36555 0.161649,0.36555 -0.136932,0 -0.321712,-0.11769 -0.410617,-0.26154 z m -18.919582,-0.53221 c 0,-0.19402 0.07937,-0.27339 0.17639,-0.1764 0.09701,0.097 0.09701,0.25577 0,0.3528 -0.09701,0.097 -0.17639,0.0176 -0.17639,-0.1764 z m 14.2875,0.13229 c 0,-0.0728 0.05953,-0.13229 0.132292,-0.13229 0.07276,0 0.132292,0.0595 0.132292,0.13229 0,0.0728 -0.05953,0.13229 -0.132292,0.13229 -0.07276,0 -0.132292,-0.0595 -0.132292,-0.13229 z m 3.811194,-0.17317 c -0.116967,-0.18925 -0.07258,-0.23365 0.116676,-0.11668 0.304998,0.18849 0.409487,0.42214 0.188788,0.42214 -0.06417,0 -0.201631,-0.13745 -0.305464,-0.30546 z m -3.017444,-0.356 c 0,-0.0728 0.05953,-0.13229 0.132292,-0.13229 0.07276,0 0.132292,0.0595 0.132292,0.13229 0,0.0728 -0.05953,0.1323 -0.132292,0.1323 -0.07276,0 -0.132292,-0.0595 -0.132292,-0.1323 z m -15.176637,-0.58046 c -0.297969,-0.29795 -0.181475,-0.61016 0.227679,-0.61016 0.218281,0 0.396875,0.11202 0.396875,0.24897 0,0.33364 -0.413171,0.57259 -0.624554,0.36119 z m 1.418304,-0.47787 c 0,-0.0728 0.05953,-0.13229 0.132292,-0.13229 0.07276,0 0.132291,0.0595 0.132291,0.13229 0,0.0728 -0.05953,0.13229 -0.132291,0.13229 -0.07276,0 -0.132292,-0.0595 -0.132292,-0.13229 z m 1.322917,-0.52917 c 0,-0.0728 0.05953,-0.13229 0.132291,-0.13229 0.07276,0 0.132292,0.0595 0.132292,0.13229 0,0.0728 -0.05953,0.1323 -0.132292,0.1323 -0.07276,0 -0.132291,-0.0595 -0.132291,-0.1323 z m 0.529166,-0.26458 c 0,-0.0728 0.05953,-0.13229 0.132292,-0.13229 0.07276,0 0.132292,0.0595 0.132292,0.13229 0,0.0728 -0.05953,0.13229 -0.132292,0.13229 -0.07276,0 -0.132292,-0.0595 -0.132292,-0.13229 z m 0.529167,-0.26458 c 0,-0.0728 0.05953,-0.13229 0.132292,-0.13229 0.07276,0 0.132291,0.0595 0.132291,0.13229 0,0.0728 -0.05953,0.13229 -0.132291,0.13229 -0.07276,0 -0.132292,-0.0595 -0.132292,-0.13229 z m 0.529167,-0.26459 c 0,-0.0728 0.05953,-0.13229 0.132291,-0.13229 0.07276,0 0.132292,0.0595 0.132292,0.13229 0,0.0728 -0.05953,0.1323 -0.132292,0.1323 -0.07276,0 -0.132291,-0.0595 -0.132291,-0.1323 z m 0.529166,-0.26458 c 0,-0.0728 0.05953,-0.13229 0.132292,-0.13229 0.07276,0 0.132292,0.0595 0.132292,0.13229 0,0.0728 -0.05953,0.13229 -0.132292,0.13229 -0.07276,0 -0.132292,-0.0595 -0.132292,-0.13229 z m 0.529167,-0.26458 c 0,-0.0728 0.05953,-0.13229 0.132292,-0.13229 0.07276,0 0.132291,0.0595 0.132291,0.13229 0,0.0728 -0.05953,0.13229 -0.132291,0.13229 -0.07276,0 -0.132292,-0.0595 -0.132292,-0.13229 z m 1.344964,-0.7601 c 0.27227,-0.24363 1.830036,-0.95948 1.830036,-0.841 0,0.1524 -1.466802,0.93964 -1.750751,0.93964 -0.10424,0 -0.139917,-0.0444 -0.07929,-0.0986 z m 2.094619,-1.09199 c 0,-0.0728 0.05953,-0.13229 0.132292,-0.13229 0.07276,0 0.132292,0.0595 0.132292,0.13229 0,0.0728 -0.05953,0.1323 -0.132292,0.1323 -0.07276,0 -0.132292,-0.0595 -0.132292,-0.1323 z m 0.926042,-0.66145 c 0.08994,-0.14552 0.223052,-0.26459 0.295812,-0.26459 0.07276,0 0.05871,0.11907 -0.03123,0.26459 -0.08994,0.14552 -0.223051,0.26458 -0.295812,0.26458 -0.07276,0 -0.05871,-0.11906 0.03123,-0.26458 z m -5.335765,-0.1764 c 0.09701,-0.097 0.255765,-0.097 0.35278,0 0.09701,0.097 0.01765,0.1764 -0.17639,0.1764 -0.194027,0 -0.273402,-0.0794 -0.17639,-0.1764 z m 2.38125,0 c 0.09701,-0.097 0.255765,-0.097 0.35278,0 0.09701,0.097 0.01765,0.1764 -0.17639,0.1764 -0.194027,0 -0.273402,-0.0794 -0.17639,-0.1764 z m -2.99861,-0.22048 c 0,-0.0728 0.05953,-0.13229 0.132292,-0.13229 0.07276,0 0.132291,0.0595 0.132291,0.13229 0,0.0728 -0.05953,0.13229 -0.132291,0.13229 -0.07276,0 -0.132292,-0.0595 -0.132292,-0.13229 z m 3.704167,0 c 0,-0.0728 0.05953,-0.13229 0.132291,-0.13229 0.07276,0 0.132292,0.0595 0.132292,0.13229 0,0.0728 -0.05953,0.13229 -0.132292,0.13229 -0.07276,0 -0.132291,-0.0595 -0.132291,-0.13229 z m 2.910416,0 c 0,-0.0728 0.05953,-0.13229 0.132292,-0.13229 0.07276,0 0.132292,0.0595 0.132292,0.13229 0,0.0728 -0.05953,0.13229 -0.132292,0.13229 -0.07276,0 -0.132292,-0.0595 -0.132292,-0.13229 z m -7.692943,-0.85989 c -0.641432,-0.72761 -0.641432,-0.72761 0.08617,-0.0862 0.680056,0.59952 0.84894,0.81378 0.641433,0.81378 -0.04739,0 -0.374815,-0.32742 -0.727605,-0.7276 z m 5.311693,0.62362 c 0,-0.0572 0.184777,-0.17489 0.410618,-0.26157 0.235458,-0.0904 0.341662,-0.046 0.248967,0.10401 -0.155379,0.25141 -0.659585,0.37184 -0.659585,0.15756 z m 1.058334,-0.55748 c 0,-0.0728 0.05953,-0.13229 0.132291,-0.13229 0.07276,0 0.132292,0.0595 0.132292,0.13229 0,0.0728 -0.05953,0.13229 -0.132292,0.13229 -0.07276,0 -0.132291,-0.0595 -0.132291,-0.13229 z m 0.529166,-0.26458 c 0,-0.0728 0.05953,-0.13229 0.132292,-0.13229 0.07276,0 0.132292,0.0595 0.132292,0.13229 0,0.0728 -0.05953,0.13229 -0.132292,0.13229 -0.07276,0 -0.132292,-0.0595 -0.132292,-0.13229 z m -7.672916,-0.79375 c 0,-0.0728 0.05953,-0.13229 0.132291,-0.13229 0.07276,0 0.132292,0.0595 0.132292,0.13229 0,0.0728 -0.05953,0.13229 -0.132292,0.13229 -0.07276,0 -0.132291,-0.0595 -0.132291,-0.13229 z m -0.264584,-0.79375 c 0,-0.0728 0.05953,-0.13229 0.132292,-0.13229 0.07276,0 0.132292,0.0595 0.132292,0.13229 0,0.0728 -0.05953,0.13229 -0.132292,0.13229 -0.07276,0 -0.132292,-0.0595 -0.132292,-0.13229 z m -0.264583,-1.85209 c 0,-0.0728 0.05953,-0.13229 0.132292,-0.13229 0.07276,0 0.132291,0.0595 0.132291,0.13229 0,0.0728 -0.05953,0.1323 -0.132291,0.1323 -0.07276,0 -0.132292,-0.0595 -0.132292,-0.1323 z m 0,-5.02708 c 0,-0.0728 0.05953,-0.13229 0.132292,-0.13229 0.07276,0 0.132291,0.0595 0.132291,0.13229 0,0.0728 -0.05953,0.13229 -0.132291,0.13229 -0.07276,0 -0.132292,-0.0595 -0.132292,-0.13229 z m -0.630883,-2.03221 c -0.628592,-0.8745 -0.664758,-0.99796 -0.20896,-0.71329 0.303157,0.18931 0.592354,0.28919 0.64266,0.22193 0.298111,-0.39851 2.329338,-7.77007 2.21974,-8.05566 -0.0819,-0.21344 0.122407,-0.39529 0.53213,-0.47361 0.520152,-0.0994 0.63849,-0.0333 0.543057,0.30348 -0.06711,0.23683 -0.672496,2.18967 -1.3453,4.33962 -0.672801,2.14998 -1.223277,4.19677 -1.223277,4.54845 0,1.01664 -0.34272,0.96613 -1.16005,-0.17092 z m 8.634529,0.38899 c -0.432956,-0.15796 -0.417653,-0.4863 0.103066,-2.21136 0.427516,-1.41629 0.437536,-1.42618 0.692023,-0.68395 0.217201,0.63352 0.376883,0.73575 1.005094,0.64355 0.746868,-0.10962 0.746868,-0.10962 0.259886,0.56975 -0.748355,1.04405 -1.693515,1.81573 -2.060069,1.68201 z m -10.542453,-2.76328 c -0.116967,-0.18926 -0.07258,-0.23366 0.116676,-0.11668 0.168005,0.10382 0.305464,0.2413 0.305464,0.30546 0,0.22071 -0.23364,0.1162 -0.42214,-0.18878 z m 13.12214,-0.0914 c 0,-0.0728 0.05953,-0.13229 0.132292,-0.13229 0.07276,0 0.132292,0.0595 0.132292,0.13229 0,0.0728 -0.05953,0.1323 -0.132292,0.1323 -0.07276,0 -0.132292,-0.0595 -0.132292,-0.1323 z M 49.594525,275.4029 c -0.329108,-0.41966 -0.319749,-0.429 0.0999,-0.0999 0.44073,0.34565 0.580887,0.56293 0.363125,0.56293 -0.05494,0 -0.263301,-0.20836 -0.463021,-0.46302 z m 14.585833,-0.19844 c 0,-0.0728 0.05953,-0.13229 0.132292,-0.13229 0.07276,0 0.132292,0.0595 0.132292,0.13229 0,0.0728 -0.05953,0.13229 -0.132292,0.13229 -0.07276,0 -0.132292,-0.0595 -0.132292,-0.13229 z m -2.645833,-0.26458 c 0,-0.0728 0.05953,-0.13229 0.132292,-0.13229 0.07276,0 0.132291,0.0595 0.132291,0.13229 0,0.0728 -0.05953,0.13229 -0.132291,0.13229 -0.07276,0 -0.132292,-0.0595 -0.132292,-0.13229 z m -12.626409,-0.46302 c -0.396658,-0.51287 -0.646176,-0.99219 -0.516511,-0.99219 0.06461,0 0.31251,0.29766 0.550881,0.66146 0.446045,0.68074 0.421203,0.91977 -0.03437,0.33073 z m 15.801409,-0.0661 c 0,-0.0728 0.05953,-0.13229 0.132292,-0.13229 0.07276,0 0.132291,0.0595 0.132291,0.13229 0,0.0728 -0.05953,0.13229 -0.132291,0.13229 -0.07276,0 -0.132292,-0.0595 -0.132292,-0.13229 z m -2.910417,-0.26458 c 0,-0.0728 0.05953,-0.13229 0.132292,-0.13229 0.07276,0 0.132292,0.0595 0.132292,0.13229 0,0.0728 -0.05953,0.13229 -0.132292,0.13229 -0.07276,0 -0.132292,-0.0595 -0.132292,-0.13229 z m 3.439584,-0.52917 c 0,-0.0728 0.05953,-0.13229 0.132291,-0.13229 0.07276,0 0.132292,0.0595 0.132292,0.13229 0,0.0728 -0.05953,0.13229 -0.132292,0.13229 -0.07276,0 -0.132291,-0.0595 -0.132291,-0.13229 z m -17.355474,-0.70234 c -0.116967,-0.18925 -0.07258,-0.23365 0.116676,-0.11668 0.304999,0.18849 0.409488,0.42215 0.188788,0.42215 -0.06417,0 -0.201631,-0.13745 -0.305464,-0.30547 z m 17.563619,-0.48828 c -0.07249,-0.49393 -2.04e-4,-0.79375 0.191373,-0.79375 0.693833,0 2.906993,-3.69742 2.552718,-4.26469 -0.304233,-0.48715 -0.286636,-0.50586 0.220658,-0.23437 0.303194,0.16227 0.811606,0.21241 1.12981,0.11142 0.542687,-0.17225 0.53235,-0.12306 -0.166761,0.79351 -0.409919,0.53745 -1.396963,1.92318 -2.193428,3.07941 -1.660956,2.4112 -1.581341,2.35114 -1.73437,1.30847 z m -3.118562,0 c 0,-0.19402 0.07937,-0.2734 0.17639,-0.1764 0.09701,0.097 0.09701,0.25577 0,0.35279 -0.09702,0.097 -0.17639,0.0176 -0.17639,-0.17639 z m -14.816667,-0.1323 c 0,-0.0728 0.05953,-0.13229 0.132292,-0.13229 0.07276,0 0.132292,0.0595 0.132292,0.13229 0,0.0728 -0.05953,0.1323 -0.132292,0.1323 -0.07276,0 -0.132292,-0.0595 -0.132292,-0.1323 z m 15.156707,-0.66145 c 0.06348,-0.21828 0.442478,-1.7661 0.842227,-3.43959 0.998088,-4.17835 0.934032,-4.06402 1.72815,-3.08467 0.363802,0.44866 0.526121,0.73226 0.360709,0.63021 -0.610053,-0.37637 -1.929696,3.60159 -1.605746,4.84037 0.100386,0.38388 0.0055,0.52451 -0.354086,0.52451 -0.270188,0 -0.625219,0.20836 -0.788959,0.46302 -0.195347,0.30382 -0.258024,0.32658 -0.182295,0.0661 z m -16.108013,-0.83463 c -0.116967,-0.18926 -0.07258,-0.23366 0.116676,-0.11668 0.304998,0.18849 0.409487,0.42214 0.188788,0.42214 -0.06417,0 -0.201631,-0.13745 -0.305464,-0.30546 z m -0.37161,-0.62058 c 0,-0.0728 0.05953,-0.13229 0.132291,-0.13229 0.07276,0 0.132292,0.0595 0.132292,0.13229 0,0.0728 -0.05953,0.13229 -0.132292,0.13229 -0.07276,0 -0.132291,-0.0595 -0.132291,-0.13229 z m -0.529167,-0.79375 c 0,-0.0728 0.05953,-0.13229 0.132292,-0.13229 0.07276,0 0.132291,0.0595 0.132291,0.13229 0,0.0728 -0.05953,0.13229 -0.132291,0.13229 -0.07276,0 -0.132292,-0.0595 -0.132292,-0.13229 z m 10.31875,-0.26459 c 0,-0.0728 0.05953,-0.13229 0.132292,-0.13229 0.07276,0 0.132291,0.0595 0.132291,0.13229 0,0.0728 -0.05953,0.1323 -0.132291,0.1323 -0.07276,0 -0.132292,-0.0595 -0.132292,-0.1323 z m -10.847917,-0.66145 c -0.15576,-0.29105 -0.22367,-0.52917 -0.15091,-0.52917 0.07276,0 0.259733,0.23812 0.415494,0.52917 0.15576,0.29104 0.22367,0.52916 0.15091,0.52916 -0.07276,0 -0.259733,-0.23812 -0.415494,-0.52916 z m 8.432917,0.0661 c -0.329108,-0.41965 -0.319749,-0.42899 0.0999,-0.0999 0.254661,0.19973 0.463021,0.40809 0.463021,0.46302 0,0.21777 -0.217274,0.0776 -0.562917,-0.36312 z m 2.679583,0.0661 c 0,-0.0728 0.05953,-0.13229 0.132292,-0.13229 0.07276,0 0.132292,0.0595 0.132292,0.13229 0,0.0728 -0.05953,0.13229 -0.132292,0.13229 -0.07276,0 -0.132292,-0.0595 -0.132292,-0.13229 z m -17.288406,-0.57555 c -0.09575,-0.0957 -0.160282,-0.48167 -0.143402,-0.85762 0.01879,-0.41857 0.07638,-0.51033 0.148558,-0.23675 0.06483,0.24572 0.307684,0.48384 0.539679,0.52917 0.372758,0.0728 0.375727,0.12062 0.02553,0.41084 -0.217953,0.18066 -0.474617,0.25011 -0.57037,0.15436 z m 17.55299,-0.95308 c 0,-0.47694 -0.170511,-1.11062 -0.37891,-1.40814 -0.346747,-0.49504 -0.330822,-0.53935 0.187592,-0.52189 0.631182,0.0212 0.952878,-1.01539 1.537108,-4.95321 0.304948,-2.05542 0.988287,-2.8492 0.825211,-0.95859 -0.328499,3.80844 -2.171001,10.46369 -2.171001,7.84183 z m -11.90625,0.47029 c 0,-0.0728 0.05953,-0.13229 0.132291,-0.13229 0.07276,0 0.132292,0.0595 0.132292,0.13229 0,0.0728 -0.05953,0.1323 -0.132292,0.1323 -0.07276,0 -0.132291,-0.0595 -0.132291,-0.1323 z m -0.264584,-0.52916 c 0,-0.0728 0.05953,-0.13229 0.132292,-0.13229 0.07276,0 0.132292,0.0595 0.132292,0.13229 0,0.0728 -0.05953,0.13229 -0.132292,0.13229 -0.07276,0 -0.132292,-0.0595 -0.132292,-0.13229 z m 7.9375,0 c 0,-0.0728 0.05953,-0.13229 0.132292,-0.13229 0.07276,0 0.132292,0.0595 0.132292,0.13229 0,0.0728 -0.05953,0.13229 -0.132292,0.13229 -0.07276,0 -0.132292,-0.0595 -0.132292,-0.13229 z m -11.139283,-1.25997 c 1.163841,-1.22153 1.163841,-1.22153 0.727604,-2.77625 -0.23993,-0.85511 -0.436237,-1.81483 -0.436237,-2.1327 0,-0.75065 -0.646661,-0.74512 -1.175623,0.01 -0.226531,0.32343 -0.408655,0.47226 -0.404718,0.33073 0.0075,-0.26903 1.319591,-1.73056 2.368799,-2.63856 0.611457,-0.52916 0.611457,-0.52916 0.308375,0.0488 -0.513332,0.9788 -0.347314,3.25297 0.363429,4.97832 0.359674,0.87312 0.654505,1.60075 0.655179,1.61695 7.94e-4,0.0161 -0.266665,-0.0214 -0.594087,-0.0834 -0.407464,-0.0773 -0.971013,0.19955 -1.785938,0.87735 -1.190625,0.99029 -1.190625,0.99029 -0.02678,-0.23124 z m 26.220533,0.99538 c 0,-0.0728 0.05953,-0.13229 0.132292,-0.13229 0.07276,0 0.132292,0.0595 0.132292,0.13229 0,0.0728 -0.05953,0.1323 -0.132292,0.1323 -0.07276,0 -0.132292,-0.0595 -0.132292,-0.1323 z m -23.283333,-0.26458 c 0,-0.0728 0.05953,-0.13229 0.132292,-0.13229 0.07276,0 0.132291,0.0595 0.132291,0.13229 0,0.0728 -0.05953,0.13229 -0.132291,0.13229 -0.07276,0 -0.132292,-0.0595 -0.132292,-0.13229 z M 51.851968,266.3 c -0.116967,-0.18926 -0.07258,-0.23365 0.116676,-0.11668 0.168005,0.10382 0.305464,0.2413 0.305464,0.30546 0,0.22072 -0.23364,0.11621 -0.42214,-0.18878 z m 14.816667,0 c -0.116967,-0.18926 -0.07258,-0.23365 0.116676,-0.11668 0.168005,0.10382 0.305464,0.2413 0.305464,0.30546 0,0.22072 -0.23364,0.11621 -0.42214,-0.18878 z m 3.59714,0.20556 c 0,-0.0549 0.208359,-0.26329 0.463021,-0.46302 0.419645,-0.32909 0.429003,-0.31975 0.0999,0.0999 -0.345644,0.44072 -0.562917,0.58089 -0.562917,0.36312 z m -31.220833,-0.41365 c 0,-0.13693 0.1177,-0.32171 0.261554,-0.41061 0.149981,-0.0927 0.194336,0.0135 0.103983,0.24897 -0.175892,0.45837 -0.365537,0.54221 -0.365537,0.16164 z m 26.9875,-0.14791 c 0,-0.0728 0.05953,-0.13229 0.132291,-0.13229 0.07276,0 0.132292,0.0595 0.132292,0.13229 0,0.0728 -0.05953,0.1323 -0.132292,0.1323 -0.07276,0 -0.132291,-0.0595 -0.132291,-0.1323 z m -14.974224,-0.70233 c -0.116967,-0.18926 -0.07258,-0.23366 0.116676,-0.11668 0.304999,0.18849 0.409488,0.42214 0.188788,0.42214 -0.06417,0 -0.201631,-0.13745 -0.305464,-0.30546 z m -11.48411,-0.0914 c 0,-0.0728 0.05953,-0.13229 0.132292,-0.13229 0.07276,0 0.132292,0.0595 0.132292,0.13229 0,0.0728 -0.05953,0.1323 -0.132292,0.1323 -0.07276,0 -0.132292,-0.0595 -0.132292,-0.1323 z m 31.696232,-0.64328 c -0.08381,-0.57099 0.0053,-0.80674 0.337976,-0.89371 0.466579,-0.12202 3.684542,-3.99407 3.684542,-4.43346 0,-0.136 0.238125,-0.24725 0.529167,-0.24725 0.758209,0 0.765424,-0.0127 -1.871689,3.31779 -2.727272,3.44445 -2.530036,3.27837 -2.679996,2.25663 z m -31.431648,-0.0182 c 0,-0.19402 0.07937,-0.2734 0.176389,-0.1764 0.09701,0.097 0.09701,0.25577 0,0.35279 -0.09701,0.097 -0.176389,0.0176 -0.176389,-0.17639 z m 10.69036,-0.0409 c -0.116967,-0.18926 -0.07258,-0.23366 0.116676,-0.11668 0.168005,0.10382 0.305464,0.2413 0.305464,0.30546 0,0.22071 -0.233641,0.1162 -0.42214,-0.18878 z m 4.39089,0.17317 c 0,-0.0728 0.05953,-0.13229 0.132291,-0.13229 0.07276,0 0.132292,0.0595 0.132292,0.13229 0,0.0728 -0.05953,0.13229 -0.132292,0.13229 -0.07276,0 -0.132291,-0.0595 -0.132291,-0.13229 z m -0.851035,-0.59531 c -0.400881,-0.45959 -1.21293,-1.9135 -0.919747,-1.64674 0.238027,0.21656 1.500544,2.10976 1.40694,2.10976 -0.04582,0 -0.265057,-0.20836 -0.487193,-0.46302 z m -3.911465,-0.19844 c 0,-0.0728 0.05953,-0.13229 0.132291,-0.13229 0.07276,0 0.132292,0.0595 0.132292,0.13229 0,0.0728 -0.05953,0.13229 -0.132292,0.13229 -0.07276,0 -0.132291,-0.0595 -0.132291,-0.13229 z m -10.31875,-0.66146 c 0,-0.19402 0.07937,-0.27339 0.176389,-0.1764 0.09701,0.097 0.09701,0.25577 0,0.3528 -0.09701,0.097 -0.176389,0.0176 -0.176389,-0.1764 z m 9.89661,-0.0409 c -0.116967,-0.18926 -0.07258,-0.23365 0.116676,-0.11668 0.304998,0.18849 0.409487,0.42214 0.188788,0.42214 -0.06417,0 -0.201631,-0.13745 -0.305464,-0.30546 z m 20.26589,-0.62058 c 0,-0.0728 0.05953,-0.13229 0.132291,-0.13229 0.07276,0 0.132292,0.0595 0.132292,0.13229 0,0.0728 -0.05953,0.13229 -0.132292,0.13229 -0.07276,0 -0.132291,-0.0595 -0.132291,-0.13229 z M 52.803275,261.843 c 0,-0.19402 0.07937,-0.27339 0.17639,-0.17639 0.09701,0.097 0.09701,0.25577 0,0.35279 -0.09701,0.097 -0.17639,0.0176 -0.17639,-0.1764 z m 16.775777,-0.0409 c -0.116967,-0.18925 -0.07258,-0.23365 0.116676,-0.11668 0.304998,0.18849 0.409487,0.42215 0.188788,0.42215 -0.06417,0 -0.201631,-0.13745 -0.305464,-0.30547 z m -0.37161,-0.62058 c 0,-0.0728 0.05953,-0.13229 0.132291,-0.13229 0.07276,0 0.132292,0.0595 0.132292,0.13229 0,0.0728 -0.05953,0.1323 -0.132292,0.1323 -0.07276,0 -0.132291,-0.0595 -0.132291,-0.1323 z m -0.364189,-0.80398 c -0.255317,-0.66535 -0.179998,-0.83701 0.131903,-0.30065 0.154435,0.26559 0.225055,0.53861 0.156932,0.60672 -0.06812,0.0681 -0.198099,-0.0696 -0.288835,-0.30607 z m -20.273311,-0.25435 c 0,-0.0728 0.05953,-0.13229 0.132291,-0.13229 0.07276,0 0.132292,0.0595 0.132292,0.13229 0,0.0728 -0.05953,0.13229 -0.132292,0.13229 -0.07276,0 -0.132291,-0.0595 -0.132291,-0.13229 z m 3.770889,-1.32292 c 0.0029,-0.58208 0.05712,-0.78906 0.120407,-0.45992 0.06329,0.32911 0.06088,0.80536 -0.0053,1.05833 -0.06622,0.25294 -0.118004,-0.0164 -0.115067,-0.59841 z m 16.072861,0.52917 c 0,-0.0728 0.05953,-0.13229 0.132291,-0.13229 0.07276,0 0.132292,0.0595 0.132292,0.13229 0,0.0728 -0.05953,0.13229 -0.132292,0.13229 -0.07276,0 -0.132291,-0.0595 -0.132291,-0.13229 z m -20.18683,-2.14257 c -0.261456,-0.34957 -0.354941,-0.63555 -0.207748,-0.63555 0.267737,0 0.935926,1.02944 0.770702,1.18737 -0.04817,0.046 -0.301501,-0.20228 -0.562954,-0.55182 z m -3.954614,-0.30482 c 0.34267,-0.32743 0.824754,-0.58778 1.071301,-0.57854 0.298088,0.0111 0.228489,0.10445 -0.207751,0.2785 -0.360809,0.14396 -0.842894,0.40431 -1.0713,0.57856 -0.228405,0.17423 -0.134917,0.0489 0.20775,-0.27852 z m 8.266444,-0.19844 c 0,-0.0728 0.05953,-0.13229 0.132291,-0.13229 0.07276,0 0.132292,0.0595 0.132292,0.13229 0,0.0728 -0.05953,0.13229 -0.132292,0.13229 -0.07276,0 -0.132291,-0.0595 -0.132291,-0.13229 z m -5.468057,-0.30869 c 0.09701,-0.097 0.255765,-0.097 0.35278,0 0.09701,0.097 0.01765,0.1764 -0.17639,0.1764 -0.194027,0 -0.273402,-0.0794 -0.17639,-0.1764 z m 5.73264,-0.22048 c 0,-0.0728 0.05953,-0.13229 0.132292,-0.13229 0.07276,0 0.132291,0.0595 0.132291,0.13229 0,0.0728 -0.05953,0.13229 -0.132291,0.13229 -0.07276,0 -0.132292,-0.0595 -0.132292,-0.13229 z m 0.264583,-0.52917 c 0,-0.0728 0.05953,-0.13229 0.132292,-0.13229 0.07276,0 0.132292,0.0595 0.132292,0.13229 0,0.0728 -0.05953,0.1323 -0.132292,0.1323 -0.07276,0 -0.132292,-0.0595 -0.132292,-0.1323 z m 0.396875,-0.66145 c 0.08994,-0.14552 0.223052,-0.26459 0.295812,-0.26459 0.07276,0 0.05871,0.11907 -0.03123,0.26459 -0.08994,0.14552 -0.223052,0.26458 -0.295812,0.26458 -0.07276,0 -0.05871,-0.11906 0.03123,-0.26458 z m 0.79375,-1.05834 c 0.26339,-0.29104 0.538422,-0.52916 0.611183,-0.52916 0.07276,0 -0.08321,0.23812 -0.346599,0.52916 -0.26339,0.29104 -0.538422,0.52917 -0.611183,0.52917 -0.07276,0 0.08321,-0.23813 0.346599,-0.52917 z m 10.451042,0 c 0,-0.19402 0.07937,-0.27339 0.17639,-0.17639 0.09701,0.097 0.09701,0.25577 0,0.35279 -0.09701,0.097 -0.17639,0.0176 -0.17639,-0.1764 z m -0.264583,-0.66146 c 0,-0.0728 0.05953,-0.13229 0.132291,-0.13229 0.07276,0 0.132292,0.0595 0.132292,0.13229 0,0.0728 -0.05953,0.1323 -0.132292,0.1323 -0.07276,0 -0.132291,-0.0595 -0.132291,-0.1323 z m 3.481358,-0.66145 c 0,-0.36381 0.06006,-0.51263 0.133453,-0.33073 0.0734,0.1819 0.0734,0.47955 0,0.66146 -0.0734,0.1819 -0.133453,0.0331 -0.133453,-0.33073 z m -12.477192,0.18179 c 0,-0.0455 0.386953,-0.43249 0.859896,-0.85989 0.859896,-0.77711 0.859896,-0.77711 0.08279,0.0828 -0.724371,0.80156 -0.942687,0.98153 -0.942687,0.77711 z m 8.182057,-0.6124 c -0.352787,-0.38235 -0.998619,-0.85395 -1.435182,-1.04799 -0.436562,-0.19402 -0.608523,-0.35743 -0.382132,-0.36314 0.477769,-0.0119 2.117093,1.14088 2.438254,1.71476 0.328756,0.58746 0.09641,0.47384 -0.62094,-0.30363 z m 4.517943,-0.62773 c 0,-0.19402 0.07937,-0.27339 0.17639,-0.17639 0.09701,0.097 0.09701,0.25577 0,0.35279 -0.09701,0.097 -0.17639,0.0176 -0.17639,-0.1764 z m 22.286971,-0.8015 c -0.475237,-0.4323 -0.765402,-0.786 -0.644813,-0.786 0.120591,0 0.561464,0.35719 0.979717,0.79375 0.972445,1.01502 0.784683,1.01066 -0.334904,-0.008 z m -33.134887,0.40463 c 0,-0.0728 0.05953,-0.13229 0.132291,-0.13229 0.07276,0 0.132292,0.0595 0.132292,0.13229 0,0.0728 -0.05953,0.13229 -0.132292,0.13229 -0.07276,0 -0.132291,-0.0595 -0.132291,-0.13229 z m 0.79375,-0.39688 c 0.218281,-0.14107 0.575468,-0.24992 0.79375,-0.24193 0.261688,0.01 0.216625,0.092 -0.132292,0.24193 -0.727363,0.31256 -1.145109,0.31256 -0.661458,0 z m 10.31875,0.0156 c 0,-0.13692 0.1177,-0.3217 0.261554,-0.4106 0.149981,-0.0927 0.194336,0.0135 0.103983,0.24897 -0.175892,0.45836 -0.365537,0.54221 -0.365537,0.16163 z m 19.645312,-0.99173 c 0.254662,-0.0666 0.67138,-0.0666 0.926042,0 0.254661,0.0665 0.0463,0.12099 -0.463021,0.12099 -0.509323,0 -0.717682,-0.0545 -0.463021,-0.12099 z m -18.455754,-0.5697 c 0.288372,-0.34092 0.76377,-0.74245 1.056439,-0.89228 0.561952,-0.28774 0.480108,-0.19908 -0.788897,0.8546 -0.763963,0.63434 -0.773388,0.63566 -0.267542,0.0377 z m 15.214608,-0.43852 c 0,-0.0728 0.05953,-0.13229 0.132292,-0.13229 0.07276,0 0.132292,0.0595 0.132292,0.13229 0,0.0728 -0.05953,0.13229 -0.132292,0.13229 -0.07276,0 -0.132292,-0.0595 -0.132292,-0.13229 z m -13.49375,-0.79375 c 0,-0.0728 0.05953,-0.13229 0.132292,-0.13229 0.07276,0 0.132292,0.0595 0.132292,0.13229 0,0.0728 -0.05953,0.13229 -0.132292,0.13229 -0.07276,0 -0.132292,-0.0595 -0.132292,-0.13229 z m 0.529167,-0.26459 c 0,-0.0728 0.05953,-0.13229 0.132292,-0.13229 0.07276,0 0.132291,0.0595 0.132291,0.13229 0,0.0728 -0.05953,0.1323 -0.132291,0.1323 -0.07276,0 -0.132292,-0.0595 -0.132292,-0.1323 z m 10.847917,-0.42052 c -0.569852,-0.46609 -0.581052,-0.50173 -0.08088,-0.25726 0.319318,0.15605 0.653764,0.40217 0.743217,0.54692 0.238808,0.3864 0.07843,0.31626 -0.662336,-0.28966 z m -10.054167,0.0237 c 0.218281,-0.14108 0.515938,-0.25649 0.661458,-0.25649 0.145521,0 0.08599,0.11541 -0.132291,0.25649 -0.218282,0.14108 -0.515938,0.25649 -0.661459,0.25649 -0.14552,0 -0.08599,-0.11541 0.132292,-0.25649 z m 1.322917,-0.39688 c 0,-0.0728 0.05953,-0.13229 0.132291,-0.13229 0.07276,0 0.132292,0.0595 0.132292,0.13229 0,0.0728 -0.05953,0.1323 -0.132292,0.1323 -0.07276,0 -0.132291,-0.0595 -0.132291,-0.1323 z m 0.61736,-0.30868 c 0.09701,-0.097 0.255765,-0.097 0.352779,0 0.09701,0.097 0.01765,0.17639 -0.176389,0.17639 -0.194027,0 -0.273402,-0.0794 -0.17639,-0.17639 z m 1.322917,-0.26459 c 0.09701,-0.097 0.255764,-0.097 0.352779,0 0.09701,0.097 0.01765,0.1764 -0.17639,0.1764 -0.194027,0 -0.273402,-0.0794 -0.176389,-0.1764 z m 2.645833,-0.26458 c 0.09701,-0.097 0.255765,-0.097 0.352779,0 0.09701,0.097 0.01765,0.1764 -0.176389,0.1764 -0.194027,0 -0.273402,-0.0794 -0.17639,-0.1764 z m 0.705556,0.0441 c 0,-0.0728 0.05953,-0.13229 0.132292,-0.13229 0.07276,0 0.132292,0.0595 0.132292,0.13229 0,0.0728 -0.05953,0.1323 -0.132292,0.1323 -0.07276,0 -0.132292,-0.0595 -0.132292,-0.1323 z"
         id="path12682"
         sodipodi:nodetypes="sssssssssssssssssssssssssssssssssssssscsssssssssssssssssssssssscsssssssssssssssssssssssssssssssssssssssssssssssssssssssssssssssssssssssssssssssssssssssssssssssssssssssssssssssssssssssssssssssssssssssssssssssssssssssssssssssssssssssssssssssssssssssssssssssssssssssssssssssssssssssssssssssssssssssssssssssssssssssssssssscssssssccssssssssssssssssssssssssssssssssssssssssssscssssssssssssssssssssssssssccsssssssssssssssssssssssssssssssssssssssssssssssscssssssssssssssssssssssssssssssssssssssssssssssssssssssssssssssssssssssssscsssssssssssssssssssssssssssssssssssssssssssssssssssscsssssscssccsssssscssssssccscssssssssssssssssssssssssssssssssssssssssssssssssssss" />
    </g>
  </g>
</svg>
