<?xml version="1.0" encoding="UTF-8" standalone="no"?>
<svg
   xmlns:dc="http://purl.org/dc/elements/1.1/"
   xmlns:cc="http://creativecommons.org/ns#"
   xmlns:rdf="http://www.w3.org/1999/02/22-rdf-syntax-ns#"
   xmlns:svg="http://www.w3.org/2000/svg"
   xmlns="http://www.w3.org/2000/svg"
   xmlns:sodipodi="http://sodipodi.sourceforge.net/DTD/sodipodi-0.dtd"
   xmlns:inkscape="http://www.inkscape.org/namespaces/inkscape"
   width="210mm"
   height="297mm"
   viewBox="0 0 210 297"
   version="1.1"
   id="svg8"
   inkscape:version="1.0.1 (3bc2e813f5, 2020-09-07)"
   sodipodi:docname="fracking.svg">
  <defs
     id="defs2" />
  <sodipodi:namedview
     id="base"
     pagecolor="#ffffff"
     bordercolor="#666666"
     borderopacity="1.0"
     inkscape:pageopacity="0.0"
     inkscape:pageshadow="2"
     inkscape:zoom="0.7"
     inkscape:cx="493.69204"
     inkscape:cy="330.10614"
     inkscape:document-units="mm"
     inkscape:current-layer="layer1"
     inkscape:document-rotation="0"
     showgrid="false"
     inkscape:window-width="1516"
     inkscape:window-height="1050"
     inkscape:window-x="38"
     inkscape:window-y="0"
     inkscape:window-maximized="0" />
  <metadata
     id="metadata5">
    <rdf:RDF>
      <cc:Work
         rdf:about="">
        <dc:format>image/svg+xml</dc:format>
        <dc:type
           rdf:resource="http://purl.org/dc/dcmitype/StillImage" />
        <dc:title></dc:title>
      </cc:Work>
    </rdf:RDF>
  </metadata>
  <g
     inkscape:label="Capa 1"
     inkscape:groupmode="layer"
     id="layer1">
    <path
       style="fill:#ff0000;stroke-width:1"
       d="m 129.57024,215.72545 c -5.89359,0.0522 -12.50156,-0.01 -14.68438,-0.13804 -2.18281,-0.1281 -5.93328,-0.41985 -8.33437,-0.64835 -2.40109,-0.22849 -5.73484,-0.59346 -7.408333,-0.81105 -1.67349,-0.2176 -5.066771,-0.75723 -7.540625,-1.19919 -2.473854,-0.44196 -5.807604,-1.09992 -7.408333,-1.46213 -1.600729,-0.36222 -4.574577,-1.13782 -6.608548,-1.72358 -2.033974,-0.58575 -5.070067,-1.60218 -6.746874,-2.25874 -1.676811,-0.65655 -3.832879,-1.65321 -4.791266,-2.2148 -0.958389,-0.5616 -2.173623,-1.49826 -2.70052,-2.08147 -0.526899,-0.58322 -1.229524,-1.57177 -1.561388,-2.19679 -0.505047,-0.95118 -0.603943,-1.54608 -0.606771,-3.64994 -0.0029,-2.1179 0.09587,-2.71515 0.627171,-3.79435 0.346802,-0.70445 1.11429,-1.74563 1.705525,-2.31375 0.591235,-0.56811 1.289753,-1.1011 1.55226,-1.18441 0.450691,-0.14305 0.477287,-0.81589 0.477287,-12.07533 v -11.92384 l -1.686092,-1.64511 c -1.271915,-1.241 -1.829842,-2.02846 -2.271299,-3.20572 -0.41433,-1.10492 -0.588169,-2.16164 -0.595342,-3.61895 -0.0088,-1.79625 0.09862,-2.27924 0.843973,-3.79327 0.636201,-1.29231 1.218007,-2.01597 2.280425,-2.83646 l 1.426319,-1.10152 0.0011,-26.10023 0.0011,-26.100234 -1.810441,-1.813308 c -1.38848,-1.390679 -1.919864,-2.143869 -2.279925,-3.231584 -0.352957,-1.066255 -0.44214,-1.990227 -0.359312,-3.722629 0.09277,-1.940407 0.230251,-2.510375 0.870463,-3.608808 0.418158,-0.71745 1.245666,-1.750938 1.838904,-2.296642 0.593241,-0.545703 1.227498,-0.992187 1.409465,-0.992187 0.260019,0 0.330131,-2.619687 0.327506,-12.236979 l -0.0033,-12.236978 -1.388346,-1.217316 c -0.76359,-0.669523 -1.72086,-1.828255 -2.127268,-2.57496 -0.406408,-0.746704 -0.855554,-2.081855 -0.998101,-2.967002 -0.178403,-1.107784 -0.167635,-2.114196 0.03455,-3.229203 0.161554,-0.890915 0.569785,-2.16313 0.907182,-2.827141 0.337394,-0.664012 1.061418,-1.667365 1.608941,-2.229671 0.547521,-0.562308 1.601645,-1.405696 2.342499,-1.874199 0.740855,-0.468503 2.239976,-1.219351 3.331382,-1.668553 1.091406,-0.449199 3.234531,-1.18795 4.7625,-1.641668 1.527969,-0.45372 4.028281,-1.10862 5.55625,-1.455335 1.527968,-0.346713 3.730625,-0.817544 4.894791,-1.046289 1.164167,-0.228746 4.225086,-0.711277 6.80204,-1.07229 2.576957,-0.361016 7.041801,-0.895049 9.921871,-1.186736 2.88008,-0.29169 7.55822,-0.651243 10.39588,-0.799007 2.83765,-0.147765 9.92187,-0.268663 15.74271,-0.268663 5.82083,0 12.90505,0.119427 15.7427,0.265398 2.83766,0.145968 7.12391,0.45077 9.525,0.677338 2.4011,0.226566 6.56772,0.701599 9.25917,1.055624 2.69145,0.354026 6.50145,0.948918 8.46667,1.321983 1.96521,0.373062 4.98627,1.033322 6.71345,1.467241 1.72718,0.433922 4.40608,1.211202 5.95312,1.72729 1.54704,0.516086 3.73053,1.414389 4.85221,1.996223 1.12168,0.581837 2.57805,1.596528 3.23639,2.254869 0.65835,0.658339 1.52061,1.858439 1.91614,2.666886 0.56737,1.159651 0.74127,1.949104 0.82389,3.740251 0.0863,1.870302 0.001,2.550072 -0.48409,3.857847 -0.45397,1.223936 -1.00513,2.001887 -2.40663,3.396922 l -1.81792,1.809421 v 11.854307 11.854304 l 1.32651,1.01161 c 0.72957,0.556384 1.63071,1.450578 2.00252,1.987098 0.37181,0.536519 0.84644,1.541777 1.05474,2.2339 0.2083,0.692126 0.37873,2.008929 0.37873,2.926228 0,1.033214 -0.20626,2.219082 -0.54207,3.116615 -0.32689,0.873701 -1.03582,1.965909 -1.78594,2.751521 -0.68413,0.716499 -1.48199,1.429834 -1.77304,1.585192 -0.52307,0.279212 -0.52988,0.585171 -0.59132,26.561004 l -0.0622,26.27854 1.29363,0.87532 c 0.7115,0.48142 1.60123,1.31917 1.97718,1.86166 0.37595,0.5425 0.87801,1.5571 1.1157,2.25467 0.31333,0.91958 0.39938,1.86268 0.31296,3.43 -0.0909,1.64891 -0.28384,2.48322 -0.81328,3.51719 -0.38922,0.76015 -1.39684,1.99148 -2.29412,2.80347 l -1.60004,1.44796 0.0124,11.74861 0.0124,11.74862 1.24438,0.88913 c 0.68441,0.48902 1.57538,1.31646 1.97995,1.83876 0.40456,0.5223 0.92508,1.60155 1.15671,2.39833 0.28119,0.96726 0.37889,2.03934 0.29398,3.22604 -0.0763,1.0667 -0.36292,2.26436 -0.7168,2.99536 -0.32429,0.66991 -1.20175,1.81742 -1.94991,2.55002 -0.92684,0.90758 -2.20517,1.73962 -4.01179,2.61118 -1.45833,0.70355 -4.08026,1.76576 -5.82651,2.36047 -1.74625,0.59472 -4.73399,1.50226 -6.63941,2.01676 -1.90542,0.51449 -5.53683,1.34501 -8.06979,1.84558 -2.53296,0.50057 -6.33179,1.15444 -8.44184,1.45304 -2.11006,0.29861 -4.89274,0.66959 -6.18375,0.82442 -1.29101,0.15482 -4.44617,0.46236 -7.01146,0.68341 -2.8388,0.24463 -8.85783,0.43905 -15.37979,0.49679 z m -0.13229,-5.28808 c 10.7655,-0.0626 13.48589,-0.15894 17.85937,-0.63265 2.83766,-0.30735 6.88578,-0.80275 8.99583,-1.10089 2.11006,-0.29814 5.68193,-0.90027 7.9375,-1.33806 2.25558,-0.4378 5.68873,-1.21415 7.62923,-1.72523 1.94051,-0.51107 5.1552,-1.46414 7.14375,-2.11793 1.98856,-0.65379 4.57867,-1.65131 5.75581,-2.21672 1.33967,-0.64349 2.50255,-1.42905 3.10885,-2.10016 0.66856,-0.74001 0.96861,-1.32186 0.96861,-1.87827 0,-0.44337 -0.18429,-1.1625 -0.40953,-1.59808 l -0.40954,-0.79195 -1.15342,1.01528 c -0.63438,0.55841 -2.02767,1.44156 -3.09619,1.96257 -1.06853,0.521 -3.07387,1.30932 -4.45632,1.75182 -1.38245,0.4425 -3.46604,1.04542 -4.63021,1.33983 -1.16416,0.2944 -3.9026,0.89259 -6.08541,1.32929 -2.18281,0.4367 -5.09985,0.97191 -6.48229,1.18935 -1.38245,0.21745 -4.06877,0.58215 -5.9696,0.81045 -1.90082,0.2283 -5.41317,0.59029 -7.8052,0.8044 -2.39204,0.21412 -8.20015,0.52855 -12.90692,0.69872 -6.55769,0.2371 -10.38925,0.23634 -16.39423,-0.003 -4.31006,-0.17198 -10.40078,-0.55146 -13.53495,-0.84329 -3.13416,-0.29183 -7.484412,-0.75929 -9.667225,-1.03881 -2.182812,-0.27951 -5.635625,-0.81159 -7.672916,-1.18239 -2.037292,-0.3708 -5.192448,-1.04482 -7.011458,-1.49784 -1.81901,-0.453 -4.259792,-1.11739 -5.423958,-1.4764 -1.164167,-0.35902 -3.196802,-1.1777 -4.516967,-1.81929 -1.320167,-0.6416 -2.884244,-1.58078 -3.475728,-2.08707 l -1.075425,-0.92052 -0.328496,0.79305 c -0.184216,0.44474 -0.259858,1.21601 -0.172225,1.75603 0.08595,0.52964 0.488159,1.31229 0.893805,1.73923 0.405646,0.42693 1.928161,1.35383 3.383369,2.05977 1.455209,0.70594 3.919567,1.70459 5.476351,2.21924 1.556787,0.51463 4.890537,1.4697 7.408333,2.12236 2.517799,0.65266 6.525741,1.54868 8.906539,1.99116 2.380797,0.44248 6.607516,1.09364 9.392711,1.44703 2.78519,0.35339 6.84992,0.77279 9.03273,0.93199 2.18281,0.15921 4.445,0.33258 5.02708,0.38527 0.58209,0.0527 6.77334,0.0626 13.75834,0.022 z M 78.637949,194.59214 c 0.171323,-0.0473 0.264584,-4.21535 0.264584,-11.8249 v -11.75191 l -1.322917,-0.44181 c -0.727604,-0.243 -1.413438,-0.45136 -1.524079,-0.46302 -0.110638,-0.0117 -0.17017,5.30346 -0.132292,11.8114 l 0.06887,11.83262 1.190625,0.45531 c 0.654844,0.25042 1.309687,0.42246 1.455208,0.38231 z m 100.217901,-0.59907 c 1.0512,-0.37734 2.47681,-0.97097 3.16803,-1.31918 l 1.25677,-0.6331 v -11.50492 c 0,-6.32771 -0.0745,-11.50492 -0.16547,-11.50492 -0.091,0 -1.51631,0.44344 -3.16733,0.98543 l -3.00186,0.98544 -0.0738,3.18175 c -0.0406,1.74996 -0.0409,7.07736 -7.9e-4,11.83866 l 0.0731,8.6569 1.91126,-0.68606 z M 73.150719,181.23133 c 0.06093,-9.91069 0.02016,-11.28031 -0.347866,-11.68697 -0.229286,-0.25336 -0.633262,-0.51724 -0.897724,-0.5864 -0.458819,-0.11998 -0.482287,0.39079 -0.512413,11.15227 l -0.03157,11.27801 0.860277,0.5347 0.860277,0.5347 z m -1.127353,-10.61288 c -0.07276,0 -0.132291,-0.0595 -0.132291,-0.13229 0,-0.0728 0.05953,-0.13229 0.132291,-0.13229 0.07276,0 0.132292,0.0595 0.132292,0.13229 0,0.0728 -0.05953,0.13229 -0.132292,0.13229 z m 0.627708,-0.53322 c -0.0542,-0.002 -0.273687,-0.11482 -0.487754,-0.2502 -0.214066,-0.13537 -0.320331,-0.31502 -0.23614,-0.39921 0.08419,-0.0842 0.303678,0.0284 0.487754,0.25019 0.184076,0.2218 0.29034,0.40145 0.23614,0.39922 z m 54.405626,0.49137 c 4.07458,0.0202 9.73005,-0.082 12.5677,-0.22709 2.83766,-0.14514 7.77875,-0.50748 10.98021,-0.8052 3.20146,-0.29773 7.13052,-0.71941 8.73125,-0.93707 1.60073,-0.21766 4.63682,-0.68495 6.74688,-1.03842 2.11005,-0.35347 5.14614,-0.93262 6.74687,-1.287 1.60073,-0.35437 4.04151,-0.96194 5.42396,-1.35015 1.38245,-0.38821 3.40651,-1.07506 4.49792,-1.52633 1.0914,-0.45127 2.56192,-1.17365 3.26781,-1.60529 0.70589,-0.43164 1.62862,-1.26132 2.05052,-1.84373 0.5355,-0.73924 0.76708,-1.37171 0.76708,-2.09496 0,-0.56982 -0.13519,-1.29609 -0.30042,-1.61395 -0.16523,-0.31785 -0.33594,-0.61963 -0.37934,-0.67062 -0.0434,-0.051 -0.53329,0.27128 -1.08864,0.71615 -0.55535,0.44488 -1.90301,1.22074 -2.9948,1.72413 -1.0918,0.5034 -3.47305,1.34069 -5.29167,1.86064 -1.81862,0.51996 -5.98549,1.4742 -9.25971,2.12053 -3.27422,0.64634 -8.33437,1.47728 -11.24479,1.84654 -2.91042,0.36926 -7.24273,0.8532 -9.62736,1.07542 -2.38463,0.22222 -7.20667,0.53916 -10.71563,0.70432 -3.78358,0.17808 -9.7178,0.23368 -14.58201,0.13663 -4.51115,-0.09 -9.86896,-0.28534 -11.90625,-0.43407 -2.03729,-0.14873 -6.38307,-0.56805 -9.65729,-0.93182 -3.274219,-0.36377 -8.155781,-1.02578 -10.847916,-1.47114 -2.692136,-0.44537 -6.323542,-1.09902 -8.069792,-1.45257 -1.746249,-0.35354 -4.663281,-1.06792 -6.482291,-1.58749 -1.81901,-0.51958 -4.404553,-1.46258 -5.745652,-2.09555 -1.341098,-0.63297 -2.740567,-1.45306 -3.10993,-1.82242 l -0.671568,-0.67157 -0.374209,0.58436 c -0.205816,0.3214 -0.407265,0.82249 -0.447664,1.11353 -0.0404,0.29104 0.01032,0.95176 0.112728,1.46825 0.121148,0.61106 0.578271,1.31097 1.308635,2.0037 0.617349,0.58552 1.456825,1.27156 1.8655,1.52452 0.408675,0.25296 1.777894,0.85937 3.042708,1.34757 1.264814,0.48821 3.430754,1.20553 4.813202,1.59404 1.382448,0.38852 4.120885,1.04607 6.085416,1.46124 1.964532,0.41516 5.060156,0.99738 6.879167,1.29382 1.81901,0.29643 5.271822,0.77575 7.672916,1.06515 2.40109,0.28939 6.38969,0.71516 8.86354,0.94614 2.47386,0.23097 6.40292,0.51513 8.73125,0.63146 2.32833,0.11632 7.56708,0.22806 11.64167,0.2483 z M 78.836387,154.82855 c 0.10914,-0.064 0.196813,-11.68813 0.194826,-25.83144 -0.0021,-14.14331 -0.07279,-25.97299 -0.157329,-26.28816 -0.10671,-0.39781 -0.545584,-0.70122 -1.435164,-0.99219 -0.704797,-0.23053 -1.348375,-0.41914 -1.430173,-0.41914 -0.0818,0 -0.148723,11.83077 -0.148723,26.29061 v 26.29061 l 1.389063,0.53302 c 0.763984,0.29317 1.478359,0.48068 1.5875,0.41669 z m 98.312503,-0.0851 c 0.12004,0 1.04505,-0.28121 2.0556,-0.62492 1.01054,-0.34371 2.33873,-0.88071 2.95154,-1.19334 l 1.11418,-0.56842 0.0714,-25.16224 c 0.0393,-13.83924 0.031,-25.66662 -0.0182,-26.28307 l -0.0896,-1.120819 -3.08541,0.972889 -3.08542,0.97289 -0.0757,2.72301 c -0.0485,24.14054 -0.0398,10.69369 -0.0485,24.14054 -0.008,24.16574 -0.008,15.98811 -0.008,24.16574 0,1.08776 0.0982,1.97774 0.21824,1.97774 z M 73.149909,126.99072 c 0.03751,-14.20396 0.01754,-25.95847 -0.04441,-26.12112 -0.06194,-0.16265 -0.420058,-0.3545 -0.795814,-0.42633 -0.502441,-0.0961 -0.687173,-0.0178 -0.69823,0.29573 -0.0083,0.23448 -0.04827,11.87374 -0.08888,25.86503 l -0.07385,25.4387 0.816488,0.38669 0.816489,0.3867 z m -0.597376,-25.6931 c -0.07276,0 -0.132292,-0.0595 -0.132292,-0.13229 0,-0.0728 0.05953,-0.13229 0.132292,-0.13229 0.07276,0 0.132292,0.0595 0.132292,0.13229 0,0.0728 -0.05953,0.13229 -0.132292,0.13229 z m -0.529167,-0.26458 c -0.07276,0 -0.132291,-0.0595 -0.132291,-0.13229 0,-0.0728 0.05953,-0.1323 0.132291,-0.1323 0.07276,0 0.132292,0.0595 0.132292,0.1323 0,0.0728 -0.05953,0.13229 -0.132292,0.13229 z m 59.795834,-0.18237 c 3.34698,-0.0584 8.46666,-0.22508 11.37708,-0.37029 2.91042,-0.14521 7.73245,-0.499228 10.71562,-0.786709 2.98318,-0.28748 6.85271,-0.703328 8.59896,-0.92411 1.74625,-0.220781 5.19906,-0.760132 7.67292,-1.19856 2.47385,-0.438427 5.45041,-1.039516 6.61458,-1.335751 1.16417,-0.296233 3.24776,-0.900009 4.63021,-1.341721 1.38245,-0.441711 3.16838,-1.142984 3.96875,-1.558385 0.80036,-0.415401 1.69699,-0.966671 1.99251,-1.225044 0.29552,-0.258374 0.742,-0.764154 0.99219,-1.123956 0.25018,-0.359799 0.45488,-1.050321 0.45488,-1.534493 0,-0.484169 -0.18165,-1.231582 -0.40367,-1.660919 -0.22201,-0.429337 -0.46808,-0.780611 -0.54682,-0.780611 -0.0787,0 -0.52827,0.293748 -0.99898,0.652775 -0.47071,0.359029 -1.53696,0.954 -2.36944,1.322162 -0.83248,0.368163 -2.73136,1.031719 -4.21974,1.474565 -1.48838,0.442849 -4.4387,1.153459 -6.55628,1.579137 -2.11758,0.425677 -5.33227,1.008549 -7.14375,1.295273 -1.81148,0.286724 -5.31767,0.762463 -7.79152,1.057201 -2.47386,0.294735 -6.76011,0.720259 -9.525,0.945607 -2.7649,0.225349 -8.73752,0.521475 -13.2725,0.658059 -5.11357,0.154011 -11.43922,0.154757 -16.65399,0.0019 -4.62471,-0.135507 -10.61787,-0.431163 -13.31813,-0.657016 -2.70025,-0.225743 -6.993142,-0.644898 -9.539757,-0.931344 -2.546614,-0.286446 -5.939895,-0.706871 -7.540624,-0.934278 -1.600729,-0.227407 -4.888439,-0.814099 -7.306019,-1.303761 -2.417582,-0.489659 -5.685001,-1.265901 -7.260933,-1.72498 -1.57593,-0.459079 -3.40791,-1.084138 -4.071062,-1.38902 -0.663154,-0.304882 -1.722469,-0.903102 -2.354032,-1.32938 -0.75601,-0.510271 -1.237575,-0.685771 -1.409631,-0.513715 -0.143732,0.143732 -0.350425,0.662842 -0.45932,1.153578 -0.108891,0.490733 -0.09862,1.26997 0.02283,1.731634 0.127788,0.485788 0.728779,1.286528 1.426636,1.900809 0.663207,0.583776 2.120709,1.443511 3.238894,1.910519 1.118185,0.467008 3.28322,1.198946 4.811188,1.626529 1.527969,0.427582 3.849688,1.00113 5.159375,1.27455 1.309688,0.273421 4.167187,0.795581 6.35,1.16036 2.182812,0.364775 6.111874,0.900162 8.731249,1.189746 2.619375,0.289584 7.203286,0.722413 10.186466,0.961839 2.98317,0.23943 8.63864,0.52506 12.5677,0.63472 3.92907,0.10967 9.88219,0.15158 13.22917,0.0931 z M 78.836387,85.931283 c 0.10914,0.01127 0.198437,-5.214057 0.198437,-11.611853 0,-11.10253 -0.02259,-11.644447 -0.49603,-11.897823 C 78.26598,62.2756 77.550343,62.077398 76.94849,61.981158 l -1.094277,-0.174982 0.06895,11.586995 0.06895,11.586995 1.322917,0.465305 c 0.727604,0.255918 1.412213,0.474532 1.521354,0.485812 z m 98.821873,-0.358114 c 0.40018,-0.09427 1.82893,-0.592672 3.175,-1.107556 l 2.44739,-0.936152 V 71.928671 60.32788 l -3.175,1.071274 -3.175,1.071274 v 2.877137 c 3e-5,14.182873 3e-5,5.635798 3e-5,14.182873 v 6.214133 z M 73.015554,83.828081 c 0.10914,0.0039 0.198437,-5.112647 0.198437,-11.370043 0,-6.257395 -0.03055,-11.377082 -0.06789,-11.377082 -0.03734,0 -0.454059,-0.110752 -0.926041,-0.246113 l -0.85815,-0.246115 v 11.16504 11.16504 l 0.727604,0.451115 c 0.400182,0.248116 0.816901,0.454287 0.926042,0.458158 z m 53.908856,-22.78898 c 6.33015,0.02024 13.83109,-0.08038 16.66874,-0.223607 2.83766,-0.143222 6.76672,-0.386175 8.73125,-0.539901 1.96454,-0.153723 5.65547,-0.518274 8.20209,-0.810109 2.54661,-0.291835 6.10234,-0.764619 7.90162,-1.050629 1.79928,-0.286009 4.41865,-0.767685 5.82083,-1.070393 1.40218,-0.302707 3.89039,-0.955913 5.52934,-1.45157 1.63896,-0.49566 3.7646,-1.271934 4.72364,-1.725059 0.95904,-0.453126 2.15423,-1.18431 2.65599,-1.624854 0.50175,-0.440545 1.08479,-1.134592 1.29563,-1.542325 0.21085,-0.407736 0.38336,-1.169879 0.38336,-1.693656 0,-0.523777 -0.19337,-1.326269 -0.42972,-1.783318 -0.36035,-0.696841 -0.47782,-0.767734 -0.72761,-0.439116 -0.16383,0.215535 -0.7233,0.712528 -1.24326,1.104429 -0.51997,0.391898 -1.82966,1.078474 -2.91042,1.52572 -1.08077,0.447249 -3.51284,1.217202 -5.40461,1.71101 -1.89177,0.493808 -5.00406,1.198668 -6.9162,1.566354 -1.91214,0.367687 -5.72214,0.966502 -8.46667,1.330701 -2.74453,0.364202 -6.95458,0.840346 -9.35567,1.058098 -2.4011,0.217755 -7.28266,0.533275 -10.84792,0.701161 -4.10482,0.193292 -11.09168,0.24859 -19.05,0.150768 -7.06626,-0.08686 -15.05783,-0.335068 -18.25625,-0.567023 -3.12869,-0.226896 -7.65307,-0.651923 -10.054163,-0.944504 -2.401094,-0.292579 -6.11025,-0.820762 -8.24257,-1.17374 -2.132316,-0.352975 -5.287472,-0.958051 -7.011458,-1.344609 -1.723982,-0.386559 -4.146544,-0.992654 -5.383471,-1.346875 -1.236927,-0.354222 -3.088579,-1.038961 -4.114784,-1.52164 -1.026202,-0.482682 -2.291786,-1.251601 -2.812407,-1.708711 l -0.946581,-0.831112 -0.278707,0.727038 c -0.153289,0.39987 -0.353221,0.991698 -0.444294,1.315175 -0.09706,0.34475 0.04864,1.072433 0.352076,1.758395 0.323617,0.731591 1.017768,1.565568 1.85184,2.224865 0.733801,0.580035 2.225609,1.425712 3.315126,1.87928 1.089519,0.453567 3.377972,1.184878 5.085455,1.625131 1.707481,0.440256 4.709753,1.096944 6.671715,1.459304 1.961962,0.36236 5.901631,0.948529 8.754821,1.302597 2.853187,0.354065 7.39027,0.832884 10.082402,1.064045 2.69214,0.231159 6.79979,0.517398 9.12813,0.636088 2.32833,0.118687 9.41255,0.232354 15.74271,0.252592 z M 102.05357,49.932753 c 2.42836,0.01929 5.14877,-0.125346 6.66983,-0.354626 1.41283,-0.212966 2.99957,-0.567206 3.52609,-0.787196 0.64262,-0.268505 0.92887,-0.544618 0.8708,-0.839962 -0.0476,-0.241986 -0.38417,-0.661355 -0.74797,-0.931937 -0.3638,-0.270579 -1.49489,-0.674327 -2.51354,-0.897218 -1.01864,-0.222893 -3.69755,-0.474022 -5.95312,-0.558064 -3.00221,-0.111861 -4.916314,-0.0412 -7.143753,0.263699 -1.67349,0.229079 -3.464928,0.539039 -3.980971,0.688803 -0.516046,0.149765 -1.17089,0.445024 -1.455208,0.65613 -0.410734,0.304969 -0.45796,0.482148 -0.229852,0.862349 0.157901,0.263183 0.8851,0.680376 1.615998,0.927094 0.730901,0.246716 2.209051,0.558776 3.284784,0.693462 1.075729,0.134687 3.801342,0.259546 6.056912,0.277466 z m 80.36719,-3.963738 c 0.0364,0.01688 0.0661,-0.08335 0.0661,-0.22274 0,-0.139385 -0.53725,-0.56828 -1.19389,-0.953095 -0.65664,-0.384815 -1.3772,-0.629325 -1.60124,-0.543351 -0.22404,0.08597 -0.34435,0.05437 -0.26734,-0.07023 0.077,-0.124598 -0.80375,-0.599485 -1.95724,-1.055301 -1.1535,-0.455819 -2.22235,-0.82876 -2.37523,-0.82876 -0.15289,0 -0.27797,0.119062 -0.27797,0.264583 0,0.145521 -0.23121,0.03338 -0.51379,-0.2492 -0.28258,-0.282583 -1.32038,-0.762918 -2.30623,-1.067417 -0.98585,-0.304495 -3.34425,-0.839321 -5.2409,-1.188503 -1.89665,-0.349178 -5.77018,-0.933217 -8.60783,-1.297863 -2.83766,-0.364649 -6.64766,-0.790466 -8.46667,-0.946266 -1.81901,-0.155797 -5.15276,-0.406927 -7.40833,-0.558062 -2.25557,-0.151135 -8.80401,-0.275164 -14.55208,-0.275616 -5.74808,-5.3e-4 -12.59417,0.128336 -15.21355,0.286197 -2.61937,0.157858 -6.54843,0.46492 -8.73125,0.68236 -2.18281,0.21744 -6.171401,0.692862 -8.863536,1.056497 -2.692136,0.363636 -6.144948,0.905526 -7.672917,1.204201 -1.527968,0.298672 -3.730625,0.781672 -4.894791,1.073332 -1.164167,0.291659 -2.682214,0.773243 -3.373438,1.070187 -0.691223,0.296945 -1.25677,0.633153 -1.25677,0.74713 0,0.113978 -0.220377,0.149604 -0.489723,0.07917 -0.269348,-0.07043 -0.671893,0.0541 -0.894545,0.276755 -0.22265,0.222652 -0.466987,0.342653 -0.54297,0.26667 -0.07598,-0.07598 -0.596173,0.09561 -1.155976,0.381321 -0.559805,0.285707 -1.246311,0.772112 -1.525571,1.080894 l -0.507741,0.561427 0.904616,-0.118277 c 0.497541,-0.06505 1.725419,-0.250512 2.728621,-0.412136 1.0032,-0.161626 4.079229,-0.765783 6.835621,-1.342575 2.75639,-0.576791 7.114807,-1.343165 9.685372,-1.703051 2.570564,-0.359886 6.587431,-0.831308 8.926368,-1.047605 2.33894,-0.216294 6.74426,-0.530272 9.78959,-0.697724 3.5506,-0.195236 10.42524,-0.254101 19.163,-0.164082 8.9311,0.09201 15.35816,0.284634 18.65313,0.559044 2.76489,0.230267 6.63442,0.601252 8.59895,0.824415 1.96453,0.223163 5.17922,0.647708 7.14375,0.943432 1.96453,0.295728 5.17922,0.881002 7.14375,1.300613 1.96453,0.41961 4.82203,1.003014 6.35,1.296453 1.52797,0.293438 3.01625,0.583689 3.30729,0.645004 0.29105,0.06131 0.55894,0.12529 0.59532,0.142171 z M 75.727533,44.941373 c -0.07276,0 -0.132292,-0.05953 -0.132292,-0.132292 0,-0.07276 0.05953,-0.132291 0.132292,-0.132291 0.07276,0 0.132291,0.05953 0.132291,0.132291 0,0.07276 -0.05953,0.132292 -0.132291,0.132292 z m 0.496771,0 c -0.05494,0 -0.0999,-0.04495 -0.0999,-0.0999 0,-0.05494 0.208359,-0.2633 0.463021,-0.463021 0.419645,-0.329107 0.429003,-0.319749 0.0999,0.0999 -0.199721,0.254662 -0.40808,0.463021 -0.463021,0.463021 z m -0.232188,-0.529166 c -0.07276,0 -0.132292,-0.05953 -0.132292,-0.132292 0,-0.07276 0.05953,-0.132292 0.132292,-0.132292 0.07276,0 0.132292,0.05953 0.132292,0.132292 0,0.07276 -0.05953,0.132292 -0.132292,0.132292 z m 0.926042,-0.529167 c -0.145521,0 -0.264584,-0.119063 -0.264584,-0.264583 0,-0.145521 0.119063,-0.264584 0.264584,-0.264584 0.145521,0 0.264583,0.119063 0.264583,0.264584 0,0.14552 -0.119062,0.264583 -0.264583,0.264583 z"
       id="path847"
       sodipodi:nodetypes="scssssssssscsssscsscsscccssssssccssssssssssssssssssssssssssccccsssssssscsssssscccssssssssssssssscssssssssscssssssssscssssssscssssssssssccsscscscssssscssscscccssssscccsssssscssscscsssssssssssssssssssssssssscsssssssssssssscsssscsscsscccccccccccssccscccssssssssssssssssssssssssssssssssccssssssssssssssssssssssscccsssssccccccccssssscccssssssssssssssssssssssssssssssscssssssssssssssssssssssssssssssssssssssscsssssssssssscsssssssssssssssssssssssssssssssssss" />
  </g>
</svg>
