<?xml version="1.0" encoding="UTF-8" standalone="no"?>
<svg
   xmlns:dc="http://purl.org/dc/elements/1.1/"
   xmlns:cc="http://creativecommons.org/ns#"
   xmlns:rdf="http://www.w3.org/1999/02/22-rdf-syntax-ns#"
   xmlns:svg="http://www.w3.org/2000/svg"
   xmlns="http://www.w3.org/2000/svg"
   xmlns:sodipodi="http://sodipodi.sourceforge.net/DTD/sodipodi-0.dtd"
   xmlns:inkscape="http://www.inkscape.org/namespaces/inkscape"
   width="210mm"
   height="297mm"
   viewBox="0 0 210 297"
   version="1.1"
   id="svg8"
   inkscape:version="1.0.1 (3bc2e813f5, 2020-09-07)"
   sodipodi:docname="mobile devices.svg">
  <defs
     id="defs2" />
  <sodipodi:namedview
     id="base"
     pagecolor="#ffffff"
     bordercolor="#666666"
     borderopacity="1.0"
     inkscape:pageopacity="0.0"
     inkscape:pageshadow="2"
     inkscape:zoom="0.40340599"
     inkscape:cx="-255.99783"
     inkscape:cy="786.01099"
     inkscape:document-units="mm"
     inkscape:current-layer="layer1"
     inkscape:document-rotation="0"
     showgrid="false"
     inkscape:window-width="1920"
     inkscape:window-height="1046"
     inkscape:window-x="-11"
     inkscape:window-y="-11"
     inkscape:window-maximized="1" />
  <metadata
     id="metadata5">
    <rdf:RDF>
      <cc:Work
         rdf:about="">
        <dc:format>image/svg+xml</dc:format>
        <dc:type
           rdf:resource="http://purl.org/dc/dcmitype/StillImage" />
        <dc:title></dc:title>
      </cc:Work>
    </rdf:RDF>
  </metadata>
  <g
     inkscape:label="Capa 1"
     inkscape:groupmode="layer"
     id="layer1">
    <path
       style="fill:#8800aa;stroke-width:1"
       d="m 139.00074,200.50785 c -5.1782,-2.0315 -5.84528,-2.811 -7.836,-5.176 -0.30798,-0.27722 -0.90872,-1.00961 -1.33497,-1.62755 l -0.775,-1.12351 -34.449927,0.003 c -19.767586,0.002 -34.799686,-0.0985 -35.270581,-0.23582 -2.306047,-0.67236 -4.348186,-2.94941 -4.857953,-5.41677 -0.196411,-0.95067 -0.260694,-23.26131 -0.212043,-73.59549 l 0.06982,-72.231242 0.557122,-1.204069 c 0.811702,-1.754275 2.027643,-3.009079 3.608139,-3.723457 l 1.390989,-0.628737 h 49.218084 49.21808 l 1.76543,0.869129 c 1.85243,0.911964 3.02327,2.109148 3.84954,3.93618 0.4211,0.931122 0.46522,2.708743 0.53076,21.388439 l 0.0715,20.372916 16.6764,0.05115 c 18.16466,0.05571 18.08128,0.04933 20.95275,1.60333 2.68263,1.451801 5.12273,4.950148 5.74635,8.238508 0.36913,1.946392 0.37304,96.506943 0.004,98.483913 -0.41038,2.1989 -1.72711,4.6089 -3.47084,6.35262 -0.85515,0.85517 -1.55483,1.61438 -1.55483,1.68714 -1.75791,1.23639 -3.31808,1.47995 -4.07722,1.68321 -2.08004,0.56229 -2.26538,0.56556 -30.29479,0.53482 -15.51107,-0.017 -28.79726,-0.12599 -29.52487,-0.24217 z m 59.79583,-4.71431 c 1.73519,-0.82377 3.47007,-2.51757 4.3547,-4.25159 0.30571,-0.59923 0.66768,-1.95052 0.80438,-3.00286 0.14647,-1.12753 0.2519,-20.88294 0.25671,-48.10126 0.009,-50.636276 0.10971,-47.415278 -1.56578,-50.056704 -0.88886,-1.401299 -2.59262,-2.721128 -4.46497,-3.458826 -1.17282,-0.462084 -2.69572,-0.488709 -29.30002,-0.512286 l -28.06291,-0.02487 -1.73536,0.812075 c -2.33324,1.091853 -3.73972,2.426419 -4.77637,4.532161 l -0.86246,1.751902 v 48.159728 48.15973 l 0.70061,1.49435 c 1.09245,2.33014 3.31123,4.2509 5.78169,5.0051 0.3638,0.11106 13.40114,0.21208 28.97187,0.22447 l 28.31041,0.0225 1.5875,-0.75365 z m -57.94374,-3.18623 c -1.99214,-0.92807 -3.53525,-2.89792 -3.64626,-4.65462 l -0.0579,-0.91643 31.71078,-0.073 31.71077,-0.073 -0.16012,1.19063 c -0.19677,1.46313 -1.2576,3.03196 -2.7681,4.09365 l -1.13981,0.80114 -27.29551,0.0623 c -26.14634,0.0597 -27.34007,0.0415 -28.35384,-0.43074 z m 27.68169,-8.49348 -31.32038,-0.13392 -0.0234,-44.58229 -0.0234,-44.582292 0.56179,-1.058333 c 0.65636,-1.236496 1.69258,-2.255903 2.9915,-2.94295 0.82821,-0.438078 1.73511,-0.498176 8.58508,-0.568915 4.21247,-0.0435 7.96294,-0.0083 8.33437,0.07813 0.3752,0.08735 1.05091,0.665842 1.52042,1.301683 1.54791,2.096286 2.23807,2.265228 9.22647,2.258537 5.2966,-0.0051 6.20286,-0.06707 7.12863,-0.487633 1.02185,-0.464217 2.77586,-2.164455 2.77586,-2.690765 0,-0.334666 17.72732,-0.34278 18.6065,-0.0085 1.05678,0.401788 2.60783,1.919639 3.12505,3.058162 0.45989,1.012325 0.48209,3.098999 0.48764,45.841326 0.005,35.6851 -0.0614,44.76762 -0.32492,44.71621 -0.1819,-0.0355 -14.42491,-0.12478 -31.65112,-0.19844 z m -58.08743,5.3751 c 1.67807,-1.23456 1.88468,-2.71601 0.69842,-4.52648 -1.23824,-1.88979 -4.45803,-1.77257 -5.47778,0.19942 -0.87161,1.68549 -0.39671,2.985 1.1441,4.40724 1.05203,0.97108 2.41753,0.8157 3.63526,-0.0802 z m 18.04967,-9.67621 0.0794,-1.52135 H 96.812907 c -30.049079,0 -31.76677,-0.025 -31.829347,-0.46302 -0.03638,-0.25467 -0.06614,-28.77005 -0.06614,-63.36753 V 51.55631 l 44.38385,-1.77e-4 44.38385,-1.77e-4 v 15.345832 15.345833 h 1.54839 1.54839 l 0.009,-13.427604 c 0.005,-7.385182 -0.0547,-15.064713 -0.13244,-17.065624 l -0.14133,-3.638021 H 109.32815 62.13929 v 66.498608 c 0,36.57424 0.07983,66.57844 0.177413,66.67602 0.09758,0.0976 15.010156,0.14719 33.139061,0.11024 l 32.961646,-0.0672 z M 110.05371,45.325402 c 0.9634,-0.498192 1.82491,-1.840082 1.82625,-2.844564 0.002,-1.750312 -1.54178,-3.360298 -3.22283,-3.360298 -2.0719,0 -3.39076,1.30984 -3.39076,3.367571 0,2.373823 2.64835,3.943408 4.78734,2.837291 z"
       id="path847"
       sodipodi:nodetypes="ccscccsscsccccssscssscsccsccssscssscsscccsssccscscccsscsccccccssscsssssscssccsssscssssccccccccscccsssccscsssc" />
  </g>
</svg>
