<?xml version="1.0" encoding="UTF-8" standalone="no"?>
<svg
   xmlns:dc="http://purl.org/dc/elements/1.1/"
   xmlns:cc="http://creativecommons.org/ns#"
   xmlns:rdf="http://www.w3.org/1999/02/22-rdf-syntax-ns#"
   xmlns:svg="http://www.w3.org/2000/svg"
   xmlns="http://www.w3.org/2000/svg"
   xmlns:sodipodi="http://sodipodi.sourceforge.net/DTD/sodipodi-0.dtd"
   xmlns:inkscape="http://www.inkscape.org/namespaces/inkscape"
   width="210mm"
   height="297mm"
   viewBox="0 0 210 297"
   version="1.1"
   id="svg1433"
   inkscape:version="1.0.1 (3bc2e813f5, 2020-09-07)"
   sodipodi:docname="plug-in electric cars.svg">
  <defs
     id="defs1427" />
  <sodipodi:namedview
     id="base"
     pagecolor="#ffffff"
     bordercolor="#666666"
     borderopacity="1.0"
     inkscape:pageopacity="0.0"
     inkscape:pageshadow="2"
     inkscape:zoom="0.49497475"
     inkscape:cx="377.56762"
     inkscape:cy="375.84642"
     inkscape:document-units="mm"
     inkscape:current-layer="layer1"
     inkscape:document-rotation="0"
     showgrid="false"
     inkscape:window-width="1516"
     inkscape:window-height="1024"
     inkscape:window-x="85"
     inkscape:window-y="240"
     inkscape:window-maximized="0" />
  <metadata
     id="metadata1430">
    <rdf:RDF>
      <cc:Work
         rdf:about="">
        <dc:format>image/svg+xml</dc:format>
        <dc:type
           rdf:resource="http://purl.org/dc/dcmitype/StillImage" />
        <dc:title></dc:title>
      </cc:Work>
    </rdf:RDF>
  </metadata>
  <g
     inkscape:label="Capa 1"
     inkscape:groupmode="layer"
     id="layer1">
    <path
       style="fill:#000000;stroke-width:1"
       d="m 60.534596,152.83409 c -1.061162,-0.0107 -2.795818,-0.23233 -3.854789,-0.49248 -1.058973,-0.26015 -2.844821,-0.92739 -3.968546,-1.48277 -1.541526,-0.76186 -2.56286,-1.53414 -4.160012,-3.14559 -1.164277,-1.17469 -2.566505,-2.9097 -3.116063,-3.85556 -0.549556,-0.94586 -1.252784,-2.49365 -1.562727,-3.43954 -0.395145,-1.2059 -0.598641,-2.6356 -0.681022,-4.78465 -0.08763,-2.2861 -0.0076,-3.49622 0.314883,-4.7625 0.237802,-0.9337 0.778145,-2.43935 1.200761,-3.34588 0.422617,-0.90653 1.119265,-2.15668 1.548106,-2.77812 0.428842,-0.62144 1.180378,-1.5481 1.670079,-2.05924 0.489699,-0.51114 1.426144,-1.36415 2.080988,-1.89558 0.654844,-0.53142 2.024062,-1.38866 3.042708,-1.90497 1.018646,-0.51632 2.685521,-1.13842 3.704167,-1.38244 1.061982,-0.2544 2.924365,-0.44345 4.365625,-0.44315 1.492612,2.7e-4 3.211025,0.18088 4.230759,0.44455 0.944469,0.24421 2.57648,0.87444 3.626691,1.40051 1.050208,0.52606 2.563794,1.50347 3.363521,2.172 0.799726,0.66853 2.051446,1.97041 2.781598,2.89306 0.730155,0.92264 1.677803,2.41885 2.105888,3.32489 0.428085,0.90604 0.914503,2.15304 1.080929,2.7711 0.166428,0.61806 0.402825,2.01749 0.525327,3.10986 0.122505,1.09236 0.120325,2.80171 -0.0048,3.79856 -0.125169,0.99685 -0.47821,2.56605 -0.784534,3.48712 -0.306324,0.92107 -1.018276,2.45782 -1.582111,3.415 -0.563837,0.95717 -1.555279,2.32994 -2.203206,3.05059 -0.647928,0.72065 -1.888805,1.82786 -2.757509,2.46047 -0.868701,0.6326 -2.37047,1.48763 -3.337263,1.90007 -0.966793,0.41243 -2.644804,0.9331 -3.728913,1.15702 -1.084109,0.22393 -2.839328,0.39838 -3.900491,0.38767 z m 1.092412,-9.92644 c 0.78886,-0.0679 1.979485,-0.36407 2.645833,-0.6581 0.666345,-0.29403 1.668309,-0.9752 2.226585,-1.51373 0.558276,-0.53852 1.329881,-1.57444 1.714677,-2.30204 0.585891,-1.10786 0.700461,-1.66702 0.704744,-3.43959 0.004,-1.67241 -0.12075,-2.3721 -0.594569,-3.33371 -0.329826,-0.66937 -1.044201,-1.6635 -1.587499,-2.20917 -0.543301,-0.54566 -1.583129,-1.30123 -2.310734,-1.67903 -1.090538,-0.56625 -1.694722,-0.68943 -3.439583,-0.70125 -1.798431,-0.0122 -2.342677,0.0966 -3.619923,0.72388 -0.826794,0.40601 -1.867858,1.15346 -2.31348,1.661 -0.445624,0.50753 -1.077992,1.4255 -1.405263,2.03991 -0.490169,0.92024 -0.59504,1.53679 -0.59504,3.49837 0,1.97674 0.103349,2.57547 0.608378,3.52452 0.334608,0.6288 1.154742,1.66678 1.822521,2.30662 0.716637,0.68666 1.713352,1.32251 2.432434,1.55176 0.67006,0.21362 1.456415,0.44817 1.747456,0.52123 0.291042,0.0731 1.1746,0.0772 1.963463,0.009 z m 99.371952,9.84123 c -2.47008,0.0989 -3.25402,0.0228 -5.18144,-0.50341 -1.24907,-0.34099 -3.09454,-1.07807 -4.10105,-1.63796 -1.05442,-0.58655 -2.61904,-1.8121 -3.69173,-2.89169 -1.02395,-1.03054 -2.37464,-2.7329 -3.00153,-3.78302 -0.6269,-1.05013 -1.3811,-2.65747 -1.676,-3.57188 -0.33707,-1.04517 -0.58561,-2.70831 -0.66931,-4.47867 -0.0974,-2.05937 -0.0161,-3.3422 0.30244,-4.77394 0.23957,-1.07682 0.79856,-2.7266 1.24219,-3.66619 0.44363,-0.93959 1.41829,-2.51394 2.16591,-3.49855 0.74761,-0.98462 2.03776,-2.32325 2.867,-2.97473 0.82924,-0.65149 2.32248,-1.59759 3.31832,-2.10246 0.99584,-0.50486 2.64405,-1.11396 3.6627,-1.35354 1.01864,-0.23959 2.92364,-0.43733 4.23333,-0.43943 1.38877,-0.002 3.15318,0.18795 4.23333,0.4563 1.01865,0.25307 2.80459,0.94798 3.96875,1.54426 1.58823,0.81347 2.68002,1.64803 4.37314,3.34281 1.57477,1.57631 2.55618,2.83414 3.24855,4.16354 0.54565,1.04768 1.22688,2.8229 1.51385,3.94492 0.33399,1.30589 0.52035,2.90558 0.51784,4.44513 -0.002,1.32279 -0.18476,3.17898 -0.40581,4.12487 -0.22104,0.94588 -0.88566,2.70002 -1.47693,3.89808 -0.68545,1.38891 -1.68531,2.83745 -2.75911,3.99725 -0.92624,1.00043 -2.46631,2.3286 -3.42238,2.9515 -0.95606,0.62291 -2.77629,1.48303 -4.04497,1.9114 -1.83076,0.61815 -2.90716,0.8029 -5.21709,0.89541 z m 0.19104,-9.82345 c 0.83269,-0.064 2.03356,-0.3606 2.6686,-0.65911 0.63505,-0.29851 1.64219,-1.02547 2.23809,-1.61547 0.5959,-0.59001 1.35663,-1.62787 1.69051,-2.30636 0.48624,-0.98811 0.60836,-1.68122 0.61358,-3.48259 0.006,-2.00578 -0.0785,-2.40242 -0.77959,-3.66824 -0.43236,-0.7806 -1.27498,-1.81988 -1.87249,-2.30949 -0.5975,-0.48962 -1.52441,-1.07323 -2.05978,-1.29692 -0.53537,-0.22369 -1.66551,-0.47905 -2.51142,-0.56747 -1.06374,-0.11118 -1.98114,-0.0283 -2.97495,0.26877 -0.79031,0.23624 -1.97643,0.82852 -2.63582,1.31617 -0.78979,0.5841 -1.50849,1.46437 -2.10623,2.57973 -0.79914,1.49116 -0.90813,1.92973 -0.91392,3.67745 -0.005,1.51452 0.13657,2.29761 0.59794,3.30729 0.33248,0.72761 1.04512,1.77949 1.58364,2.33753 0.53852,0.55803 1.42377,1.24412 1.96721,1.52463 0.54344,0.28052 1.43641,0.62262 1.98437,0.76024 0.54797,0.13761 1.67758,0.19784 2.51026,0.13384 z m 25.06104,-4.09478 c -0.80841,0 -1.36343,-0.14571 -1.58864,-0.41707 -0.23843,-0.28729 -0.3615,-1.46053 -0.39551,-3.77031 -0.0299,-2.03283 -0.22721,-4.13463 -0.50099,-5.33762 -0.24839,-1.0914 -1.03308,-3.19142 -1.74377,-4.66671 -0.71068,-1.47528 -2.01415,-3.59089 -2.89659,-4.70135 -0.88245,-1.11047 -2.5589,-2.77375 -3.72545,-3.69619 -1.16656,-0.92244 -3.15302,-2.18164 -4.41436,-2.79824 -1.26134,-0.61659 -3.19093,-1.35924 -4.28798,-1.65032 -1.20149,-0.3188 -3.25712,-0.58352 -5.16963,-0.66573 -2.19314,-0.0943 -3.87048,-0.0144 -5.42395,0.2581 -1.23693,0.21702 -3.22629,0.77277 -4.42081,1.23501 -1.19452,0.46224 -3.09952,1.44574 -4.23333,2.18554 -1.13382,0.73981 -2.90356,2.19157 -3.93275,3.22614 -1.0292,1.03458 -2.36769,2.61725 -2.97444,3.51705 -0.60675,0.8998 -1.52609,2.59788 -2.04299,3.7735 -0.51689,1.17563 -1.17978,3.05881 -1.47309,4.18484 -0.30227,1.16042 -0.57942,3.24236 -0.63978,4.80596 -0.0791,2.04872 -0.21363,2.86578 -0.52285,3.175 -0.37285,0.37285 -3.01312,0.41636 -25.26451,0.41636 -20.017434,0 -24.915027,-0.0668 -25.192117,-0.34348 -0.224102,-0.22379 -0.400294,-1.46844 -0.505627,-3.57187 -0.08892,-1.77562 -0.370821,-4.06184 -0.626457,-5.08048 -0.255632,-1.01865 -0.856577,-2.70843 -1.335431,-3.75508 -0.478853,-1.04665 -1.328044,-2.59214 -1.887085,-3.43442 -0.559043,-0.84228 -1.715238,-2.27845 -2.569321,-3.1915 -0.854083,-0.91305 -2.282833,-2.21337 -3.175,-2.88961 -0.892167,-0.67624 -2.693683,-1.73444 -4.00337,-2.35156 -1.309688,-0.61712 -3.155156,-1.32378 -4.101042,-1.57036 -0.945885,-0.24658 -3.208073,-0.51127 -5.027083,-0.58819 -2.480498,-0.1049 -3.900953,-0.0281 -5.682028,0.30732 -1.306105,0.24595 -3.295467,0.80225 -4.420806,1.23623 -1.125336,0.43398 -2.944151,1.37532 -4.041806,2.09188 -1.097659,0.71656 -2.550142,1.81114 -3.227745,2.4324 -0.677601,0.62125 -1.938359,2.02252 -2.801681,3.11393 -0.863322,1.09141 -2.029462,2.94764 -2.591424,4.12496 -0.561961,1.17732 -1.279702,3.02278 -1.594977,4.10104 -0.410874,1.40519 -0.620532,3.04548 -0.740235,5.79134 -0.166912,3.82873 -0.167391,3.83101 -0.857454,4.0729 -0.379745,0.13312 -0.985067,0.16808 -1.345157,0.0777 -0.36009,-0.0904 -1.117949,-0.53245 -1.684131,-0.9824 -0.566179,-0.44994 -1.42236,-1.37076 -1.902624,-2.04626 -0.480264,-0.6755 -1.12054,-2.00669 -1.422839,-2.95821 -0.434581,-1.36789 -0.549815,-2.42233 -0.550503,-5.03732 -5.29e-4,-1.81901 0.195742,-4.61698 0.436041,-6.21771 0.240298,-1.60073 0.725147,-3.98198 1.077439,-5.29166 0.352293,-1.30969 0.985134,-3.39329 1.406313,-4.63021 0.421183,-1.23693 1.015625,-2.86612 1.320988,-3.62043 l 0.555205,-1.37146 -1.982759,-0.9797 c -1.09052,-0.53884 -2.544175,-1.39718 -3.23035,-1.90744 -0.686173,-0.51026 -2.061591,-1.71442 -3.05648,-2.67592 -0.994889,-0.961499 -2.314583,-2.40302 -2.932652,-3.203385 -0.61807,-0.800364 -1.624587,-2.303674 -2.236703,-3.340687 -0.612116,-1.037013 -1.515136,-2.839119 -2.006708,-4.004683 -0.491572,-1.165561 -1.228905,-3.41272 -1.638523,-4.993687 -0.691829,-2.670215 -0.744167,-3.231721 -0.73648,-7.901567 0.0068,-4.150092 0.106804,-5.465579 0.573061,-7.540624 0.310634,-1.382448 0.943811,-3.585104 1.407062,-4.894792 0.463251,-1.309687 1.378399,-3.452812 2.033664,-4.762499 0.655264,-1.309688 1.846765,-3.393282 2.647783,-4.630209 0.801015,-1.236927 2.281774,-3.23202 3.290572,-4.433538 1.008801,-1.201517 2.988405,-3.215444 4.399124,-4.475389 1.410716,-1.259949 3.69652,-3.034803 5.079561,-3.944123 1.38304,-0.90932 3.28804,-2.061321 4.233333,-2.560002 0.945292,-0.498679 2.909336,-1.386343 4.364545,-1.972583 1.455208,-0.58624 3.829348,-1.395655 5.275868,-1.798706 1.446516,-0.403048 3.887298,-0.975574 5.423958,-1.272278 2.682242,-0.517903 3.922249,-0.543322 31.02136,-0.635926 l 28.227441,-0.09646 0.31985,-0.981016 c 0.17592,-0.53956 0.64937,-1.665304 1.0521,-2.501657 0.40275,-0.83635 1.16846,-2.114867 1.7016,-2.841151 0.53314,-0.726281 1.64485,-1.923664 2.47046,-2.660854 0.82561,-0.737187 2.21548,-1.688517 3.08861,-2.114065 0.87312,-0.425548 2.30187,-0.958215 3.175,-1.183704 1.12751,-0.291187 2.91635,-0.412535 6.1736,-0.418793 l 4.58611,-0.0088 0.50754,-1.14739 c 0.27915,-0.631063 0.92082,-1.510247 1.42593,-1.953744 0.50512,-0.443497 1.36813,-0.931251 1.91782,-1.083897 0.54968,-0.152649 1.29707,-0.277543 1.66087,-0.277543 0.3638,0 1.1112,0.124894 1.66088,0.277543 0.54968,0.152646 1.43062,0.656137 1.95764,1.11887 0.52702,0.462729 1.11908,1.226317 1.31569,1.69686 0.21962,0.525629 0.35746,1.879068 0.35746,3.509862 v 2.654331 h 7.81371 c 6.00078,0 8.01411,0.08374 8.67745,0.3609 0.47507,0.198493 1.18562,0.74341 1.579,1.210924 0.51463,0.611592 0.71526,1.144881 0.71526,1.9012 0,0.578144 -0.18105,1.401278 -0.40233,1.829186 -0.22128,0.427908 -0.87138,1.017307 -1.44467,1.309778 -0.97561,0.497718 -1.55154,0.531762 -8.99586,0.531762 h -7.95352 l 0.0716,5.357812 0.0716,5.357812 7.54063,0.03643 c 4.14734,0.02003 7.88205,0.0498 8.29935,0.06615 0.50358,0.01971 1.10418,0.375163 1.78594,1.056923 0.88021,0.880211 1.02707,1.192578 1.02622,2.182812 -5.3e-4,0.678919 -0.21404,1.505017 -0.51747,2.002658 -0.28406,0.465878 -0.9087,1.061191 -1.38807,1.322917 -0.77315,0.422113 -1.61878,0.475937 -7.48618,0.476504 -3.63802,2.64e-4 -7.2302,0.03011 -7.98262,0.06615 l -1.36804,0.06551 -0.0872,3.415993 c -0.0856,3.354649 -0.1017,3.434233 -0.89626,4.43177 -0.44499,0.558678 -1.33342,1.283668 -1.97429,1.61109 -0.76062,0.388612 -1.63656,0.595313 -2.52273,0.595313 -0.90669,0 -1.7448,-0.203359 -2.52363,-0.612323 -0.73973,-0.38844 -1.48088,-1.0898 -2.02705,-1.918229 l -0.86096,-1.305906 -4.69529,-0.153226 c -4.17059,-0.136128 -4.92673,-0.232783 -6.7664,-0.864963 -1.13911,-0.391443 -2.72832,-1.132123 -3.53157,-1.645959 -0.80326,-0.513834 -2.01884,-1.493832 -2.7013,-2.17777 -0.68246,-0.683937 -1.64721,-1.835475 -2.1439,-2.55897 -0.49669,-0.723498 -1.29445,-2.211779 -1.7728,-3.307292 -0.47835,-1.095515 -0.87118,-2.200203 -0.87296,-2.454865 -0.003,-0.437792 -1.41234,-0.463007 -25.866248,-0.462798 -15.787015,1.35e-4 -26.996892,0.106992 -28.773437,0.274283 -1.600729,0.150736 -3.981979,0.523253 -5.291666,0.827818 -1.309688,0.304564 -3.393281,0.909272 -4.630208,1.343792 -1.236927,0.43452 -3.196429,1.266296 -4.354449,1.848387 -1.158018,0.582088 -2.889798,1.575051 -3.848396,2.20658 -0.958598,0.631526 -2.658372,1.929347 -3.777271,2.884045 -1.118899,0.954696 -2.823247,2.656647 -3.787444,3.782113 -0.964194,1.125466 -2.228265,2.742073 -2.809046,3.592459 -0.580782,0.85039 -1.503231,2.457733 -2.049886,3.571875 -0.546653,1.114145 -1.253443,2.783131 -1.570638,3.70886 -0.317199,0.925727 -0.738471,2.47354 -0.936165,3.439584 -0.197694,0.966041 -0.440595,2.669016 -0.539782,3.784388 -0.10234,1.150834 -0.04688,3.145755 0.128236,4.612388 0.169717,1.42144 0.547997,3.366362 0.840621,4.322048 0.292626,0.955688 0.997611,2.637158 1.56664,3.736602 0.569026,1.099444 1.617911,2.68887 2.330855,3.53206 0.712943,0.84319 1.932133,2.014527 2.709307,2.602973 0.777173,0.588447 1.889294,1.278901 2.471377,1.534343 0.582083,0.255442 1.415521,0.537908 1.852083,0.627703 0.76449,0.157247 0.830181,0.0924 1.781972,-1.759109 0.543523,-1.057307 1.578948,-2.912216 2.300948,-4.12202 0.722,-1.209805 2.003705,-3.163385 2.848237,-4.341289 0.844529,-1.177903 2.412513,-3.07685 3.484406,-4.219884 1.071896,-1.143032 2.857833,-2.762697 3.96875,-3.599259 1.110919,-0.83656 2.997311,-2.029188 4.191979,-2.650284 1.19467,-0.621096 2.980565,-1.433562 3.968652,-1.805477 0.988089,-0.371916 3.240325,-1.021254 5.004972,-1.442976 1.764644,-0.421722 4.68172,-1.004448 6.482389,-1.294948 1.800669,-0.290502 4.881287,-0.701444 6.845818,-0.913212 1.964531,-0.211764 5.419127,-0.525817 7.67688,-0.697894 2.669447,-0.203456 7.573391,-0.264853 14.022914,-0.175567 6.24155,0.08641 11.29696,0.28923 13.63823,0.547161 2.04618,0.22542 4.5465,0.541322 5.55625,0.702003 1.00977,0.160679 2.96703,0.533541 4.34947,0.828577 1.38245,0.295037 3.53112,0.819293 4.77481,1.165016 1.2437,0.345723 3.62495,1.092729 5.29167,1.660015 1.66672,0.567282 3.95399,1.417187 5.08283,1.888677 1.12884,0.471488 3.1529,1.412111 4.49792,2.090269 1.34502,0.678159 3.42536,1.819069 4.62298,2.535357 1.19763,0.716285 3.40029,2.211281 4.89479,3.322214 1.49451,1.110932 3.96745,3.116424 5.49542,4.456649 1.78499,1.565667 3.44021,2.755985 4.63021,3.329707 1.0229,0.493168 3.98425,1.443871 6.61458,2.12353 2.61938,0.676831 6.07897,1.645753 7.68799,2.153161 1.60902,0.50741 4.01097,1.453194 5.33767,2.101741 1.3267,0.648549 3.28445,1.835344 4.35055,2.637314 1.06611,0.80198 2.60569,2.24601 3.4213,3.20896 0.8156,0.96295 1.90901,2.54013 2.4298,3.50483 0.52078,0.9647 1.24156,2.77154 1.60173,4.01519 0.36017,1.24365 0.80191,3.44631 0.98166,4.89479 0.17974,1.44848 0.33719,4.89579 0.34989,7.66069 0.0185,4.03734 -0.0691,5.36568 -0.44496,6.74687 -0.25742,0.94589 -0.71645,2.23446 -1.02006,2.8635 -0.3036,0.62903 -0.98369,1.5665 -1.51129,2.08326 -0.52761,0.51675 -1.3875,1.21244 -1.91088,1.54597 -0.52338,0.33353 -1.58678,0.79505 -2.36312,1.02559 -0.77634,0.23055 -1.97066,0.41918 -2.65403,0.41918 z m -79.66755,-8.25391 c 0.50515,-0.0595 1.40756,-0.94452 3.47193,-3.40484 1.53415,-1.8284 5.11109,-5.91364 7.94875,-9.0783 2.83765,-3.16467 5.66539,-6.35198 6.28385,-7.08292 0.62476,-0.73838 1.12448,-1.60444 1.12448,-1.94884 0,-0.35451 -0.29843,-0.85461 -0.69714,-1.16823 -0.6428,-0.50563 -1.04559,-0.54837 -5.16768,-0.54837 -3.66188,0 -4.49718,-0.0694 -4.6178,-0.38377 -0.0817,-0.21303 1.16135,-2.67347 2.794,-5.53013 1.61769,-2.830506 3.13463,-5.306951 3.37098,-5.503216 0.34509,-0.286568 3.02706,-0.371718 13.61847,-0.432371 l 13.18875,-0.07553 v -0.623575 c 0,-0.422394 -0.51172,-1.097341 -1.58611,-2.092034 -0.87236,-0.807651 -2.75544,-2.246916 -4.18463,-3.198365 -1.42919,-0.951453 -4.0919,-2.444269 -5.91713,-3.317375 -1.82523,-0.873107 -4.55581,-2.00129 -6.06797,-2.507075 -1.51215,-0.505786 -4.21523,-1.286592 -6.00684,-1.735124 -1.79161,-0.44853 -5.09087,-1.102572 -7.33169,-1.45342 -2.24082,-0.350851 -5.56363,-0.720664 -7.38402,-0.821807 l -3.30981,-0.183897 -0.28481,0.749115 c -0.18455,0.485407 -0.25722,3.150185 -0.20642,7.569845 0.0692,6.01962 0.13159,6.873875 0.53133,7.273211 0.36,0.359643 0.96503,0.456491 2.94881,0.472019 2.06535,0.01617 2.59195,0.106484 3.0528,0.523568 0.36139,0.327075 0.55691,0.824878 0.55691,1.417942 0,0.623636 -0.64088,2.144291 -2.01775,4.787639 -1.10977,2.13055 -2.65758,5.08515 -3.43959,6.56579 -0.782,1.48063 -1.42183,2.98022 -1.42183,3.33243 0,0.3522 0.21301,0.83313 0.47334,1.06873 0.36279,0.32832 1.15067,0.44603 3.37344,0.50403 l 2.9001,0.0757 0.0847,0.73743 c 0.056,0.48771 -0.29625,1.42848 -1.04019,2.77812 -0.61868,1.12239 -1.71012,3.17179 -2.42542,4.55424 -0.71531,1.38245 -1.8248,3.47812 -2.46554,4.65704 -0.64074,1.17893 -1.16498,2.38959 -1.16498,2.69035 0,0.30075 0.0747,0.7416 0.16609,0.97966 0.10751,0.28016 0.40684,0.40445 0.84865,0.35237 z M 80.015628,95.427376 c 13.652735,0.01053 15.105641,-0.02932 15.54427,-0.42627 0.446114,-0.403725 0.483854,-0.998098 0.483854,-7.62 0,-5.233312 -0.08615,-7.268267 -0.3175,-7.499616 -0.191092,-0.191093 -1.112806,-0.317072 -2.315104,-0.316424 -1.098682,5.3e-4 -3.664479,0.123831 -5.70177,0.273863 -2.037292,0.150034 -5.668698,0.515128 -8.069792,0.811321 -2.401093,0.296193 -6.389687,0.938794 -8.863541,1.428001 -2.473854,0.489209 -5.415084,1.18078 -6.536068,1.536824 -1.120984,0.356047 -2.510597,1.02154 -3.088031,1.478875 -0.577433,0.457335 -1.297374,1.342777 -1.59987,1.967648 -0.302493,0.624872 -0.549989,1.497489 -0.549989,1.939153 0,0.441663 0.135506,1.207743 0.301122,1.702403 0.165619,0.494657 0.591971,1.291016 0.947449,1.769684 0.355478,0.478671 1.107308,1.175372 1.670731,1.548228 0.563424,0.372856 1.476525,0.839194 2.029115,1.036309 0.798815,0.284943 4.091014,0.360767 16.065124,0.370001 z"
       id="path2010" />
  </g>
</svg>
