<?xml version="1.0" encoding="UTF-8" standalone="no"?>
<svg
   xmlns:dc="http://purl.org/dc/elements/1.1/"
   xmlns:cc="http://creativecommons.org/ns#"
   xmlns:rdf="http://www.w3.org/1999/02/22-rdf-syntax-ns#"
   xmlns:svg="http://www.w3.org/2000/svg"
   xmlns="http://www.w3.org/2000/svg"
   xmlns:sodipodi="http://sodipodi.sourceforge.net/DTD/sodipodi-0.dtd"
   xmlns:inkscape="http://www.inkscape.org/namespaces/inkscape"
   width="210mm"
   height="297mm"
   viewBox="0 0 210 297"
   version="1.1"
   id="svg8"
   inkscape:version="1.0.1 (3bc2e813f5, 2020-09-07)"
   sodipodi:docname="videogames.svg">
  <defs
     id="defs2" />
  <sodipodi:namedview
     id="base"
     pagecolor="#ffffff"
     bordercolor="#666666"
     borderopacity="1.0"
     inkscape:pageopacity="0.0"
     inkscape:pageshadow="2"
     inkscape:zoom="0.57050223"
     inkscape:cx="387.05193"
     inkscape:cy="149.1648"
     inkscape:document-units="mm"
     inkscape:current-layer="layer1"
     inkscape:document-rotation="0"
     showgrid="false"
     inkscape:window-width="1920"
     inkscape:window-height="1046"
     inkscape:window-x="-11"
     inkscape:window-y="-11"
     inkscape:window-maximized="1" />
  <metadata
     id="metadata5">
    <rdf:RDF>
      <cc:Work
         rdf:about="">
        <dc:format>image/svg+xml</dc:format>
        <dc:type
           rdf:resource="http://purl.org/dc/dcmitype/StillImage" />
        <dc:title></dc:title>
      </cc:Work>
    </rdf:RDF>
  </metadata>
  <g
     inkscape:label="Capa 1"
     inkscape:groupmode="layer"
     id="layer1">
    <path
       style="fill:#4400aa;stroke-width:1"
       d="m 11.809493,184.06632 c -1.52797,0.0472 -3.0757799,0.0282 -3.4395799,-0.0422 -0.3638,-0.0704 -1.25677,-0.31653 -1.98438,-0.54698 -0.7276,-0.23044 -1.91823,-0.71425 -2.64583,-1.07513 -0.72761,-0.36087 -1.83498,-1.0717 -2.46082,-1.57962 -0.62585001,-0.50793 -1.50070001,-1.29753 -1.94411001,-1.75468 -0.44339999,-0.45715 -1.32577999,-1.6189 -1.96082999,-2.58168 -0.63506,-0.96277 -1.38911,-2.34533 -1.67568,-3.07237 -0.28657,-0.72703 -0.70784,-2.22624 -0.93615,-3.33158 -0.22832,-1.10534 -0.41512,-2.93562 -0.41512,-4.06731 0,-1.13168 0.41756,-5.51225 0.92792,-9.73459 0.51035,-4.22234 1.33868,-11.01073 1.84073,-15.08532 0.50205,-4.07458 1.16982,-9.5347 1.48395,-12.13359 0.31412,-2.59889 0.64766999,-5.01146 0.74121999,-5.36126 l 0.17009,-0.636 0.89783,1.5248 c 0.4938,0.83864 1.50481001,2.35463 2.24669001,3.36886 0.74187,1.01423 1.7957,2.36133 2.34183,2.99355 0.71403,0.8266 0.95247,1.31195 0.84883,1.72782 -0.0793,0.31808 -0.35273,2.43631 -0.60768,4.70719 -0.26704,2.37845 -0.37675,4.45344 -0.2588,4.89448 0.11262,0.42109 0.40848,0.91459 0.65748,1.09666 0.24899,0.18207 0.7647,0.33104 1.14601,0.33104 0.38131,0 0.93633,-0.22643 1.23338,-0.50318 0.44854,-0.41788 0.5952,-1.07942 0.86517,-3.9026 0.17878,-1.86969 0.3706,-3.54676 0.42624,-3.72681 0.0631,-0.20419 0.7473799,0.16172 1.8184499,0.97241 0.9445,0.71489 2.45323,1.73113 3.35273,2.25831 0.8995,0.52719 2.72066,1.47862 4.04701,2.1143 1.32635,0.63569 3.84029,1.63063 5.58654,2.21099 1.74625,0.58037 4.36563,1.29858 5.82084,1.59603 1.45521,0.29745 3.87884,0.666 5.38584,0.81901 1.50701,0.15301 3.56084,0.2782 4.56406,0.2782 1.00323,0 1.82406,0.0611 1.82406,0.13588 0,0.0747 -0.11534,0.34263 -0.25631,0.59532 -0.14096,0.25268 -1.94361,3.55505 -4.00589,7.33859 -2.06228,3.78354 -5.53672,10.15339 -7.72099,14.15521 -2.18426,4.00182 -4.41542,7.93089 -4.95813,8.73125 -0.54271,0.80036 -1.68567,2.11839 -2.5399,2.92894 -0.85424,0.81055 -2.13423,1.81323 -2.84444,2.22818 -0.7102,0.41494 -2.07942,1.04418 -3.04271,1.39829 -1.34365,0.49395 -2.39825,0.66382 -4.52955,0.72961 z m 144.594787,0.0977 c -1.01864,-0.009 -2.60602,-0.18009 -3.52749,-0.38011 -0.92148,-0.20001 -2.54843,-0.79503 -3.61544,-1.32225 -1.06702,-0.52722 -2.67066,-1.61976 -3.56365,-2.42787 -0.89299,-0.80811 -2.09702,-2.16642 -2.67563,-3.01846 -0.57861,-0.85204 -1.74633,-2.83084 -2.59492,-4.39732 -0.84859,-1.56649 -3.95999,-7.25347 -6.91421,-12.63774 -2.95422,-5.38427 -5.88812,-10.75365 -6.5198,-11.93195 l -1.14849,-2.14237 3.77044,-0.16741 c 2.07374,-0.0921 4.90153,-0.34524 6.28398,-0.56259 1.38245,-0.21735 3.4175,-0.63318 4.52234,-0.92408 1.10483,-0.2909 3.06936,-0.89757 4.36562,-1.34817 1.29626,-0.4506 3.65548,-1.46739 5.24271,-2.25953 1.58723,-0.79215 3.86792,-2.09369 5.0682,-2.89233 1.20027,-0.79863 3.29794,-2.44534 4.66148,-3.65934 1.36354,-1.21401 2.9612,-2.79152 3.55036,-3.50559 0.58916,-0.71407 1.61622,-2.07221 2.28237,-3.0181 0.66614,-0.94588 1.51408,-2.29094 1.8843,-2.98902 l 0.67313,-1.26923 0.15096,0.87235 c 0.083,0.4798 0.79808,5.81345 1.58899,11.85257 0.79092,6.03911 1.79723,13.65911 2.23626,16.93333 0.43902,3.27422 0.98167,7.53027 1.20588,9.4579 0.22471,1.93183 0.33487,4.18799 0.24546,5.02708 -0.0892,0.83727 -0.33932,2.23641 -0.55581,3.10919 -0.21648,0.87278 -0.69157,2.2948 -1.05574,3.16003 -0.36418,0.86524 -1.11996,2.24734 -1.67953,3.07134 -0.55957,0.824 -1.78566,2.20216 -2.72466,3.06258 -0.9403,0.86161 -2.60043,2.0118 -3.69547,2.56032 -1.09352,0.54776 -2.80302,1.16857 -3.79889,1.37957 -0.99587,0.211 -2.6441,0.37624 -3.66275,0.3672 z M 63.138653,157.83254 c -1.0914,0.0706 -2.70676,0.0175 -3.58969,-0.11805 -0.88292,-0.13553 -2.45295,-0.53472 -3.48895,-0.88709 -1.036,-0.35236 -2.75439,-1.14811 -3.81864,-1.76831 -1.06425,-0.62021 -2.63358,-1.79073 -3.48739,-2.60116 -0.85381,-0.81043 -2.07095,-2.19845 -2.70476,-3.08449 -0.63381,-0.88604 -1.57039,-2.49338 -2.0813,-3.57187 -0.51091,-1.07849 -1.2018,-3.03246 -1.53532,-4.34214 l -0.6064,-2.38125 -3.69742,-0.16268 c -2.03358,-0.0895 -4.29273,-0.25138 -5.02033,-0.35979 -0.72761,-0.10841 -2.27542,-0.41455 -3.43959,-0.68033 -1.16416,-0.26576 -3.18822,-0.86008 -4.49791,-1.32069 -1.30969,-0.46061 -3.52198,-1.42142 -4.91621,-2.13512 -1.39423,-0.7137 -3.53735,-2.02829 -4.7625,-2.92131 -1.22515,-0.89301 -3.12367,-2.52942 -4.21894,-3.63646 -1.09526,-1.10703 -2.6641199,-3.02499 -3.4863499,-4.26211 -0.82224,-1.23714 -1.97589,-3.2612 -2.56368,-4.49792 -0.5878,-1.23673 -1.3618,-3.27396 -1.72,-4.52718 -0.35821,-1.25322 -0.77898,-3.1966 -0.93503,-4.31862 -0.15606,-1.12202 -0.28375,-2.97531 -0.28375,-4.11842 0,-1.1431 0.12449,-3.00972 0.27664,-4.14804 0.15215,-1.13832 0.57283,-3.117895 0.93485,-4.399055 0.36202,-1.28116 1.1144,-3.31678 1.67195,-4.52359 0.55755,-1.20681 1.68457,-3.21287 2.50449,-4.4579 0.81992,-1.24504 2.4731299,-3.24863 3.6738099,-4.45244 1.20068,-1.20381 3.19859,-2.8525 4.4398,-3.66375 1.24121,-0.81126 2.98577,-1.81878 3.87679,-2.23893 1.33903,-0.63141 1.64747,-0.90105 1.77815,-1.55443 0.087,-0.43478 0.1581,-1.37685 0.1581,-2.09349 0,-0.71664 0.18438,-1.65953 0.40972,-2.0953 0.22535,-0.43577 0.7909,-1.02472 1.25677,-1.30878 l 0.84705,-0.51648 9.9489,-0.001 9.94889,-0.001 0.89903,0.60059 c 0.49446,0.33032 1.10719,1.01493 1.36163,1.52135 0.25443,0.50642 0.46442,1.45655 0.46663,2.11139 0.002,0.65485 0.0775,1.46485 0.16724,1.80001 0.11315,0.42244 0.74108,0.90016 2.04691,1.55726 1.03603,0.52134 2.59807,1.42877 3.47119,2.01652 0.87313,0.58775 2.5199,1.97058 3.6595,3.07295 1.1396,1.10237 2.50352,2.56985 3.03093,3.26108 l 0.95893,1.25677 h 23.84614 23.846137 l 0.87131,-1.08422 c 0.47921,-0.59632 1.58084,-1.84273 2.44806,-2.76979 0.86722,-0.92706 2.3703,-2.27342 3.34017,-2.9919 0.96987,-0.71849 2.7159,-1.79229 3.88007,-2.38623 1.16417,-0.59394 2.2655,-1.0814 2.4474,-1.08325 0.1819,-0.002 0.33316,-0.0927 0.33613,-0.2018 0.003,-0.10914 0.0526,-1.04837 0.11025,-2.08718 0.0577,-1.0388 0.29913,-2.26446 0.5366,-2.72367 0.23748,-0.45922 0.81294,-1.06736 1.27882,-1.35142 l 0.84705,-0.51648 9.86887,-0.001 c 8.18419,-7.9e-4 9.99776,0.0657 10.62393,0.38947 0.41529,0.21476 1.00491,0.79471 1.31027,1.2888 0.37274,0.6031 0.61175,1.56726 0.72726,2.93377 l 0.17206,2.03545 1.86948,0.94146 c 1.02822,0.5178 2.70674,1.48876 3.73006,2.15768 1.02331,0.66893 2.87944,2.23195 4.12472,3.47337 1.24529,1.24143 2.99012,3.36215 3.8774,4.71273 0.88728,1.35058 2.10294,3.5722 2.70147,4.93693 0.59852,1.36473 1.31616,3.37255 1.59474,4.46181 0.27859,1.08926 0.63367,2.894625 0.78907,4.011905 0.1554,1.11749 0.28255,2.96691 0.28255,4.11001 0,1.14311 -0.12769,2.9964 -0.28375,4.11842 -0.15606,1.12202 -0.58014,3.0654 -0.9424,4.31862 -0.36226,1.25322 -1.1786,3.37796 -1.81408,4.72163 -0.63548,1.34368 -1.7868,3.36774 -2.55849,4.49792 -0.77168,1.13018 -2.47858,3.12643 -3.79312,4.43612 -1.31453,1.30969 -3.28124,2.99187 -4.37046,3.73817 -1.08923,0.74631 -3.19753,1.97111 -4.68511,2.72177 -1.48758,0.75067 -3.92836,1.76914 -5.42396,2.26328 -1.49559,0.49414 -3.84046,1.09216 -5.21081,1.32893 -1.37036,0.23677 -4.28739,0.53117 -6.4823,0.6542 -2.1949,0.12305 -4.04307,0.17274 -4.10704,0.11043 -0.064,-0.0623 -0.32701,0.93124 -0.58454,2.20789 -0.30157,1.49498 -0.88844,3.16873 -1.6488,4.70241 -0.64931,1.30969 -1.76697,3.15516 -2.48367,4.10104 -0.7167,0.94589 -1.96986,2.2891 -2.78478,2.98491 -0.81492,0.69582 -2.48246,1.79751 -3.70565,2.44821 -1.22318,0.6507 -3.16433,1.43568 -4.31366,1.74442 -1.4778,0.39697 -2.90314,0.56504 -4.8678,0.574 -1.77521,0.008 -3.39898,-0.14719 -4.49792,-0.43013 -0.94589,-0.24354 -2.850887,-0.9963 -4.233327,-1.6728 -2.05461,-1.00542 -2.90549,-1.62132 -4.66018,-3.37316 -1.18065,-1.17873 -2.58212,-2.82592 -3.11437,-3.66041 -0.53225,-0.83449 -1.31503,-2.3823 -1.73951,-3.43958 l -0.77179,-1.92233 -2.75978,-0.0747 -2.75979,-0.0748 -0.15537,0.77685 c -0.0854,0.42727 -0.5246,1.55834 -0.97589,2.51349 -0.45129,0.95515 -1.33517,2.42514 -1.96418,3.26665 -0.62901,0.8415 -1.78309,2.13516 -2.56463,2.8748 -0.78153,0.73964 -2.01667,1.71546 -2.74474,2.1685 -0.72808,0.45303 -1.9984,1.12205 -2.82294,1.48669 -0.82454,0.36466 -2.19337,0.84124 -3.04185,1.05909 -0.84848,0.21785 -2.43566,0.45385 -3.52707,0.52445 z m -1.15486,-8.59448 c 1.38059,0.017 2.66143,-0.13709 3.57188,-0.42985 0.78069,-0.25103 2.12463,-0.9378 2.98653,-1.52615 0.86189,-0.58836 2.13729,-1.81255 2.83421,-2.72044 0.80991,-1.05507 1.46169,-2.28062 1.80635,-3.3965 0.33174,-1.07404 0.53802,-2.47319 0.53609,-3.63617 -0.002,-1.03969 -0.17244,-2.52641 -0.37936,-3.30381 -0.20693,-0.77739 -0.77106,-2.07005 -1.25363,-2.87256 -0.48258,-0.80251 -1.5056,-2.03575 -2.27337,-2.74055 -0.76778,-0.70479 -2.19403,-1.67433 -3.16944,-2.15452 l -1.77348,-0.87308 h -2.9297 -2.9297 l -2.09707,1.03642 c -1.32887,0.65677 -2.5749,1.52701 -3.40151,2.37565 -0.74926,0.76925 -1.68578,2.14222 -2.20044,3.22594 -0.4928,1.0377 -1.01578,2.65614 -1.16219,3.59654 -0.17922,1.15115 -0.17843,2.25479 0.002,3.37775 0.14774,0.91737 0.62422,2.42786 1.05885,3.35664 0.43463,0.92878 1.39452,2.32764 2.13308,3.10856 0.73857,0.78093 2.03829,1.79053 2.88827,2.24357 0.84998,0.45303 2.00765,0.93221 2.5726,1.06484 0.56495,0.13263 1.99577,0.2531 3.17961,0.26772 z m 0.14458,-6.16331 c -0.95675,0.1011 -1.53977,-0.0147 -2.56159,-0.50876 -0.7276,-0.35181 -1.58512,-0.92493 -1.9056,-1.27359 -0.32048,-0.34867 -0.76696,-1.07498 -0.99219,-1.61402 -0.22522,-0.53905 -0.4095,-1.56468 -0.4095,-2.27919 0,-0.7145 0.17849,-1.72628 0.39664,-2.2484 0.21816,-0.52212 0.79223,-1.34489 1.27572,-1.82837 0.48348,-0.48349 1.3606,-1.02334 1.94915,-1.19968 0.58855,-0.17633 1.62657,-0.3206 2.30671,-0.3206 0.69752,0 1.66455,0.22012 2.21826,0.50493 0.5399,0.27772 1.30275,0.84326 1.69521,1.25677 0.39247,0.41351 0.89848,1.1945 1.12448,1.73553 0.226,0.54103 0.41091,1.52803 0.41091,2.19335 0,0.67281 -0.22462,1.64532 -0.50613,2.19131 -0.27836,0.53991 -0.75916,1.24943 -1.06842,1.57673 -0.30927,0.3273 -1.04216,0.83989 -1.62864,1.13909 -0.58648,0.2992 -1.62374,0.6029 -2.30501,0.6749 z m 43.764587,6.12759 2.66993,-0.0803 1.98002,-0.97858 c 1.32512,-0.65491 2.43719,-1.46197 3.36219,-2.44002 0.76852,-0.81258 1.75571,-2.25534 2.22353,-3.24962 0.7469,-1.58745 0.85147,-2.10007 0.93146,-4.56632 0.0736,-2.26794 -0.008,-3.05745 -0.44297,-4.29914 -0.29318,-0.83656 -0.96076,-2.16537 -1.4835,-2.9529 -0.52273,-0.78754 -1.45193,-1.83644 -2.06489,-2.33089 -0.61295,-0.49444 -1.53117,-1.1494 -2.04049,-1.45546 -0.50933,-0.30606 -1.63385,-0.76079 -2.49895,-1.01051 -1.16964,-0.33763 -2.15324,-0.41903 -3.83646,-0.3175 -1.35468,0.0817 -2.84785,0.35957 -3.71876,0.69203 -0.80037,0.30553 -2.139687,1.09436 -2.976277,1.75296 -0.83659,0.6586 -1.93811,1.82556 -2.44782,2.59323 -0.5097,0.76767 -1.1768,2.10548 -1.48243,2.97291 -0.38259,1.08585 -0.55915,2.24386 -0.56677,3.71738 -0.007,1.37712 0.1643,2.69786 0.48078,3.70417 0.27052,0.86016 0.97224,2.26367 1.55937,3.1189 0.58714,0.85523 1.73653,2.08167 2.5542,2.72542 0.81767,0.64375 2.305947,1.4661 3.307287,1.82745 1.57113,0.56696 2.18649,0.646 4.49055,0.57674 z m -0.66654,-6.04586 c -0.37426,-0.0125 -1.01999,-0.12451 -1.43495,-0.24889 -0.41495,-0.12438 -1.14006,-0.49036 -1.61135,-0.8133 -0.47129,-0.32293 -1.11729,-0.96717 -1.43556,-1.43165 -0.31827,-0.46448 -0.69448,-1.24834 -0.836037,-1.74191 -0.14155,-0.49357 -0.25475,-1.3149 -0.25156,-1.82518 0.003,-0.51028 0.22263,-1.40506 0.487637,-1.98839 0.265,-0.58333 0.91555,-1.44143 1.44567,-1.90687 0.53011,-0.46545 1.54232,-1.01806 2.24936,-1.22803 0.94522,-0.2807 1.62621,-0.31811 2.57257,-0.14131 0.70788,0.13225 1.73894,0.55361 2.29124,0.93635 0.5523,0.38275 1.2309,1.0663 1.50799,1.51901 0.2771,0.45272 0.64021,1.33603 0.80692,1.96291 0.24677,0.92792 0.22474,1.4094 -0.1185,2.59009 -0.29497,1.01467 -0.73928,1.75858 -1.4792,2.47665 -0.58167,0.5645 -1.61023,1.21466 -2.28568,1.44481 -0.67544,0.23014 -1.5343,0.40821 -1.90855,0.39571 z m 29.10416,-16.65182 c 0.81083,0.003 2.04218,-0.18771 2.73633,-0.42423 0.69416,-0.23653 1.68302,-0.85096 2.19748,-1.36542 0.51445,-0.51445 1.17484,-1.47675 1.46754,-2.13843 0.34986,-0.79093 0.52464,-1.73441 0.51018,-2.75404 -0.0142,-1.00214 -0.2208,-1.96165 -0.58382,-2.71156 -0.30901,-0.63832 -0.99245,-1.53867 -1.51875,-2.00077 -0.5263,-0.4621 -1.44095,-1.06003 -2.03255,-1.32874 -0.68202,-0.30977 -1.69859,-0.49067 -2.77803,-0.49436 -1.18495,-0.004 -2.04292,0.15903 -2.82271,0.53652 -0.61616,0.29829 -1.59722,1.05973 -2.18011,1.69209 -0.5829,0.63237 -1.18725,1.60871 -1.34301,2.16965 -0.15575,0.56094 -0.28386,1.64893 -0.28467,2.41775 -10e-4,0.96138 0.20101,1.79743 0.64698,2.67751 0.35665,0.70381 1.04126,1.61123 1.52135,2.01649 0.4801,0.40526 1.34916,0.95394 1.93124,1.21928 0.61132,0.27867 1.68101,0.4849 2.53255,0.48826 z M 33.505323,124.8853 c 2.92776,0.005 4.96147,-0.10831 5.53114,-0.30799 0.49551,-0.17369 1.26802,-0.77161 1.71669,-1.32872 l 0.81577,-1.01292 0.0979,-3.78811 0.0979,-3.78812 4.00618,-0.10405 c 3.11145,-0.0808 4.19358,-0.20427 4.84523,-0.55278 0.46147,-0.24681 1.11631,-0.83749 1.45521,-1.31263 l 0.61617,-0.86388 v -5.29167 -5.29167 l -0.63374,-1.01944 c -0.34855,-0.560705 -1.0034,-1.244865 -1.45521,-1.520375 -0.67906,-0.41408 -1.34893,-0.50159 -3.86418,-0.50482 -1.67349,-0.002 -3.48919,-0.0777 -4.03489,-0.1679 l -0.99219,-0.164 v -3.49777 c 0,-1.92378 -0.13526,-3.90249 -0.30058,-4.39715 -0.16532,-0.49466 -0.59603,-1.21815 -0.95713,-1.60776 -0.36109,-0.38961 -0.98201,-0.8432 -1.37982,-1.00797 -0.4811,-0.19928 -2.50209,-0.27216 -6.03578,-0.21766 l -5.3125,0.0819 -0.74616,0.55682 c -0.41038,0.30625 -0.97869,0.95395 -1.26289,1.43934 -0.43157,0.73706 -0.53493,1.52288 -0.62712,4.7679 l -0.11037,3.88539 -1.35726,0.16307 c -0.7465,0.0897 -2.62805,0.16412 -4.18123,0.16538 l -2.82397,0.002 -0.82356,0.69297 c -0.45295,0.38114 -1.00151,1.03712 -1.21902,1.457735 -0.30377,0.58742 -0.40893,1.94524 -0.45352,5.85547 -0.0492,4.3153 0.009,5.2116 0.37984,5.88445 0.24083,0.43656 0.73534,1.07158 1.0989,1.41116 0.36356,0.33957 1.11902,0.72369 1.67879,0.85358 0.55977,0.1299 2.58484,0.23902 4.50017,0.24249 l 3.4824,0.006 0.0306,3.59906 c 0.0211,2.48908 0.14299,3.81508 0.39506,4.29948 0.20046,0.38523 0.65788,0.97445 1.01649,1.30937 0.35861,0.33492 0.995,0.71164 1.4142,0.83715 0.4192,0.12551 2.84578,0.23172 5.39239,0.23602 z m 0,-5.51858 c -1.74494,0 -2.6682,-0.10714 -2.8501,-0.33073 -0.14798,-0.1819 -0.32214,-2.05713 -0.38701,-4.16719 -0.0649,-2.11005 -0.20571,-4.03562 -0.31297,-4.27904 -0.10726,-0.24342 -0.59075,-0.63037 -1.07443,-0.8599 -0.6792,-0.3223 -1.78156,-0.41731 -4.84193,-0.41731 -3.0704,0 -4.03161,-0.0832 -4.2694,-0.36977 -0.19953,-0.24042 -0.28028,-1.28175 -0.23084,-2.97657 l 0.0761,-2.60678 4.49792,-0.13463 c 2.7973,-0.0837 4.71123,-0.25601 5.0621,-0.45567 0.3103,-0.17657 0.65718,-0.53271 0.77083,-0.79141 0.11365,-0.25871 0.27649,-2.434915 0.36186,-4.836005 l 0.15521,-4.36562 2.51354,-0.0776 c 1.38245,-0.0427 2.7736,-0.0126 3.09144,0.0668 l 0.5779,0.14439 0.0836,4.49059 0.0836,4.490595 0.60215,0.60197 0.60216,0.60197 4.42493,0.0826 c 3.20069,0.0598 4.49813,0.17638 4.68951,0.42154 0.15732,0.20153 0.21095,1.40162 0.13229,2.96011 l -0.13229,2.62116 -4.55757,0.13229 -4.55757,0.1323 -0.6018,0.60191 -0.60181,0.60193 -0.0862,4.02532 c -0.0488,2.27985 -0.20627,4.17002 -0.36313,4.35901 -0.18823,0.22681 -1.10369,0.3337 -2.85798,0.3337 z m 87.500407,-6.45343 c 1.16131,-0.0696 1.98714,-0.30014 2.81638,-0.78611 0.6453,-0.37817 1.48788,-1.06148 1.87241,-1.51846 0.38453,-0.45698 0.87333,-1.24777 1.08622,-1.7573 0.2129,-0.50952 0.38447,-1.59648 0.38127,-2.41545 -0.004,-0.91987 -0.21158,-1.94414 -0.54414,-2.67967 -0.29607,-0.65484 -0.91854,-1.59216 -1.38325,-2.08292 -0.46471,-0.49076 -1.44024,-1.17421 -2.16784,-1.51877 -0.7276,-0.344565 -1.80732,-0.627635 -2.39937,-0.629055 -0.59205,-10e-4 -1.66362,0.17258 -2.38125,0.38669 -0.71764,0.214105 -1.72541,0.737225 -2.23948,1.162495 -0.51408,0.42527 -1.27213,1.44015 -1.68456,2.25529 -0.64479,1.27441 -0.73421,1.71395 -0.63817,3.13699 0.0614,0.9102 0.31811,2.08258 0.57039,2.6053 0.25228,0.52271 0.95136,1.44798 1.55352,2.05616 0.65553,0.66208 1.58033,1.26178 2.30479,1.49456 0.72827,0.234 1.8641,0.34955 2.85308,0.29025 z m 27.87708,-0.002 c 0.8109,-0.0552 1.94199,-0.34127 2.51354,-0.6357 0.57155,-0.29444 1.4128,-0.93272 1.86945,-1.41842 0.45665,-0.48569 1.0242,-1.26798 1.26122,-1.73841 0.23701,-0.47044 0.50308,-1.38174 0.59126,-2.02513 0.0882,-0.64338 0.0209,-1.75105 -0.14953,-2.46148 -0.19779,-0.82448 -0.6983,-1.74611 -1.38376,-2.54803 -0.59063,-0.69098 -1.56713,-1.51811 -2.17,-1.83807 -0.8564,-0.454515 -1.53013,-0.579305 -3.0805,-0.570605 -1.50135,0.008 -2.25118,0.15003 -3.08043,0.581705 -0.60283,0.31381 -1.51148,1.05591 -2.01923,1.6491 -0.50776,0.59319 -1.08055,1.6391 -1.27287,2.32423 -0.19233,0.68513 -0.32772,1.75922 -0.30087,2.38686 0.0268,0.62765 0.27415,1.65057 0.54955,2.27316 0.2754,0.62259 1.02108,1.63198 1.65705,2.24309 0.65227,0.62675 1.67603,1.27826 2.34854,1.49459 0.68416,0.22006 1.82051,0.34071 2.66658,0.28311 z m -64.754007,-1.55405 10.80368,-0.0602 0.77184,-0.86407 c 0.63322,-0.70885 0.77183,-1.10012 0.77183,-2.1786 0,-1.06677 -0.14001,-1.47127 -0.74275,-2.14585 -0.48755,-0.54567 -1.0894,-0.88801 -1.75164,-0.99637 -0.55488,-0.0908 -5.58836,-0.10554 -11.1855,-0.0328 l -10.17663,0.13229 -0.77174,0.86407 c -0.61129,0.68443 -0.77174,1.11267 -0.77174,2.05983 0,0.66364 0.19348,1.49105 0.43479,1.85932 0.23913,0.36496 0.74514,0.83436 1.12447,1.04312 0.57266,0.31514 2.52312,0.36933 11.49339,0.31931 z M 134.57615,98.715135 c 0.98438,0.006 1.88387,-0.19058 2.78006,-0.60792 0.72866,-0.33932 1.72582,-1.07364 2.21591,-1.63181 0.49008,-0.55819 1.05476,-1.40666 1.25484,-1.88551 0.20008,-0.47886 0.36378,-1.59267 0.36378,-2.47514 0,-0.88247 -0.1725,-2.01735 -0.38333,-2.52194 -0.21083,-0.50459 -0.68657,-1.315 -1.05719,-1.80091 -0.37062,-0.48591 -1.25703,-1.20087 -1.9698,-1.58881 -0.71276,-0.38794 -1.83295,-0.77895 -2.48929,-0.86891 -0.65634,-0.09 -1.7978,-0.0186 -2.53658,0.15867 -0.73878,0.17723 -1.86849,0.72331 -2.51048,1.21351 -0.70638,0.53936 -1.43966,1.4379 -1.85717,2.27573 -0.52006,1.04363 -0.68991,1.78764 -0.68991,3.0221 0,1.27295 0.16203,1.94735 0.7276,3.02844 0.40018,0.76495 1.1595,1.74006 1.68738,2.16691 0.52788,0.42686 1.42085,0.94046 1.98438,1.14134 0.56353,0.20087 1.67944,0.36929 2.4798,0.37425 z M 83.908453,84.706295 h -9.39271 v -3.0512 c 0,-2.03847 0.12481,-3.34992 0.37603,-3.95118 0.20907,-0.50037 0.73189,-1.08399 1.17748,-1.31442 0.51988,-0.26884 1.546455,-0.08263 2.79897,-0.41444 h 1.99752 v -6.3217 -6.32169 l 0.151861,-3.095149 c 2.001716,-0.612214 4.633516,-0.748719 6.392842,0.30228 l 0.02889,2.806324 0.04099,7.442245 v 5.18769 l 1.78594,0.001 c 1.3014,8e-4 2.01465,0.14045 2.62894,0.51501 0.46366,0.28271 0.96269,0.73764 1.10897,1.01096 0.14628,0.27332 0.2801,1.73821 0.29739,3.25531 0.0173,1.5171 0.0243,3.02625 0.0155,3.35367 l -0.0159,0.59524 z"
       id="path847"
       sodipodi:nodetypes="sssssssssssssscssscssssssssssssssssssssssssssssssssccsssssssssccssssssssssscsssssssccsssssssssssssssssscssscccssccsssscccsssscccssccssscssssssssssssssssssssssssscsssssccccssssssccssssscsssscccsssscsssssssssssssssssssssssccsssccssssssssscssssccssssscssssssssssscssssssscsssssssccsscccsssccccscscssssccssscsccssscsscccssscccscsssccccssscccccccccssccccccsccsssscssscsssssssssssssssscssscssssccssssccsssscccsssssssccsssssscccsssscccccccccsssccc" />
  </g>
</svg>
